G04 #@! TF.GenerationSoftware,KiCad,Pcbnew,8.0.6*
G04 #@! TF.CreationDate,2024-11-24T01:45:05-05:00*
G04 #@! TF.ProjectId,RPI-PICO-R3a-PUBLIC,5250492d-5049-4434-9f2d-5233612d5055,4*
G04 #@! TF.SameCoordinates,Original*
G04 #@! TF.FileFunction,Copper,L1,Top*
G04 #@! TF.FilePolarity,Positive*
%FSLAX46Y46*%
G04 Gerber Fmt 4.6, Leading zero omitted, Abs format (unit mm)*
G04 Created by KiCad (PCBNEW 8.0.6) date 2024-11-24 01:45:05*
%MOMM*%
%LPD*%
G01*
G04 APERTURE LIST*
G04 Aperture macros list*
%AMRoundRect*
0 Rectangle with rounded corners*
0 $1 Rounding radius*
0 $2 $3 $4 $5 $6 $7 $8 $9 X,Y pos of 4 corners*
0 Add a 4 corners polygon primitive as box body*
4,1,4,$2,$3,$4,$5,$6,$7,$8,$9,$2,$3,0*
0 Add four circle primitives for the rounded corners*
1,1,$1+$1,$2,$3*
1,1,$1+$1,$4,$5*
1,1,$1+$1,$6,$7*
1,1,$1+$1,$8,$9*
0 Add four rect primitives between the rounded corners*
20,1,$1+$1,$2,$3,$4,$5,0*
20,1,$1+$1,$4,$5,$6,$7,0*
20,1,$1+$1,$6,$7,$8,$9,0*
20,1,$1+$1,$8,$9,$2,$3,0*%
G04 Aperture macros list end*
G04 #@! TA.AperFunction,SMDPad,CuDef*
%ADD10C,1.000000*%
G04 #@! TD*
G04 #@! TA.AperFunction,SMDPad,CuDef*
%ADD11RoundRect,0.135000X0.135000X0.185000X-0.135000X0.185000X-0.135000X-0.185000X0.135000X-0.185000X0*%
G04 #@! TD*
G04 #@! TA.AperFunction,SMDPad,CuDef*
%ADD12RoundRect,0.250000X0.475000X-0.250000X0.475000X0.250000X-0.475000X0.250000X-0.475000X-0.250000X0*%
G04 #@! TD*
G04 #@! TA.AperFunction,SMDPad,CuDef*
%ADD13RoundRect,0.250000X0.375000X0.850000X-0.375000X0.850000X-0.375000X-0.850000X0.375000X-0.850000X0*%
G04 #@! TD*
G04 #@! TA.AperFunction,ComponentPad*
%ADD14C,1.600000*%
G04 #@! TD*
G04 #@! TA.AperFunction,ComponentPad*
%ADD15R,1.600000X1.600000*%
G04 #@! TD*
G04 #@! TA.AperFunction,SMDPad,CuDef*
%ADD16R,0.900000X0.300000*%
G04 #@! TD*
G04 #@! TA.AperFunction,SMDPad,CuDef*
%ADD17R,0.250000X1.650000*%
G04 #@! TD*
G04 #@! TA.AperFunction,SMDPad,CuDef*
%ADD18RoundRect,0.100000X0.130000X0.100000X-0.130000X0.100000X-0.130000X-0.100000X0.130000X-0.100000X0*%
G04 #@! TD*
G04 #@! TA.AperFunction,SMDPad,CuDef*
%ADD19RoundRect,0.135000X-0.135000X-0.185000X0.135000X-0.185000X0.135000X0.185000X-0.135000X0.185000X0*%
G04 #@! TD*
G04 #@! TA.AperFunction,SMDPad,CuDef*
%ADD20RoundRect,0.140000X-0.140000X-0.170000X0.140000X-0.170000X0.140000X0.170000X-0.140000X0.170000X0*%
G04 #@! TD*
G04 #@! TA.AperFunction,SMDPad,CuDef*
%ADD21RoundRect,0.135000X-0.185000X0.135000X-0.185000X-0.135000X0.185000X-0.135000X0.185000X0.135000X0*%
G04 #@! TD*
G04 #@! TA.AperFunction,SMDPad,CuDef*
%ADD22R,1.050000X0.650000*%
G04 #@! TD*
G04 #@! TA.AperFunction,SMDPad,CuDef*
%ADD23RoundRect,0.100000X0.155000X0.100000X-0.155000X0.100000X-0.155000X-0.100000X0.155000X-0.100000X0*%
G04 #@! TD*
G04 #@! TA.AperFunction,SMDPad,CuDef*
%ADD24RoundRect,0.100000X0.021213X0.162635X-0.162635X-0.021213X-0.021213X-0.162635X0.162635X0.021213X0*%
G04 #@! TD*
G04 #@! TA.AperFunction,SMDPad,CuDef*
%ADD25RoundRect,0.100000X0.100000X-0.130000X0.100000X0.130000X-0.100000X0.130000X-0.100000X-0.130000X0*%
G04 #@! TD*
G04 #@! TA.AperFunction,SMDPad,CuDef*
%ADD26RoundRect,0.135000X0.185000X-0.135000X0.185000X0.135000X-0.185000X0.135000X-0.185000X-0.135000X0*%
G04 #@! TD*
G04 #@! TA.AperFunction,SMDPad,CuDef*
%ADD27RoundRect,0.100000X-0.130000X-0.100000X0.130000X-0.100000X0.130000X0.100000X-0.130000X0.100000X0*%
G04 #@! TD*
G04 #@! TA.AperFunction,SMDPad,CuDef*
%ADD28RoundRect,0.200000X0.200000X0.275000X-0.200000X0.275000X-0.200000X-0.275000X0.200000X-0.275000X0*%
G04 #@! TD*
G04 #@! TA.AperFunction,SMDPad,CuDef*
%ADD29RoundRect,0.140000X0.170000X-0.140000X0.170000X0.140000X-0.170000X0.140000X-0.170000X-0.140000X0*%
G04 #@! TD*
G04 #@! TA.AperFunction,SMDPad,CuDef*
%ADD30RoundRect,0.150000X0.425000X-0.150000X0.425000X0.150000X-0.425000X0.150000X-0.425000X-0.150000X0*%
G04 #@! TD*
G04 #@! TA.AperFunction,SMDPad,CuDef*
%ADD31RoundRect,0.075000X0.500000X-0.075000X0.500000X0.075000X-0.500000X0.075000X-0.500000X-0.075000X0*%
G04 #@! TD*
G04 #@! TA.AperFunction,ComponentPad*
%ADD32O,2.100000X1.000000*%
G04 #@! TD*
G04 #@! TA.AperFunction,ComponentPad*
%ADD33O,1.800000X1.000000*%
G04 #@! TD*
G04 #@! TA.AperFunction,SMDPad,CuDef*
%ADD34RoundRect,0.218750X-0.256250X0.218750X-0.256250X-0.218750X0.256250X-0.218750X0.256250X0.218750X0*%
G04 #@! TD*
G04 #@! TA.AperFunction,SMDPad,CuDef*
%ADD35RoundRect,0.062500X0.062500X-0.337500X0.062500X0.337500X-0.062500X0.337500X-0.062500X-0.337500X0*%
G04 #@! TD*
G04 #@! TA.AperFunction,HeatsinkPad*
%ADD36R,2.200000X1.300000*%
G04 #@! TD*
G04 #@! TA.AperFunction,SMDPad,CuDef*
%ADD37R,1.200000X1.400000*%
G04 #@! TD*
G04 #@! TA.AperFunction,SMDPad,CuDef*
%ADD38RoundRect,0.150000X-0.625000X0.150000X-0.625000X-0.150000X0.625000X-0.150000X0.625000X0.150000X0*%
G04 #@! TD*
G04 #@! TA.AperFunction,SMDPad,CuDef*
%ADD39RoundRect,0.250000X-0.650000X0.350000X-0.650000X-0.350000X0.650000X-0.350000X0.650000X0.350000X0*%
G04 #@! TD*
G04 #@! TA.AperFunction,SMDPad,CuDef*
%ADD40RoundRect,0.050000X-0.050000X0.387500X-0.050000X-0.387500X0.050000X-0.387500X0.050000X0.387500X0*%
G04 #@! TD*
G04 #@! TA.AperFunction,SMDPad,CuDef*
%ADD41RoundRect,0.050000X-0.387500X0.050000X-0.387500X-0.050000X0.387500X-0.050000X0.387500X0.050000X0*%
G04 #@! TD*
G04 #@! TA.AperFunction,HeatsinkPad*
%ADD42R,3.200000X3.200000*%
G04 #@! TD*
G04 #@! TA.AperFunction,SMDPad,CuDef*
%ADD43RoundRect,0.250000X-0.300000X-0.300000X0.300000X-0.300000X0.300000X0.300000X-0.300000X0.300000X0*%
G04 #@! TD*
G04 #@! TA.AperFunction,SMDPad,CuDef*
%ADD44RoundRect,0.100000X-0.100000X0.130000X-0.100000X-0.130000X0.100000X-0.130000X0.100000X0.130000X0*%
G04 #@! TD*
G04 #@! TA.AperFunction,ViaPad*
%ADD45C,0.500000*%
G04 #@! TD*
G04 #@! TA.AperFunction,Conductor*
%ADD46C,0.250000*%
G04 #@! TD*
G04 #@! TA.AperFunction,Conductor*
%ADD47C,0.200000*%
G04 #@! TD*
G04 #@! TA.AperFunction,Conductor*
%ADD48C,0.300000*%
G04 #@! TD*
G04 #@! TA.AperFunction,Conductor*
%ADD49C,0.400000*%
G04 #@! TD*
G04 #@! TA.AperFunction,Conductor*
%ADD50C,0.130000*%
G04 #@! TD*
G04 #@! TA.AperFunction,Conductor*
%ADD51C,0.500000*%
G04 #@! TD*
G04 #@! TA.AperFunction,Conductor*
%ADD52C,0.150000*%
G04 #@! TD*
G04 APERTURE END LIST*
D10*
X130600000Y-109700000D03*
D11*
X156360000Y-99000000D03*
X155340000Y-99000000D03*
D12*
X167550000Y-108350000D03*
X167550000Y-106450000D03*
D13*
X166125000Y-110500000D03*
X163975000Y-110500000D03*
D11*
X155560000Y-110000000D03*
X154540000Y-110000000D03*
D14*
X126320000Y-113390000D03*
X128860000Y-113390000D03*
D15*
X131400000Y-113390000D03*
D14*
X133940000Y-113390000D03*
X136480000Y-113390000D03*
X139020000Y-113390000D03*
X141560000Y-113390000D03*
D15*
X144100000Y-113390000D03*
D14*
X146640000Y-113390000D03*
X149180000Y-113390000D03*
X151720000Y-113390000D03*
X154260000Y-113390000D03*
D15*
X156800000Y-113390000D03*
D14*
X159340000Y-113390000D03*
X161880000Y-113390000D03*
X164420000Y-113390000D03*
X166960000Y-113390000D03*
D15*
X169500000Y-113390000D03*
D14*
X172040000Y-113390000D03*
X174580000Y-113390000D03*
D16*
X155450000Y-99950000D03*
X155450000Y-100450000D03*
X155450000Y-100950000D03*
X155450000Y-101450000D03*
X158250000Y-101450000D03*
X158250000Y-100950000D03*
X158250000Y-100450000D03*
X158250000Y-99950000D03*
D17*
X156850000Y-100700000D03*
D18*
X145270000Y-104500000D03*
X144630000Y-104500000D03*
D19*
X159540000Y-110500000D03*
X160560000Y-110500000D03*
D20*
X154570000Y-109100000D03*
X155530000Y-109100000D03*
D21*
X169050000Y-107490000D03*
X169050000Y-108510000D03*
D22*
X161875000Y-99925000D03*
X166025000Y-99925000D03*
X161875000Y-102075000D03*
X166025000Y-102075000D03*
D23*
X157005000Y-110400000D03*
X157005000Y-111400000D03*
X158295000Y-110900000D03*
D18*
X155370000Y-105900000D03*
X154730000Y-105900000D03*
D19*
X157340000Y-99000000D03*
X158360000Y-99000000D03*
D24*
X148776274Y-108873726D03*
X148323726Y-109326274D03*
D25*
X152650000Y-100320000D03*
X152650000Y-99680000D03*
D18*
X145270000Y-105200000D03*
X144630000Y-105200000D03*
D20*
X154570000Y-107600000D03*
X155530000Y-107600000D03*
D26*
X143350000Y-103860000D03*
X143350000Y-102840000D03*
D27*
X154730000Y-103800000D03*
X155370000Y-103800000D03*
D26*
X169250000Y-102310000D03*
X169250000Y-101290000D03*
D21*
X150450000Y-110090000D03*
X150450000Y-111110000D03*
D28*
X160375000Y-108900000D03*
X158725000Y-108900000D03*
D21*
X144250000Y-102190000D03*
X144250000Y-103210000D03*
D14*
X174580000Y-95610000D03*
X172040000Y-95610000D03*
D15*
X169500000Y-95610000D03*
D14*
X166960000Y-95610000D03*
X164420000Y-95610000D03*
X161880000Y-95610000D03*
X159340000Y-95610000D03*
D15*
X156800000Y-95610000D03*
D14*
X154260000Y-95610000D03*
X151720000Y-95610000D03*
X149180000Y-95610000D03*
X146640000Y-95610000D03*
D15*
X144100000Y-95610000D03*
D14*
X141560000Y-95610000D03*
X139020000Y-95610000D03*
X136480000Y-95610000D03*
X133940000Y-95610000D03*
D15*
X131400000Y-95610000D03*
D14*
X128860000Y-95610000D03*
X126320000Y-95610000D03*
D21*
X168250000Y-101290000D03*
X168250000Y-102310000D03*
D29*
X153500000Y-100280000D03*
X153500000Y-99320000D03*
D27*
X159530000Y-111400000D03*
X160170000Y-111400000D03*
D18*
X142220000Y-104500000D03*
X141580000Y-104500000D03*
D30*
X171320000Y-107700000D03*
X171320000Y-106900000D03*
D31*
X171320000Y-105750000D03*
X171320000Y-104750000D03*
X171320000Y-104250000D03*
X171320000Y-103250000D03*
D30*
X171320000Y-102100000D03*
X171320000Y-101300000D03*
X171320000Y-101300000D03*
X171320000Y-102100000D03*
D31*
X171320000Y-102750000D03*
X171320000Y-103750000D03*
X171320000Y-105250000D03*
X171320000Y-106250000D03*
D30*
X171320000Y-106900000D03*
X171320000Y-107700000D03*
D32*
X171895000Y-108820000D03*
D33*
X176075000Y-108820000D03*
D32*
X171895000Y-100180000D03*
D33*
X176075000Y-100180000D03*
D12*
X162550000Y-108350000D03*
X162550000Y-106450000D03*
D34*
X171150000Y-97312500D03*
X171150000Y-98887500D03*
D10*
X168350000Y-98700000D03*
D35*
X164050000Y-108675000D03*
X164550000Y-108675000D03*
X165050000Y-108675000D03*
X165550000Y-108675000D03*
X166050000Y-108675000D03*
X166050000Y-106125000D03*
X165550000Y-106125000D03*
X165050000Y-106125000D03*
X164550000Y-106125000D03*
X164050000Y-106125000D03*
D36*
X165050000Y-107400000D03*
D18*
X155370000Y-105200000D03*
X154730000Y-105200000D03*
D25*
X148950000Y-100320000D03*
X148950000Y-99680000D03*
D19*
X154540000Y-110900000D03*
X155560000Y-110900000D03*
D37*
X140600000Y-101100000D03*
X140600000Y-103300000D03*
X142200000Y-103300000D03*
X142200000Y-101100000D03*
D38*
X130300000Y-103500000D03*
X130300000Y-104500000D03*
X130300000Y-105500000D03*
D39*
X126425000Y-102200000D03*
X126425000Y-106800000D03*
D27*
X154730000Y-104500000D03*
X155370000Y-104500000D03*
X140580000Y-99900000D03*
X141220000Y-99900000D03*
D20*
X154570000Y-106700000D03*
X155530000Y-106700000D03*
D27*
X159180000Y-99950000D03*
X159820000Y-99950000D03*
D40*
X152550000Y-101062500D03*
X152150000Y-101062500D03*
X151750000Y-101062500D03*
X151350000Y-101062500D03*
X150950000Y-101062500D03*
X150550000Y-101062500D03*
X150150000Y-101062500D03*
X149750000Y-101062500D03*
X149350000Y-101062500D03*
X148950000Y-101062500D03*
X148550000Y-101062500D03*
X148150000Y-101062500D03*
X147750000Y-101062500D03*
X147350000Y-101062500D03*
D41*
X146512500Y-101900000D03*
X146512500Y-102300000D03*
X146512500Y-102700000D03*
X146512500Y-103100000D03*
X146512500Y-103500000D03*
X146512500Y-103900000D03*
X146512500Y-104300000D03*
X146512500Y-104700000D03*
X146512500Y-105100000D03*
X146512500Y-105500000D03*
X146512500Y-105900000D03*
X146512500Y-106300000D03*
X146512500Y-106700000D03*
X146512500Y-107100000D03*
D40*
X147350000Y-107937500D03*
X147750000Y-107937500D03*
X148150000Y-107937500D03*
X148550000Y-107937500D03*
X148950000Y-107937500D03*
X149350000Y-107937500D03*
X149750000Y-107937500D03*
X150150000Y-107937500D03*
X150550000Y-107937500D03*
X150950000Y-107937500D03*
X151350000Y-107937500D03*
X151750000Y-107937500D03*
X152150000Y-107937500D03*
X152550000Y-107937500D03*
D41*
X153387500Y-107100000D03*
X153387500Y-106700000D03*
X153387500Y-106300000D03*
X153387500Y-105900000D03*
X153387500Y-105500000D03*
X153387500Y-105100000D03*
X153387500Y-104700000D03*
X153387500Y-104300000D03*
X153387500Y-103900000D03*
X153387500Y-103500000D03*
X153387500Y-103100000D03*
X153387500Y-102700000D03*
X153387500Y-102300000D03*
X153387500Y-101900000D03*
D42*
X149950000Y-104500000D03*
D43*
X167950000Y-110500000D03*
X170750000Y-110500000D03*
D44*
X152850000Y-108680000D03*
X152850000Y-109320000D03*
D26*
X149550000Y-111110000D03*
X149550000Y-110090000D03*
D45*
X154728000Y-99000000D03*
X157423000Y-100673000D03*
X157423000Y-99950000D03*
X154150000Y-99850000D03*
X161050000Y-108900000D03*
X157650000Y-110400000D03*
X165050000Y-105600000D03*
X161350000Y-110500000D03*
X167350000Y-109473000D03*
X150450000Y-111722000D03*
X156850000Y-107000000D03*
X166850000Y-100850000D03*
X153750000Y-107500000D03*
X153750000Y-109100000D03*
X169050000Y-106878000D03*
X173100000Y-106476800D03*
X145750000Y-105200000D03*
X154178000Y-104200000D03*
X147900000Y-104900000D03*
X152000000Y-104200000D03*
X148800000Y-110300000D03*
X145450000Y-106500000D03*
X173100000Y-103750000D03*
X173100000Y-105264814D03*
X129300000Y-103600000D03*
X129300000Y-105600000D03*
X173100000Y-102750000D03*
X148850000Y-105600000D03*
X162650000Y-99000000D03*
X148850000Y-104450000D03*
X161300000Y-112200000D03*
X160600000Y-95100000D03*
X169550000Y-97400000D03*
X149750000Y-112100000D03*
X165850000Y-97450000D03*
X153950000Y-110900000D03*
X156172000Y-109100000D03*
X126450000Y-103400000D03*
X163750000Y-107100000D03*
X151050000Y-103400000D03*
X127350000Y-96400000D03*
X160750000Y-102800000D03*
X128150000Y-108000000D03*
X163350000Y-97350000D03*
X135200000Y-95100000D03*
X149900000Y-103400000D03*
X142050000Y-96750000D03*
X142050000Y-112200000D03*
X149900000Y-105600000D03*
X170250000Y-100450000D03*
X141900000Y-99900000D03*
X133050000Y-111400000D03*
X151050000Y-104450000D03*
X144550000Y-101500000D03*
X147950000Y-109700000D03*
X170250000Y-103200000D03*
X148300000Y-110850000D03*
X160600000Y-113900000D03*
X144173000Y-105200000D03*
X157650000Y-111000000D03*
X166350000Y-107700000D03*
X135200000Y-97750000D03*
X149900000Y-104450000D03*
X158850000Y-96750000D03*
X141100000Y-104950000D03*
X152850000Y-109780000D03*
X173050000Y-96400000D03*
X129150000Y-106400000D03*
X152650000Y-99220000D03*
X137700000Y-97550000D03*
X140300000Y-113900000D03*
X127250000Y-112600000D03*
X132550000Y-108100000D03*
X135200000Y-113900000D03*
X151350000Y-106600000D03*
X156277000Y-101300000D03*
X160950000Y-111400000D03*
X161100000Y-97050000D03*
X159820000Y-100550000D03*
X157850000Y-109200000D03*
X147900000Y-95100000D03*
X155850000Y-103800000D03*
X148950000Y-99220000D03*
X139850000Y-97150000D03*
X160700000Y-105350000D03*
X151050000Y-105600000D03*
X126450000Y-105800000D03*
X156150000Y-107600000D03*
X131600000Y-104500000D03*
X150450000Y-95100000D03*
X166350000Y-107100000D03*
X137750000Y-95100000D03*
X148850000Y-103400000D03*
X144950000Y-107250000D03*
X154080000Y-98950000D03*
X163750000Y-107700000D03*
X144173000Y-104500000D03*
X147900000Y-113900000D03*
X156300000Y-100700000D03*
X137950000Y-111250000D03*
X159820000Y-99350000D03*
X155850000Y-104500000D03*
X156150000Y-106700000D03*
X148000000Y-98400000D03*
X166000000Y-100800000D03*
X137750000Y-113900000D03*
X140000000Y-111700000D03*
X165700000Y-95100000D03*
X163150000Y-95100000D03*
X140300000Y-95100000D03*
X150550000Y-108800000D03*
X168250000Y-100660000D03*
X149750000Y-109400000D03*
X169070000Y-106100000D03*
X169885000Y-102285000D03*
X164175000Y-102575000D03*
D46*
X158250000Y-99950000D02*
X159180000Y-99950000D01*
D47*
X163550500Y-105590500D02*
X164050000Y-106090000D01*
X148950000Y-101062500D02*
X148950000Y-100320000D01*
X154000200Y-104927400D02*
X154000200Y-104700000D01*
X154530000Y-104700000D02*
X154730000Y-104500000D01*
X147098800Y-104700000D02*
X146512500Y-104700000D01*
X153387500Y-105100000D02*
X152801200Y-105100000D01*
D46*
X157005000Y-110400000D02*
X157650000Y-110400000D01*
D47*
X154000200Y-104700000D02*
X154530000Y-104700000D01*
X164050000Y-106090000D02*
X164050000Y-106125000D01*
X161659600Y-105590500D02*
X163550500Y-105590500D01*
X153387500Y-104700000D02*
X154000200Y-104700000D01*
X148950000Y-101062500D02*
X148950000Y-101648800D01*
X145270000Y-104500000D02*
X145470000Y-104700000D01*
X161659600Y-105590500D02*
X161250000Y-106000100D01*
X145470000Y-104700000D02*
X146512500Y-104700000D01*
D48*
X158250000Y-99950000D02*
X157423000Y-99950000D01*
X155340000Y-99000000D02*
X154728000Y-99000000D01*
D47*
X153387500Y-104700000D02*
X152801200Y-104700000D01*
X153387500Y-106700000D02*
X152801200Y-106700000D01*
X153827600Y-105100000D02*
X154000200Y-104927400D01*
X148950000Y-107351200D02*
X148950000Y-107937500D01*
X161250000Y-106000100D02*
X161250000Y-107300000D01*
X148776274Y-108873726D02*
X148950000Y-108700000D01*
D49*
X157423000Y-99950000D02*
X157423000Y-100673000D01*
D47*
X153387500Y-105100000D02*
X153827600Y-105100000D01*
X148950000Y-108700000D02*
X148950000Y-107937500D01*
D46*
X167225000Y-108675000D02*
X167550000Y-108350000D01*
X166050000Y-108675000D02*
X167225000Y-108675000D01*
X165050000Y-106125000D02*
X165050000Y-105600000D01*
D49*
X161350000Y-110500000D02*
X160560000Y-110500000D01*
D50*
X156850000Y-107000000D02*
X159750000Y-107000000D01*
D46*
X171320000Y-106900000D02*
X171430000Y-106790000D01*
X171430000Y-106790000D02*
X172677600Y-106790000D01*
X173699800Y-102275000D02*
X173950000Y-102514400D01*
X172677600Y-106790000D02*
X173177200Y-107289600D01*
X171320000Y-102100000D02*
X171495000Y-102275000D01*
D50*
X161600000Y-105150000D02*
X168835590Y-105150000D01*
D51*
X173950000Y-102514400D02*
X173950000Y-107289600D01*
D52*
X150450000Y-111722000D02*
X150450000Y-111110000D01*
D46*
X173177200Y-107289600D02*
X173950000Y-107289600D01*
D50*
X168835590Y-105150000D02*
X170585590Y-106900000D01*
X170585590Y-106900000D02*
X171320000Y-106900000D01*
D46*
X171495000Y-102275000D02*
X173699800Y-102275000D01*
D50*
X159750000Y-107000000D02*
X161600000Y-105150000D01*
D46*
X165550000Y-109925000D02*
X165550000Y-108675000D01*
X166125000Y-110500000D02*
X165550000Y-109925000D01*
X163975000Y-110500000D02*
X164550000Y-109925000D01*
X164550000Y-109925000D02*
X164550000Y-108675000D01*
D52*
X167500000Y-100200000D02*
X166850000Y-100850000D01*
X166850000Y-100850000D02*
X166850000Y-101352000D01*
X168938400Y-100200000D02*
X170250900Y-98887500D01*
X166850000Y-101352000D02*
X167808000Y-102310000D01*
X167500000Y-100200000D02*
X168938400Y-100200000D01*
X171150000Y-98887500D02*
X170250900Y-98887500D01*
X167808000Y-102310000D02*
X168250000Y-102310000D01*
D47*
X153750000Y-107462500D02*
X153387500Y-107100000D01*
X153750000Y-107500000D02*
X153750000Y-107462500D01*
D46*
X154570000Y-109100000D02*
X154570000Y-109970000D01*
X154570000Y-109970000D02*
X154540000Y-110000000D01*
D48*
X154570000Y-109100000D02*
X153750000Y-109100000D01*
D52*
X144250000Y-102190000D02*
X145960000Y-103900000D01*
X141690000Y-102190000D02*
X140600000Y-101100000D01*
X145960000Y-103900000D02*
X146512500Y-103900000D01*
X144250000Y-102190000D02*
X141690000Y-102190000D01*
X140600000Y-101100000D02*
X140600000Y-99920000D01*
X140600000Y-99920000D02*
X140580000Y-99900000D01*
D50*
X155450000Y-99950000D02*
X154750000Y-99950000D01*
X154750000Y-99950000D02*
X153850000Y-100850000D01*
D52*
X155450000Y-99950000D02*
X155750000Y-99950000D01*
D50*
X153850000Y-100850000D02*
X153850000Y-101437500D01*
D52*
X156360000Y-99340000D02*
X156360000Y-99000000D01*
X155750000Y-99950000D02*
X156360000Y-99340000D01*
D50*
X153850000Y-101437500D02*
X153387500Y-101900000D01*
D52*
X156360000Y-99000000D02*
X157340000Y-99000000D01*
D50*
X154250000Y-101840600D02*
X153790600Y-102300000D01*
X154250000Y-101840600D02*
X154250000Y-100918400D01*
X154250000Y-100918400D02*
X154718400Y-100450000D01*
X154718400Y-100450000D02*
X155450000Y-100450000D01*
X153790600Y-102300000D02*
X153387500Y-102300000D01*
X154650000Y-101852000D02*
X153802000Y-102700000D01*
X154650000Y-101170000D02*
X154870000Y-100950000D01*
X153802000Y-102700000D02*
X153387500Y-102700000D01*
X154870000Y-100950000D02*
X155450000Y-100950000D01*
X154650000Y-101852000D02*
X154650000Y-101170000D01*
X168390700Y-105700000D02*
X166475000Y-105700000D01*
D52*
X169050000Y-107490000D02*
X169050000Y-106878000D01*
D50*
X168550000Y-105859300D02*
X168550000Y-106378000D01*
X166475000Y-105700000D02*
X166050000Y-106125000D01*
X168390700Y-105700000D02*
X168550000Y-105859300D01*
X168550000Y-106378000D02*
X169050000Y-106878000D01*
D46*
X171949000Y-105750000D02*
X172625000Y-106426000D01*
X171320000Y-105750000D02*
X171949000Y-105750000D01*
X173049200Y-106426000D02*
X173100000Y-106476800D01*
X172625000Y-106426000D02*
X173049200Y-106426000D01*
X158295000Y-110900000D02*
X158695600Y-110900000D01*
X159095600Y-110500000D02*
X159540000Y-110500000D01*
X158295000Y-110900000D02*
X158295000Y-110894200D01*
X158695600Y-110900000D02*
X159095600Y-110500000D01*
D47*
X154178000Y-104200000D02*
X154078000Y-104300000D01*
X153387500Y-106300000D02*
X152801200Y-106300000D01*
X153387500Y-106300000D02*
X154170000Y-106300000D01*
X145850000Y-105100000D02*
X146512500Y-105100000D01*
X154578000Y-103800000D02*
X154178000Y-104200000D01*
D46*
X145270000Y-105200000D02*
X145750000Y-105200000D01*
D47*
X145750000Y-105200000D02*
X145850000Y-105100000D01*
X154170000Y-106300000D02*
X154570000Y-106700000D01*
X154730000Y-103800000D02*
X154578000Y-103800000D01*
X154078000Y-104300000D02*
X153387500Y-104300000D01*
D50*
X157850000Y-101850000D02*
X158250000Y-101450000D01*
X155052000Y-101850000D02*
X157850000Y-101850000D01*
X153802000Y-103100000D02*
X153387500Y-103100000D01*
X155052000Y-101850000D02*
X153802000Y-103100000D01*
X158700000Y-100950000D02*
X158250000Y-100950000D01*
X153802000Y-103500000D02*
X153387500Y-103500000D01*
X158990700Y-101240700D02*
X158700000Y-100950000D01*
X158990700Y-101240700D02*
X158990700Y-101759300D01*
X158600000Y-102150000D02*
X158990700Y-101759300D01*
X155152000Y-102150000D02*
X153802000Y-103500000D01*
X155152000Y-102150000D02*
X158600000Y-102150000D01*
D52*
X142200000Y-104480000D02*
X142220000Y-104500000D01*
X142200000Y-103300000D02*
X142200000Y-104480000D01*
X142816300Y-103300000D02*
X143346300Y-103835000D01*
X142816300Y-103300000D02*
X142200000Y-103300000D01*
D50*
X155252000Y-102450000D02*
X153802000Y-103900000D01*
X155252000Y-102450000D02*
X158625270Y-102450000D01*
X158625270Y-102450000D02*
X159350000Y-101725270D01*
X153802000Y-103900000D02*
X153387500Y-103900000D01*
X159350000Y-101082400D02*
X158717600Y-100450000D01*
X158717600Y-100450000D02*
X158250000Y-100450000D01*
X159350000Y-101725270D02*
X159350000Y-101082400D01*
D52*
X166450000Y-98450000D02*
X167668800Y-97231200D01*
X152150000Y-98700000D02*
X152400000Y-98450000D01*
X152400000Y-98450000D02*
X166450000Y-98450000D01*
X168732200Y-97231200D02*
X169545000Y-98044000D01*
X172146000Y-98044000D02*
X174580000Y-95610000D01*
X167668800Y-97231200D02*
X168732200Y-97231200D01*
X152150000Y-101062500D02*
X152150000Y-98700000D01*
X169545000Y-98044000D02*
X172146000Y-98044000D01*
X167650000Y-96700000D02*
X170457200Y-96700000D01*
X170457200Y-96700000D02*
X171547200Y-95610000D01*
X152310000Y-98150000D02*
X166200000Y-98150000D01*
X151750000Y-98710000D02*
X151750000Y-101062500D01*
X152310000Y-98150000D02*
X151750000Y-98710000D01*
X171547200Y-95610000D02*
X172040000Y-95610000D01*
X166200000Y-98150000D02*
X167650000Y-96700000D01*
X152220000Y-97850000D02*
X164720000Y-97850000D01*
X152220000Y-97850000D02*
X151350000Y-98720000D01*
X164720000Y-97850000D02*
X166960000Y-95610000D01*
X151350000Y-98720000D02*
X151350000Y-101062500D01*
X150950000Y-98681200D02*
X150950000Y-101062500D01*
X162480000Y-97550000D02*
X152081200Y-97550000D01*
X162480000Y-97550000D02*
X164420000Y-95610000D01*
X152081200Y-97550000D02*
X150950000Y-98681200D01*
X152025600Y-97250000D02*
X150550000Y-98725600D01*
X150550000Y-98725600D02*
X150550000Y-101062500D01*
X160240000Y-97250000D02*
X161880000Y-95610000D01*
X160240000Y-97250000D02*
X152025600Y-97250000D01*
X150150000Y-98719200D02*
X150150000Y-101062500D01*
X151919200Y-96950000D02*
X150150000Y-98719200D01*
X159340000Y-95610000D02*
X158000000Y-96950000D01*
X158000000Y-96950000D02*
X151919200Y-96950000D01*
X153220000Y-96650000D02*
X154260000Y-95610000D01*
X151849200Y-96650000D02*
X149750000Y-98749200D01*
X151849200Y-96650000D02*
X153220000Y-96650000D01*
X149750000Y-98749200D02*
X149750000Y-101062500D01*
X149350000Y-101062500D02*
X149350000Y-100700000D01*
X149450000Y-97880000D02*
X151720000Y-95610000D01*
X149450000Y-97880000D02*
X149450000Y-100600000D01*
X149450000Y-100600000D02*
X149350000Y-100700000D01*
X148452000Y-100600000D02*
X148550000Y-100700000D01*
X149180000Y-96612000D02*
X148452000Y-97340000D01*
X148452000Y-97340000D02*
X148452000Y-100600000D01*
X148550000Y-101062500D02*
X148550000Y-100700000D01*
X149180000Y-96612000D02*
X149180000Y-95610000D01*
X146640000Y-98090000D02*
X146640000Y-95610000D01*
X146640000Y-98090000D02*
X148150000Y-99600000D01*
X148150000Y-99600000D02*
X148150000Y-101062500D01*
X142850000Y-96900000D02*
X141560000Y-95610000D01*
X144800000Y-96900000D02*
X147750000Y-99850000D01*
X142850000Y-96900000D02*
X144800000Y-96900000D01*
X147750000Y-99850000D02*
X147750000Y-101062500D01*
X144500000Y-97250000D02*
X147350000Y-100100000D01*
X140660000Y-97250000D02*
X144500000Y-97250000D01*
X140660000Y-97250000D02*
X139020000Y-95610000D01*
X147350000Y-100100000D02*
X147350000Y-101062500D01*
X138520000Y-97650000D02*
X136480000Y-95610000D01*
X146350000Y-101900000D02*
X146512500Y-101900000D01*
X146100000Y-99450000D02*
X146100000Y-101650000D01*
X138520000Y-97650000D02*
X144300000Y-97650000D01*
X144300000Y-97650000D02*
X146100000Y-99450000D01*
X146100000Y-101650000D02*
X146350000Y-101900000D01*
X145750000Y-101952000D02*
X146100000Y-102300000D01*
X136380000Y-98050000D02*
X133940000Y-95610000D01*
X144000000Y-98050000D02*
X145750000Y-99800000D01*
X146100000Y-102300000D02*
X146512500Y-102300000D01*
X144000000Y-98050000D02*
X136380000Y-98050000D01*
X145750000Y-101952000D02*
X145750000Y-99800000D01*
X146050000Y-102700000D02*
X145400000Y-102050000D01*
X145400000Y-102050000D02*
X145400000Y-100050000D01*
X145400000Y-100050000D02*
X143850000Y-98500000D01*
X143850000Y-98500000D02*
X130986600Y-98500000D01*
X146512500Y-102700000D02*
X146050000Y-102700000D01*
X128860000Y-96373400D02*
X128860000Y-95610000D01*
X130986600Y-98500000D02*
X128860000Y-96373400D01*
X143550000Y-98900000D02*
X145050000Y-100400000D01*
X130612000Y-98900000D02*
X143550000Y-98900000D01*
X145950000Y-103100000D02*
X146512500Y-103100000D01*
X145050000Y-102200000D02*
X145950000Y-103100000D01*
X127322000Y-95610000D02*
X130612000Y-98900000D01*
X127322000Y-95610000D02*
X126320000Y-95610000D01*
X145050000Y-102200000D02*
X145050000Y-100400000D01*
X134050000Y-111900000D02*
X128587200Y-111900000D01*
X145600000Y-107198000D02*
X145600000Y-108750000D01*
X127097200Y-113390000D02*
X126320000Y-113390000D01*
X128587200Y-111900000D02*
X127097200Y-113390000D01*
X146098000Y-106700000D02*
X145600000Y-107198000D01*
X144401500Y-109948500D02*
X136001500Y-109948500D01*
X146512500Y-106700000D02*
X146098000Y-106700000D01*
X145600000Y-108750000D02*
X144401500Y-109948500D01*
X136001500Y-109948500D02*
X134050000Y-111900000D01*
X146050000Y-107391200D02*
X146341200Y-107100000D01*
X134382800Y-112217200D02*
X136251500Y-110348500D01*
X146050000Y-108900000D02*
X146050000Y-107391200D01*
X128860000Y-113390000D02*
X130032800Y-112217200D01*
X130032800Y-112217200D02*
X134382800Y-112217200D01*
X136251500Y-110348500D02*
X144601500Y-110348500D01*
X146341200Y-107100000D02*
X146512500Y-107100000D01*
X144601500Y-110348500D02*
X146050000Y-108900000D01*
X144877100Y-110748500D02*
X147350000Y-108275600D01*
X133940000Y-113390000D02*
X136581500Y-110748500D01*
X147350000Y-108275600D02*
X147350000Y-107937500D01*
X136581500Y-110748500D02*
X144877100Y-110748500D01*
X138648500Y-111221500D02*
X136480000Y-113390000D01*
X144823084Y-111221500D02*
X147750000Y-108294584D01*
X147750000Y-108294584D02*
X147750000Y-107937500D01*
X138648500Y-111221500D02*
X144823084Y-111221500D01*
X144744584Y-111700000D02*
X148150000Y-108294584D01*
X140710000Y-111700000D02*
X139020000Y-113390000D01*
X140710000Y-111700000D02*
X144744584Y-111700000D01*
X148150000Y-108294584D02*
X148150000Y-107937500D01*
X142750000Y-112200000D02*
X141560000Y-113390000D01*
X144725400Y-112200000D02*
X148550000Y-108375400D01*
X142750000Y-112200000D02*
X144725400Y-112200000D01*
X148550000Y-108375400D02*
X148550000Y-107937500D01*
X149350000Y-109000000D02*
X149350000Y-107937500D01*
X149350000Y-109000000D02*
X146640000Y-111710000D01*
X146640000Y-111710000D02*
X146640000Y-113390000D01*
D50*
X148800000Y-113010000D02*
X149180000Y-113390000D01*
X148800000Y-110300000D02*
X148800000Y-113010000D01*
D52*
X145450000Y-106500000D02*
X145772800Y-106500000D01*
X145972800Y-106300000D02*
X146512500Y-106300000D01*
X145772800Y-106500000D02*
X145972800Y-106300000D01*
X151720000Y-111570000D02*
X151720000Y-113390000D01*
X151150000Y-108600000D02*
X151150000Y-111000000D01*
X151150000Y-108600000D02*
X150950000Y-108400000D01*
X151150000Y-111000000D02*
X151720000Y-111570000D01*
X150950000Y-108400000D02*
X150950000Y-107937500D01*
X151350000Y-108352000D02*
X151350000Y-107937500D01*
X151500000Y-108502000D02*
X151350000Y-108352000D01*
X151500000Y-108502000D02*
X151500000Y-110630000D01*
X151500000Y-110630000D02*
X154260000Y-113390000D01*
X151850000Y-110400000D02*
X153450000Y-112000000D01*
X151750000Y-107937500D02*
X151750000Y-108352000D01*
X151750000Y-108352000D02*
X151850000Y-108452000D01*
X151850000Y-108452000D02*
X151850000Y-110400000D01*
X157950000Y-112000000D02*
X159340000Y-113390000D01*
X153450000Y-112000000D02*
X157950000Y-112000000D01*
D48*
X158725000Y-109800000D02*
X158725000Y-108900000D01*
X156072000Y-110000000D02*
X155560000Y-110000000D01*
X158725000Y-109800000D02*
X161450000Y-109800000D01*
X161880000Y-110230000D02*
X161880000Y-113390000D01*
X156272000Y-109800000D02*
X156072000Y-110000000D01*
X156272000Y-109800000D02*
X158725000Y-109800000D01*
X161450000Y-109800000D02*
X161880000Y-110230000D01*
D46*
X170606618Y-104750000D02*
X170332400Y-104475782D01*
X170450400Y-103750000D02*
X171320000Y-103750000D01*
X155370000Y-105200000D02*
X155607200Y-105200000D01*
X170332400Y-103868000D02*
X170450400Y-103750000D01*
X170332400Y-104475782D02*
X170332400Y-103868000D01*
X173100000Y-103750000D02*
X171320000Y-103750000D01*
X171320000Y-104750000D02*
X170606618Y-104750000D01*
X172304797Y-104975335D02*
X172030132Y-105250000D01*
X172030132Y-105250000D02*
X171320000Y-105250000D01*
X170477200Y-105250000D02*
X170434000Y-105206800D01*
X171986311Y-104250000D02*
X172304797Y-104568486D01*
X173100000Y-105250000D02*
X172030132Y-105250000D01*
X171320000Y-104250000D02*
X171986311Y-104250000D01*
X171320000Y-105250000D02*
X170477200Y-105250000D01*
X173065000Y-105264814D02*
X173050186Y-105250000D01*
X172304797Y-104568486D02*
X172304797Y-104975335D01*
D52*
X131490800Y-103500000D02*
X130300000Y-103500000D01*
X133615800Y-105625000D02*
X131490800Y-103500000D01*
X145926041Y-105625000D02*
X133615800Y-105625000D01*
D46*
X129300000Y-103600000D02*
X130200000Y-103600000D01*
D52*
X146512500Y-105500000D02*
X146051041Y-105500000D01*
D46*
X130200000Y-103600000D02*
X130300000Y-103500000D01*
D52*
X146051041Y-105500000D02*
X145926041Y-105625000D01*
X132728800Y-105500000D02*
X130300000Y-105500000D01*
D46*
X130200000Y-105600000D02*
X130300000Y-105500000D01*
D52*
X133128800Y-105900000D02*
X132728800Y-105500000D01*
D46*
X129300000Y-105600000D02*
X130200000Y-105600000D01*
D52*
X146512500Y-105900000D02*
X133128800Y-105900000D01*
X155560000Y-111589600D02*
X155560000Y-110900000D01*
X159505000Y-111425000D02*
X159530000Y-111400000D01*
X153650000Y-111600000D02*
X155549600Y-111600000D01*
X152150000Y-107937500D02*
X152150000Y-110100000D01*
X155549600Y-111600000D02*
X156674800Y-111600000D01*
X152150000Y-110100000D02*
X153650000Y-111600000D01*
X156874800Y-111400000D02*
X157005000Y-111400000D01*
X157030000Y-111425000D02*
X159505000Y-111425000D01*
X156674800Y-111600000D02*
X156874800Y-111400000D01*
X157005000Y-111400000D02*
X157030000Y-111425000D01*
D46*
X171320000Y-102750000D02*
X173100000Y-102750000D01*
D52*
X144800000Y-101750000D02*
X144550000Y-101500000D01*
D46*
X169970800Y-102920800D02*
X166522400Y-102920800D01*
X164550000Y-106125000D02*
X164550000Y-106900000D01*
X155850000Y-104500000D02*
X155370000Y-104500000D01*
X165050000Y-108675000D02*
X165050000Y-107400000D01*
D52*
X145996446Y-103500000D02*
X144800000Y-102303554D01*
D46*
X153950000Y-110900000D02*
X154540000Y-110900000D01*
D48*
X156277000Y-101300000D02*
X156127000Y-101450000D01*
D52*
X144800000Y-102303554D02*
X144800000Y-101750000D01*
X146512500Y-103500000D02*
X145996446Y-103500000D01*
D46*
X166025000Y-102423400D02*
X166025000Y-102075000D01*
X164550000Y-106900000D02*
X165050000Y-107400000D01*
X160950000Y-111400000D02*
X160170000Y-111400000D01*
X152850000Y-109320000D02*
X152850000Y-109780000D01*
X170250000Y-103200000D02*
X169970800Y-102920800D01*
D48*
X156127000Y-101450000D02*
X155450000Y-101450000D01*
D46*
X166522400Y-102920800D02*
X166025000Y-102423400D01*
X155370000Y-103800000D02*
X155850000Y-103800000D01*
D52*
X150150000Y-107938675D02*
X150150000Y-108598959D01*
X150150000Y-108598959D02*
X150114000Y-108634959D01*
X150450000Y-109400000D02*
X150450000Y-110090000D01*
X150450000Y-110090000D02*
X149550000Y-110090000D01*
X150114000Y-108634959D02*
X150114000Y-109064000D01*
X150114000Y-109064000D02*
X150450000Y-109400000D01*
X150151175Y-107938675D02*
X150150000Y-107937500D01*
X168250000Y-101290000D02*
X168250000Y-100660000D01*
X150550000Y-108800000D02*
X150550000Y-107937500D01*
D50*
X169074640Y-105955640D02*
X169070000Y-105960280D01*
D52*
X169275000Y-102285000D02*
X169250000Y-102310000D01*
D50*
X165550000Y-105697898D02*
X165828481Y-105419417D01*
D52*
X149750000Y-109400000D02*
X149750000Y-107937500D01*
D50*
X165828481Y-105419417D02*
X168483692Y-105419417D01*
X168483692Y-105419417D02*
X169070000Y-106100000D01*
X165550000Y-106125000D02*
X165550000Y-105697898D01*
D52*
X169885000Y-102285000D02*
X169275000Y-102285000D01*
D47*
X154037200Y-105500000D02*
X153387500Y-105500000D01*
X154730000Y-105200000D02*
X154337200Y-105200000D01*
X154337200Y-105200000D02*
X154037200Y-105500000D01*
D52*
X144250000Y-103210000D02*
X143720000Y-103210000D01*
X143720000Y-103210000D02*
X143350000Y-102840000D01*
X145832000Y-104300000D02*
X144742000Y-103210000D01*
X144742000Y-103210000D02*
X144250000Y-103210000D01*
X145832000Y-104300000D02*
X146512500Y-104300000D01*
D47*
X154730000Y-105900000D02*
X153387500Y-105900000D01*
D50*
X164175000Y-100000000D02*
X164175000Y-102575000D01*
D52*
X158797000Y-99000000D02*
X158360000Y-99000000D01*
D47*
X161875000Y-99925000D02*
X164250000Y-99925000D01*
D50*
X164250000Y-99925000D02*
X164175000Y-100000000D01*
D52*
X158947000Y-98850000D02*
X160600000Y-98850000D01*
X158947000Y-98850000D02*
X158797000Y-99000000D01*
X160600000Y-98850000D02*
X161675000Y-99925000D01*
D47*
X166025000Y-99925000D02*
X164250000Y-99925000D01*
D52*
X161675000Y-99925000D02*
X161875000Y-99925000D01*
G04 #@! TA.AperFunction,Conductor*
G36*
X169613393Y-104186085D02*
G01*
X169629387Y-104198305D01*
X169865934Y-104411575D01*
X169902542Y-104471084D01*
X169906900Y-104503669D01*
X169906900Y-104531800D01*
X169935897Y-104640019D01*
X169991915Y-104737045D01*
X170266133Y-105011263D01*
X170345355Y-105090485D01*
X170442381Y-105146503D01*
X170530741Y-105170179D01*
X170590401Y-105206543D01*
X170620930Y-105269390D01*
X170612635Y-105338765D01*
X170586328Y-105377634D01*
X170583081Y-105380881D01*
X170521758Y-105414366D01*
X170495400Y-105417200D01*
X170291646Y-105417200D01*
X170224607Y-105397515D01*
X170208613Y-105385295D01*
X169744000Y-104966400D01*
X169220247Y-104966400D01*
X169153208Y-104946715D01*
X169132566Y-104930081D01*
X169060014Y-104857529D01*
X169060012Y-104857527D01*
X169018340Y-104833467D01*
X168976669Y-104809408D01*
X168921963Y-104794750D01*
X168883709Y-104784500D01*
X161648119Y-104784500D01*
X161551881Y-104784500D01*
X161458920Y-104809408D01*
X161375578Y-104857527D01*
X161303023Y-104930082D01*
X161241699Y-104963566D01*
X161215342Y-104966400D01*
X161146470Y-104966400D01*
X161079431Y-104946715D01*
X161070990Y-104940781D01*
X160977625Y-104869139D01*
X160977624Y-104869138D01*
X160977622Y-104869137D01*
X160843712Y-104813671D01*
X160843710Y-104813670D01*
X160843709Y-104813670D01*
X160771854Y-104804210D01*
X160700001Y-104794750D01*
X160699999Y-104794750D01*
X160556291Y-104813670D01*
X160556287Y-104813671D01*
X160422377Y-104869137D01*
X160408846Y-104879520D01*
X160329015Y-104940776D01*
X160263847Y-104965970D01*
X160253530Y-104966400D01*
X157943999Y-104966400D01*
X156730319Y-106180081D01*
X156668996Y-106213566D01*
X156642638Y-106216400D01*
X156445676Y-106216400D01*
X156398224Y-106206961D01*
X156293712Y-106163671D01*
X156293710Y-106163670D01*
X156293709Y-106163670D01*
X156221854Y-106154210D01*
X156150001Y-106144750D01*
X156149999Y-106144750D01*
X156006286Y-106163670D01*
X155998436Y-106165774D01*
X155997587Y-106162605D01*
X155943326Y-106168427D01*
X155891738Y-106146171D01*
X155878157Y-106136148D01*
X155878156Y-106136147D01*
X155752826Y-106092291D01*
X155752814Y-106092289D01*
X155723070Y-106089500D01*
X155723066Y-106089500D01*
X155668462Y-106089500D01*
X155601423Y-106069815D01*
X155580781Y-106053181D01*
X155531681Y-106004081D01*
X155498196Y-105942758D01*
X155503180Y-105873066D01*
X155531681Y-105828719D01*
X155544000Y-105816400D01*
X155594000Y-105766400D01*
X155594000Y-105766397D01*
X155603439Y-105743612D01*
X155607272Y-105745199D01*
X155613685Y-105723361D01*
X155666489Y-105677606D01*
X155718000Y-105666400D01*
X156144000Y-105666400D01*
X157607681Y-104202719D01*
X157669004Y-104169234D01*
X157695362Y-104166400D01*
X169546354Y-104166400D01*
X169613393Y-104186085D01*
G37*
G04 #@! TD.AperFunction*
G04 #@! TA.AperFunction,Conductor*
G36*
X152192848Y-102221903D02*
G01*
X152238603Y-102274707D01*
X152249809Y-102326218D01*
X152249809Y-105802218D01*
X152625500Y-105802218D01*
X152692539Y-105821903D01*
X152738294Y-105874707D01*
X152749500Y-105926218D01*
X152749500Y-105974678D01*
X152764032Y-106047735D01*
X152764033Y-106047739D01*
X152826185Y-106140757D01*
X152823310Y-106142677D01*
X152846975Y-106186016D01*
X152849809Y-106212374D01*
X152849809Y-106278218D01*
X152830124Y-106345257D01*
X152777320Y-106391012D01*
X152725809Y-106402218D01*
X151873809Y-106402218D01*
X151806770Y-106382533D01*
X151761015Y-106329729D01*
X151749809Y-106278218D01*
X151749809Y-106132853D01*
X151750407Y-106120692D01*
X151750500Y-106119748D01*
X151750500Y-102880249D01*
X151750406Y-102879295D01*
X151749809Y-102867143D01*
X151749809Y-102702218D01*
X151595626Y-102702218D01*
X151571433Y-102699835D01*
X151569749Y-102699500D01*
X151569748Y-102699500D01*
X148330252Y-102699500D01*
X148330251Y-102699500D01*
X148328567Y-102699835D01*
X148304374Y-102702218D01*
X148149809Y-102702218D01*
X148149809Y-102871022D01*
X148149500Y-102877318D01*
X148149500Y-105028218D01*
X148129815Y-105095257D01*
X148077011Y-105141012D01*
X148025500Y-105152218D01*
X147773809Y-105152218D01*
X147706770Y-105132533D01*
X147661015Y-105079729D01*
X147649809Y-105028218D01*
X147649809Y-102326218D01*
X147669494Y-102259179D01*
X147722298Y-102213424D01*
X147773809Y-102202218D01*
X152125809Y-102202218D01*
X152192848Y-102221903D01*
G37*
G04 #@! TD.AperFunction*
G04 #@! TA.AperFunction,Conductor*
G36*
X168293039Y-108025985D02*
G01*
X168338794Y-108078789D01*
X168350000Y-108130300D01*
X168350000Y-108200000D01*
X168555189Y-108200000D01*
X168604436Y-108210199D01*
X168610607Y-108212869D01*
X168764791Y-108257664D01*
X168764794Y-108257664D01*
X168764796Y-108257665D01*
X168800819Y-108260500D01*
X169226000Y-108260499D01*
X169293039Y-108280183D01*
X169338794Y-108332987D01*
X169350000Y-108384499D01*
X169350000Y-110500000D01*
X169665248Y-110803572D01*
X169699883Y-110864253D01*
X169702594Y-110880290D01*
X169710001Y-110952797D01*
X169710001Y-110952799D01*
X169765185Y-111119331D01*
X169765186Y-111119334D01*
X169857288Y-111268656D01*
X169981344Y-111392712D01*
X170130666Y-111484814D01*
X170297203Y-111539999D01*
X170399991Y-111550500D01*
X170403133Y-111550821D01*
X170402948Y-111552626D01*
X170462281Y-111573017D01*
X170476586Y-111584861D01*
X172012013Y-113063420D01*
X172046647Y-113124099D01*
X172050000Y-113152738D01*
X172050000Y-114076000D01*
X172030315Y-114143039D01*
X171977511Y-114188794D01*
X171926000Y-114200000D01*
X170924500Y-114200000D01*
X170857461Y-114180315D01*
X170811706Y-114127511D01*
X170800500Y-114076000D01*
X170800499Y-112542129D01*
X170800498Y-112542123D01*
X170794091Y-112482516D01*
X170743797Y-112347671D01*
X170743793Y-112347664D01*
X170657547Y-112232455D01*
X170657544Y-112232452D01*
X170542335Y-112146206D01*
X170542328Y-112146202D01*
X170407482Y-112095908D01*
X170407483Y-112095908D01*
X170347883Y-112089501D01*
X170347881Y-112089500D01*
X170347873Y-112089500D01*
X170347864Y-112089500D01*
X168652129Y-112089500D01*
X168652123Y-112089501D01*
X168592516Y-112095908D01*
X168457671Y-112146202D01*
X168457664Y-112146206D01*
X168342455Y-112232452D01*
X168342452Y-112232455D01*
X168256206Y-112347664D01*
X168256202Y-112347671D01*
X168205908Y-112482516D01*
X168202137Y-112517596D01*
X168175398Y-112582146D01*
X168118006Y-112621994D01*
X168048180Y-112624487D01*
X167988092Y-112588834D01*
X167977273Y-112575462D01*
X167960045Y-112550858D01*
X167799141Y-112389954D01*
X167612734Y-112259432D01*
X167612732Y-112259431D01*
X167406497Y-112163261D01*
X167406488Y-112163258D01*
X167186697Y-112104366D01*
X167186687Y-112104364D01*
X167102454Y-112096995D01*
X167037386Y-112071542D01*
X166996407Y-112014951D01*
X166992529Y-111945189D01*
X167025578Y-111885789D01*
X167092712Y-111818656D01*
X167184814Y-111669334D01*
X167239999Y-111502797D01*
X167250500Y-111400009D01*
X167250499Y-109599992D01*
X167239999Y-109497203D01*
X167184814Y-109330666D01*
X167092712Y-109181344D01*
X166968656Y-109057288D01*
X166819334Y-108965186D01*
X166652797Y-108910001D01*
X166652795Y-108910000D01*
X166550016Y-108899500D01*
X166550009Y-108899500D01*
X166299500Y-108899500D01*
X166232461Y-108879815D01*
X166186706Y-108827011D01*
X166175500Y-108775500D01*
X166175500Y-108660764D01*
X166195185Y-108593725D01*
X166247989Y-108547970D01*
X166256167Y-108544582D01*
X166337845Y-108514118D01*
X166381178Y-108506300D01*
X166547800Y-108506300D01*
X166547816Y-108506299D01*
X166595793Y-108501140D01*
X166655252Y-108494748D01*
X166655256Y-108494746D01*
X166655258Y-108494746D01*
X166707753Y-108475165D01*
X166790060Y-108444467D01*
X166905242Y-108358242D01*
X167005242Y-108258242D01*
X167073054Y-108174094D01*
X167102143Y-108110398D01*
X167116579Y-108078789D01*
X167162333Y-108025985D01*
X167229373Y-108006300D01*
X168226000Y-108006300D01*
X168293039Y-108025985D01*
G37*
G04 #@! TD.AperFunction*
G04 #@! TA.AperFunction,Conductor*
G36*
X161307841Y-107109685D02*
G01*
X161328483Y-107126319D01*
X161405981Y-107203817D01*
X161439466Y-107265140D01*
X161442300Y-107291498D01*
X161442300Y-107400796D01*
X161442625Y-107414905D01*
X161442626Y-107414909D01*
X161468330Y-107524198D01*
X161511616Y-107587387D01*
X161526890Y-107609685D01*
X161531779Y-107616821D01*
X161631779Y-107716821D01*
X161641986Y-107726567D01*
X161737441Y-107785670D01*
X161847800Y-107806300D01*
X163019585Y-107806300D01*
X163086624Y-107825985D01*
X163132379Y-107878789D01*
X163140902Y-107908688D01*
X163141150Y-107908630D01*
X163142394Y-107913920D01*
X163142586Y-107914593D01*
X163142625Y-107914905D01*
X163142626Y-107914909D01*
X163168330Y-108024198D01*
X163209980Y-108084999D01*
X163228632Y-108112228D01*
X163231779Y-108116821D01*
X163331779Y-108216821D01*
X163341986Y-108226567D01*
X163437441Y-108285670D01*
X163547800Y-108306300D01*
X163760349Y-108306300D01*
X163810434Y-108316864D01*
X163880009Y-108347585D01*
X163905135Y-108350500D01*
X164000500Y-108350499D01*
X164067538Y-108370183D01*
X164113294Y-108422986D01*
X164124500Y-108474499D01*
X164124500Y-108706302D01*
X164104815Y-108773341D01*
X164088181Y-108793983D01*
X164028483Y-108853681D01*
X163967160Y-108887166D01*
X163940802Y-108890000D01*
X163592164Y-108890000D01*
X163355764Y-108990000D01*
X163119364Y-109090000D01*
X163119364Y-109344645D01*
X163110719Y-109390135D01*
X163060122Y-109518438D01*
X163056198Y-109551123D01*
X163049500Y-109606898D01*
X163049500Y-111393102D01*
X163055126Y-111439954D01*
X163060122Y-111481561D01*
X163110719Y-111609865D01*
X163119364Y-111655355D01*
X163119364Y-111690000D01*
X163138078Y-111695020D01*
X163197728Y-111731400D01*
X163204754Y-111739857D01*
X163207078Y-111742922D01*
X163207082Y-111742925D01*
X163327656Y-111834360D01*
X163327657Y-111834360D01*
X163327658Y-111834361D01*
X163468436Y-111889877D01*
X163556898Y-111900500D01*
X163556903Y-111900500D01*
X164393097Y-111900500D01*
X164393102Y-111900500D01*
X164481564Y-111889877D01*
X164622342Y-111834361D01*
X164647615Y-111815195D01*
X164712926Y-111790373D01*
X164722540Y-111790000D01*
X165377460Y-111790000D01*
X165444499Y-111809685D01*
X165452376Y-111815189D01*
X165477658Y-111834361D01*
X165618436Y-111889877D01*
X165706898Y-111900500D01*
X166366466Y-111900500D01*
X166433505Y-111920185D01*
X166479260Y-111972989D01*
X166490275Y-112017620D01*
X166491495Y-112039574D01*
X166491553Y-112041682D01*
X166491554Y-112041687D01*
X166492164Y-112053967D01*
X166492164Y-112316228D01*
X166472479Y-112383267D01*
X166433442Y-112421655D01*
X166293957Y-112508020D01*
X166143237Y-112645418D01*
X166020327Y-112808178D01*
X165929422Y-112990739D01*
X165929417Y-112990752D01*
X165873602Y-113186917D01*
X165854785Y-113389999D01*
X165854785Y-113390000D01*
X165873602Y-113593082D01*
X165929417Y-113789247D01*
X165929424Y-113789265D01*
X165989906Y-113910729D01*
X166002167Y-113979514D01*
X165975294Y-114044009D01*
X165917818Y-114083736D01*
X165878906Y-114090000D01*
X162961094Y-114090000D01*
X162894055Y-114070315D01*
X162848300Y-114017511D01*
X162838356Y-113948353D01*
X162850094Y-113910729D01*
X162910575Y-113789265D01*
X162910576Y-113789260D01*
X162910582Y-113789250D01*
X162966397Y-113593083D01*
X162985215Y-113390000D01*
X162966397Y-113186917D01*
X162910582Y-112990750D01*
X162819673Y-112808179D01*
X162696764Y-112645421D01*
X162696762Y-112645418D01*
X162546042Y-112508020D01*
X162546041Y-112508019D01*
X162389221Y-112410920D01*
X162342587Y-112358893D01*
X162330500Y-112305494D01*
X162330500Y-110170693D01*
X162330500Y-110170691D01*
X162299799Y-110056114D01*
X162299799Y-110056113D01*
X162299798Y-110056112D01*
X162296389Y-110043388D01*
X162292164Y-110011294D01*
X162292164Y-108690000D01*
X162092164Y-108690000D01*
X162092164Y-108938638D01*
X162072479Y-109005677D01*
X162055845Y-109026319D01*
X162028483Y-109053681D01*
X161967160Y-109087166D01*
X161940802Y-109090000D01*
X160166164Y-109090000D01*
X160099125Y-109070315D01*
X160053370Y-109017511D01*
X160042164Y-108966000D01*
X160042164Y-108614000D01*
X160061849Y-108546961D01*
X160114653Y-108501206D01*
X160166164Y-108490000D01*
X161892164Y-108490000D01*
X161892164Y-108290000D01*
X161143526Y-108290000D01*
X161076487Y-108270315D01*
X161055845Y-108253681D01*
X160892164Y-108090000D01*
X157792164Y-108090000D01*
X157792163Y-108090000D01*
X157428483Y-108453681D01*
X157367160Y-108487166D01*
X157340802Y-108490000D01*
X155734198Y-108490000D01*
X155725962Y-108489614D01*
X155725962Y-108489635D01*
X155723077Y-108489500D01*
X155723066Y-108489500D01*
X155336934Y-108489500D01*
X155336923Y-108489500D01*
X155334038Y-108489635D01*
X155334037Y-108489614D01*
X155325802Y-108490000D01*
X154774198Y-108490000D01*
X154765962Y-108489614D01*
X154765962Y-108489635D01*
X154763077Y-108489500D01*
X154763066Y-108489500D01*
X154376934Y-108489500D01*
X154376923Y-108489500D01*
X154374038Y-108489635D01*
X154374037Y-108489614D01*
X154365802Y-108490000D01*
X153492163Y-108490000D01*
X153278483Y-108703681D01*
X153217160Y-108737166D01*
X153190802Y-108740000D01*
X152649500Y-108740000D01*
X152582461Y-108720315D01*
X152536706Y-108667511D01*
X152525500Y-108616000D01*
X152525500Y-108485912D01*
X152538100Y-108431450D01*
X152540573Y-108426393D01*
X152550500Y-108358260D01*
X152550500Y-107516740D01*
X152549713Y-107511339D01*
X152559525Y-107442164D01*
X152594178Y-107402019D01*
X152755422Y-107402019D01*
X152760098Y-107405780D01*
X152793514Y-107439196D01*
X152793515Y-107439196D01*
X152793517Y-107439198D01*
X152898607Y-107490573D01*
X152966740Y-107500500D01*
X152966746Y-107500500D01*
X152968078Y-107500694D01*
X153031579Y-107529839D01*
X153037882Y-107535718D01*
X153092164Y-107590000D01*
X153108569Y-107590000D01*
X153175608Y-107609685D01*
X153221363Y-107662489D01*
X153223130Y-107666548D01*
X153269137Y-107777622D01*
X153269138Y-107777624D01*
X153269139Y-107777625D01*
X153357379Y-107892621D01*
X153472375Y-107980861D01*
X153472376Y-107980861D01*
X153472377Y-107980862D01*
X153517013Y-107999350D01*
X153606291Y-108036330D01*
X153733280Y-108053048D01*
X153749999Y-108055250D01*
X153750000Y-108055250D01*
X153750001Y-108055250D01*
X153764977Y-108053278D01*
X153893709Y-108036330D01*
X154027625Y-107980861D01*
X154142621Y-107892621D01*
X154230861Y-107777625D01*
X154276870Y-107666548D01*
X154307751Y-107628225D01*
X154305845Y-107626319D01*
X154342164Y-107590000D01*
X154342164Y-107434500D01*
X154361849Y-107367461D01*
X154414653Y-107321706D01*
X154466164Y-107310500D01*
X154763070Y-107310500D01*
X154800331Y-107307006D01*
X154800478Y-107308575D01*
X154861390Y-107312875D01*
X154917362Y-107354694D01*
X154941840Y-107420136D01*
X154942164Y-107429097D01*
X154942164Y-107940000D01*
X154957451Y-107955287D01*
X154972428Y-107959685D01*
X155005157Y-107990364D01*
X155075001Y-108084999D01*
X155181843Y-108163852D01*
X155220003Y-108177204D01*
X155307173Y-108207708D01*
X155307177Y-108207708D01*
X155307181Y-108207710D01*
X155322057Y-108209105D01*
X155336930Y-108210500D01*
X155336934Y-108210500D01*
X155723070Y-108210500D01*
X155736289Y-108209260D01*
X155752819Y-108207710D01*
X155752823Y-108207708D01*
X155752826Y-108207708D01*
X155828568Y-108181204D01*
X155878157Y-108163852D01*
X155891737Y-108153829D01*
X155957363Y-108129856D01*
X155997814Y-108136561D01*
X155998440Y-108134226D01*
X156006284Y-108136327D01*
X156006291Y-108136330D01*
X156133280Y-108153048D01*
X156149999Y-108155250D01*
X156150000Y-108155250D01*
X156150001Y-108155250D01*
X156164977Y-108153278D01*
X156293709Y-108136330D01*
X156427625Y-108080861D01*
X156542621Y-107992621D01*
X156630861Y-107877625D01*
X156686330Y-107743709D01*
X156688093Y-107730310D01*
X156716356Y-107666415D01*
X156723329Y-107658834D01*
X156793652Y-107588511D01*
X156854971Y-107555029D01*
X156865138Y-107553256D01*
X156993709Y-107536330D01*
X157127625Y-107480861D01*
X157242621Y-107392621D01*
X157242622Y-107392619D01*
X157244571Y-107391124D01*
X157309740Y-107365930D01*
X157320058Y-107365500D01*
X159798117Y-107365500D01*
X159798119Y-107365500D01*
X159891078Y-107340592D01*
X159974422Y-107292473D01*
X160140576Y-107126319D01*
X160201899Y-107092834D01*
X160228257Y-107090000D01*
X161240802Y-107090000D01*
X161307841Y-107109685D01*
G37*
G04 #@! TD.AperFunction*
G04 #@! TA.AperFunction,Conductor*
G36*
X160558950Y-103213423D02*
G01*
X160685225Y-103250499D01*
X160685227Y-103250500D01*
X160685228Y-103250500D01*
X160814773Y-103250500D01*
X160814773Y-103250499D01*
X160863366Y-103236231D01*
X160941050Y-103213423D01*
X160975984Y-103208400D01*
X166336310Y-103208400D01*
X166388658Y-103222426D01*
X166389247Y-103221006D01*
X166396757Y-103224116D01*
X166396758Y-103224116D01*
X166396761Y-103224118D01*
X166479547Y-103246300D01*
X166565253Y-103246300D01*
X169562705Y-103246300D01*
X169597669Y-103251331D01*
X169751860Y-103296650D01*
X169810628Y-103334440D01*
X169829688Y-103364105D01*
X169847184Y-103402415D01*
X169867118Y-103446063D01*
X169951951Y-103543967D01*
X170060931Y-103614004D01*
X170184867Y-103650394D01*
X170185225Y-103650499D01*
X170185227Y-103650500D01*
X170185228Y-103650500D01*
X170314773Y-103650500D01*
X170314773Y-103650499D01*
X170369081Y-103634553D01*
X170439064Y-103614006D01*
X170439065Y-103614005D01*
X170439069Y-103614004D01*
X170515839Y-103564666D01*
X170582877Y-103544983D01*
X170600541Y-103546248D01*
X170601597Y-103546400D01*
X170601600Y-103546400D01*
X170617847Y-103546400D01*
X170684886Y-103566085D01*
X170686720Y-103567286D01*
X170712505Y-103584515D01*
X170712507Y-103584515D01*
X170712509Y-103584516D01*
X170739533Y-103589891D01*
X170792867Y-103600500D01*
X171769600Y-103600499D01*
X171836639Y-103620183D01*
X171882394Y-103672987D01*
X171893600Y-103724499D01*
X171893600Y-103771600D01*
X171873915Y-103838639D01*
X171821111Y-103884394D01*
X171769600Y-103895600D01*
X170451594Y-103895600D01*
X169899191Y-103973489D01*
X169830060Y-103963358D01*
X169806597Y-103949237D01*
X169803253Y-103946682D01*
X169798866Y-103943330D01*
X169743915Y-103915485D01*
X169699466Y-103892961D01*
X169632432Y-103873277D01*
X169632426Y-103873276D01*
X169546354Y-103860900D01*
X157695362Y-103860900D01*
X157695361Y-103860900D01*
X157662718Y-103862650D01*
X157662709Y-103862650D01*
X157662703Y-103862651D01*
X157662698Y-103862651D01*
X157662665Y-103862654D01*
X157636374Y-103865481D01*
X157629339Y-103866320D01*
X157629337Y-103866320D01*
X157522598Y-103901100D01*
X157522588Y-103901104D01*
X157461266Y-103934589D01*
X157391670Y-103986689D01*
X157391649Y-103986707D01*
X156053777Y-105324581D01*
X155992454Y-105358066D01*
X155966096Y-105360900D01*
X155718000Y-105360900D01*
X155717991Y-105360900D01*
X155717990Y-105360901D01*
X155653064Y-105367881D01*
X155653048Y-105367883D01*
X155643668Y-105369924D01*
X155573977Y-105364935D01*
X155529637Y-105336437D01*
X155489281Y-105296081D01*
X155455796Y-105234758D01*
X155460780Y-105165066D01*
X155489281Y-105120719D01*
X155501600Y-105108400D01*
X155551600Y-105058400D01*
X155551600Y-105047546D01*
X155571285Y-104980507D01*
X155624089Y-104934752D01*
X155693247Y-104924808D01*
X155710534Y-104928569D01*
X155785225Y-104950499D01*
X155785227Y-104950500D01*
X155785228Y-104950500D01*
X155914773Y-104950500D01*
X155914773Y-104950499D01*
X156039069Y-104914004D01*
X156148049Y-104843967D01*
X156232882Y-104746063D01*
X156286697Y-104628226D01*
X156305133Y-104500000D01*
X156286697Y-104371774D01*
X156253340Y-104298733D01*
X156243396Y-104229574D01*
X156272421Y-104166018D01*
X156277128Y-104160885D01*
X157165070Y-103246037D01*
X157225887Y-103211641D01*
X157254050Y-103208400D01*
X160524016Y-103208400D01*
X160558950Y-103213423D01*
G37*
G04 #@! TD.AperFunction*
G04 #@! TA.AperFunction,Conductor*
G36*
X157851562Y-112295185D02*
G01*
X157872204Y-112311819D01*
X158399963Y-112839578D01*
X158433448Y-112900901D01*
X158428464Y-112970593D01*
X158421643Y-112985707D01*
X158411187Y-113005269D01*
X158353975Y-113193870D01*
X158334659Y-113390000D01*
X158353975Y-113586129D01*
X158411188Y-113774733D01*
X158504086Y-113948532D01*
X158504090Y-113948539D01*
X158632981Y-114105592D01*
X158631785Y-114106572D01*
X158661638Y-114161243D01*
X158656654Y-114230935D01*
X158614782Y-114286868D01*
X158549318Y-114311285D01*
X158540472Y-114311601D01*
X155059527Y-114311601D01*
X154992488Y-114291916D01*
X154946733Y-114239112D01*
X154936789Y-114169954D01*
X154965814Y-114106398D01*
X154970390Y-114101483D01*
X154970881Y-114100884D01*
X154970883Y-114100883D01*
X155095910Y-113948538D01*
X155188814Y-113774727D01*
X155246024Y-113586132D01*
X155265341Y-113390000D01*
X155246024Y-113193868D01*
X155188814Y-113005273D01*
X155188811Y-113005269D01*
X155188811Y-113005266D01*
X155095913Y-112831467D01*
X155095909Y-112831460D01*
X154970883Y-112679116D01*
X154818539Y-112554090D01*
X154818532Y-112554086D01*
X154733916Y-112508858D01*
X154684072Y-112459896D01*
X154668611Y-112391759D01*
X154692442Y-112326079D01*
X154748000Y-112283710D01*
X154792369Y-112275500D01*
X157784523Y-112275500D01*
X157851562Y-112295185D01*
G37*
G04 #@! TD.AperFunction*
G04 #@! TA.AperFunction,Conductor*
G36*
X133186968Y-112512385D02*
G01*
X133232723Y-112565189D01*
X133242667Y-112634347D01*
X133215782Y-112695365D01*
X133104090Y-112831460D01*
X133104086Y-112831467D01*
X133011188Y-113005266D01*
X132953975Y-113193870D01*
X132934659Y-113390000D01*
X132953975Y-113586129D01*
X133011188Y-113774733D01*
X133104086Y-113948532D01*
X133104090Y-113948539D01*
X133232981Y-114105592D01*
X133231785Y-114106573D01*
X133261637Y-114161242D01*
X133256653Y-114230934D01*
X133214781Y-114286867D01*
X133149317Y-114311284D01*
X133140471Y-114311600D01*
X129659529Y-114311600D01*
X129592490Y-114291915D01*
X129546735Y-114239111D01*
X129536791Y-114169953D01*
X129565816Y-114106397D01*
X129570387Y-114101487D01*
X129604158Y-114060338D01*
X129695910Y-113948538D01*
X129788814Y-113774727D01*
X129846024Y-113586132D01*
X129865341Y-113390000D01*
X129846024Y-113193868D01*
X129788814Y-113005273D01*
X129784592Y-112997374D01*
X129778359Y-112985712D01*
X129764117Y-112917310D01*
X129789117Y-112852066D01*
X129800020Y-112839594D01*
X130110599Y-112529016D01*
X130171920Y-112495534D01*
X130198278Y-112492700D01*
X133119929Y-112492700D01*
X133186968Y-112512385D01*
G37*
G04 #@! TD.AperFunction*
G04 #@! TA.AperFunction,Conductor*
G36*
X138224061Y-111043685D02*
G01*
X138269816Y-111096489D01*
X138279760Y-111165647D01*
X138250735Y-111229203D01*
X138244703Y-111235681D01*
X137030420Y-112449963D01*
X136969097Y-112483448D01*
X136899405Y-112478464D01*
X136884287Y-112471641D01*
X136864729Y-112461187D01*
X136864728Y-112461186D01*
X136864727Y-112461186D01*
X136676132Y-112403976D01*
X136676129Y-112403975D01*
X136480000Y-112384659D01*
X136283870Y-112403975D01*
X136095266Y-112461188D01*
X135921467Y-112554086D01*
X135921460Y-112554090D01*
X135769116Y-112679116D01*
X135644090Y-112831460D01*
X135644086Y-112831467D01*
X135551188Y-113005266D01*
X135493975Y-113193870D01*
X135474659Y-113390000D01*
X135493975Y-113586129D01*
X135551188Y-113774733D01*
X135644086Y-113948532D01*
X135644090Y-113948539D01*
X135772981Y-114105592D01*
X135771785Y-114106573D01*
X135801637Y-114161242D01*
X135796653Y-114230934D01*
X135754781Y-114286867D01*
X135689317Y-114311284D01*
X135680471Y-114311600D01*
X134739529Y-114311600D01*
X134672490Y-114291915D01*
X134626735Y-114239111D01*
X134616791Y-114169953D01*
X134645816Y-114106397D01*
X134650387Y-114101487D01*
X134684158Y-114060338D01*
X134775910Y-113948538D01*
X134868814Y-113774727D01*
X134926024Y-113586132D01*
X134945341Y-113390000D01*
X134926024Y-113193868D01*
X134868814Y-113005273D01*
X134858359Y-112985714D01*
X134844115Y-112917313D01*
X134869114Y-112852069D01*
X134880027Y-112839586D01*
X136659297Y-111060319D01*
X136720620Y-111026834D01*
X136746978Y-111024000D01*
X138157022Y-111024000D01*
X138224061Y-111043685D01*
G37*
G04 #@! TD.AperFunction*
G04 #@! TA.AperFunction,Conductor*
G36*
X140291062Y-111516685D02*
G01*
X140336817Y-111569489D01*
X140346761Y-111638647D01*
X140317736Y-111702203D01*
X140311704Y-111708681D01*
X139570420Y-112449963D01*
X139509097Y-112483448D01*
X139439405Y-112478464D01*
X139424287Y-112471641D01*
X139404729Y-112461187D01*
X139404728Y-112461186D01*
X139404727Y-112461186D01*
X139216132Y-112403976D01*
X139216129Y-112403975D01*
X139020000Y-112384659D01*
X138823870Y-112403975D01*
X138635266Y-112461188D01*
X138461467Y-112554086D01*
X138461460Y-112554090D01*
X138309116Y-112679116D01*
X138184090Y-112831460D01*
X138184086Y-112831467D01*
X138091188Y-113005266D01*
X138033975Y-113193870D01*
X138014659Y-113390000D01*
X138033975Y-113586129D01*
X138091188Y-113774733D01*
X138184086Y-113948532D01*
X138184090Y-113948539D01*
X138312981Y-114105592D01*
X138311785Y-114106573D01*
X138341637Y-114161242D01*
X138336653Y-114230934D01*
X138294781Y-114286867D01*
X138229317Y-114311284D01*
X138220471Y-114311600D01*
X137279529Y-114311600D01*
X137212490Y-114291915D01*
X137166735Y-114239111D01*
X137156791Y-114169953D01*
X137185816Y-114106397D01*
X137190387Y-114101487D01*
X137224158Y-114060338D01*
X137315910Y-113948538D01*
X137408814Y-113774727D01*
X137466024Y-113586132D01*
X137485341Y-113390000D01*
X137466024Y-113193868D01*
X137408814Y-113005273D01*
X137398359Y-112985714D01*
X137384115Y-112917313D01*
X137409114Y-112852069D01*
X137420027Y-112839586D01*
X138726297Y-111533319D01*
X138787620Y-111499834D01*
X138813978Y-111497000D01*
X140224023Y-111497000D01*
X140291062Y-111516685D01*
G37*
G04 #@! TD.AperFunction*
G04 #@! TA.AperFunction,Conductor*
G36*
X142352561Y-111995185D02*
G01*
X142398316Y-112047989D01*
X142408260Y-112117147D01*
X142379235Y-112180703D01*
X142373208Y-112187175D01*
X142237801Y-112322582D01*
X142110420Y-112449963D01*
X142049097Y-112483448D01*
X141979405Y-112478464D01*
X141964285Y-112471640D01*
X141944730Y-112461187D01*
X141943711Y-112460878D01*
X141850429Y-112432581D01*
X141756129Y-112403975D01*
X141560000Y-112384659D01*
X141363870Y-112403975D01*
X141175266Y-112461188D01*
X141001467Y-112554086D01*
X141001460Y-112554090D01*
X140849116Y-112679116D01*
X140724090Y-112831460D01*
X140724086Y-112831467D01*
X140631188Y-113005266D01*
X140573975Y-113193870D01*
X140554659Y-113390000D01*
X140573975Y-113586129D01*
X140631188Y-113774733D01*
X140724086Y-113948532D01*
X140724090Y-113948539D01*
X140852981Y-114105592D01*
X140851785Y-114106573D01*
X140881637Y-114161242D01*
X140876653Y-114230934D01*
X140834781Y-114286867D01*
X140769317Y-114311284D01*
X140760471Y-114311600D01*
X139819529Y-114311600D01*
X139752490Y-114291915D01*
X139706735Y-114239111D01*
X139696791Y-114169953D01*
X139725816Y-114106397D01*
X139730387Y-114101487D01*
X139764158Y-114060338D01*
X139855910Y-113948538D01*
X139948814Y-113774727D01*
X140006024Y-113586132D01*
X140025341Y-113390000D01*
X140006024Y-113193868D01*
X139948814Y-113005273D01*
X139938359Y-112985714D01*
X139924115Y-112917313D01*
X139949114Y-112852069D01*
X139960027Y-112839586D01*
X140787796Y-112011819D01*
X140849119Y-111978334D01*
X140875477Y-111975500D01*
X142285522Y-111975500D01*
X142352561Y-111995185D01*
G37*
G04 #@! TD.AperFunction*
G04 #@! TA.AperFunction,Conductor*
G36*
X148347706Y-109069822D02*
G01*
X148392053Y-109098323D01*
X148539375Y-109245645D01*
X148572860Y-109306968D01*
X148567876Y-109376660D01*
X148539375Y-109421007D01*
X146483942Y-111476443D01*
X146406444Y-111553940D01*
X146364500Y-111655199D01*
X146364500Y-112336087D01*
X146344815Y-112403126D01*
X146292011Y-112448881D01*
X146276499Y-112454747D01*
X146255268Y-112461187D01*
X146081467Y-112554086D01*
X146081460Y-112554090D01*
X145929116Y-112679116D01*
X145804090Y-112831460D01*
X145804086Y-112831467D01*
X145711188Y-113005266D01*
X145653975Y-113193870D01*
X145634659Y-113390000D01*
X145653975Y-113586129D01*
X145711188Y-113774733D01*
X145804086Y-113948532D01*
X145804090Y-113948539D01*
X145932981Y-114105592D01*
X145931785Y-114106573D01*
X145961637Y-114161242D01*
X145956653Y-114230934D01*
X145914781Y-114286867D01*
X145849317Y-114311284D01*
X145840471Y-114311600D01*
X142359529Y-114311600D01*
X142292490Y-114291915D01*
X142246735Y-114239111D01*
X142236791Y-114169953D01*
X142265816Y-114106397D01*
X142270387Y-114101487D01*
X142304158Y-114060338D01*
X142395910Y-113948538D01*
X142488814Y-113774727D01*
X142546024Y-113586132D01*
X142565341Y-113390000D01*
X142546024Y-113193868D01*
X142488814Y-113005273D01*
X142484592Y-112997374D01*
X142478359Y-112985712D01*
X142464117Y-112917310D01*
X142489117Y-112852066D01*
X142500021Y-112839594D01*
X142827799Y-112511816D01*
X142889120Y-112478334D01*
X142915478Y-112475500D01*
X144780199Y-112475500D01*
X144780200Y-112475500D01*
X144881458Y-112433557D01*
X144958957Y-112356058D01*
X144958956Y-112356058D01*
X145017525Y-112297489D01*
X145017524Y-112297489D01*
X148216693Y-109098321D01*
X148278014Y-109064838D01*
X148347706Y-109069822D01*
G37*
G04 #@! TD.AperFunction*
G04 #@! TA.AperFunction,Conductor*
G36*
X148351861Y-110490267D02*
G01*
X148407794Y-110532139D01*
X148412844Y-110539412D01*
X148417117Y-110546062D01*
X148417118Y-110546063D01*
X148501951Y-110643967D01*
X148501953Y-110643968D01*
X148504213Y-110646576D01*
X148533238Y-110710132D01*
X148534500Y-110727779D01*
X148534500Y-112566811D01*
X148514815Y-112633850D01*
X148489166Y-112662663D01*
X148469114Y-112679118D01*
X148344090Y-112831460D01*
X148344086Y-112831467D01*
X148251188Y-113005266D01*
X148193975Y-113193870D01*
X148174659Y-113390000D01*
X148193975Y-113586129D01*
X148251188Y-113774733D01*
X148344086Y-113948532D01*
X148344090Y-113948539D01*
X148472981Y-114105592D01*
X148471785Y-114106573D01*
X148501637Y-114161242D01*
X148496653Y-114230934D01*
X148454781Y-114286867D01*
X148389317Y-114311284D01*
X148380471Y-114311600D01*
X147439529Y-114311600D01*
X147372490Y-114291915D01*
X147326735Y-114239111D01*
X147316791Y-114169953D01*
X147345816Y-114106397D01*
X147350387Y-114101487D01*
X147384158Y-114060338D01*
X147475910Y-113948538D01*
X147568814Y-113774727D01*
X147626024Y-113586132D01*
X147645341Y-113390000D01*
X147626024Y-113193868D01*
X147568814Y-113005273D01*
X147568811Y-113005269D01*
X147568811Y-113005266D01*
X147475913Y-112831467D01*
X147475909Y-112831460D01*
X147350883Y-112679116D01*
X147198539Y-112554090D01*
X147198532Y-112554086D01*
X147024731Y-112461187D01*
X147003501Y-112454747D01*
X146945064Y-112416447D01*
X146916609Y-112352634D01*
X146915500Y-112336087D01*
X146915500Y-111875477D01*
X146935185Y-111808438D01*
X146951819Y-111787796D01*
X147573968Y-111165647D01*
X148220848Y-110518766D01*
X148282169Y-110485283D01*
X148351861Y-110490267D01*
G37*
G04 #@! TD.AperFunction*
G04 #@! TA.AperFunction,Conductor*
G36*
X150046238Y-110530031D02*
G01*
X150084478Y-110588508D01*
X150085033Y-110658375D01*
X150053464Y-110712067D01*
X149985934Y-110779597D01*
X149935931Y-110886828D01*
X149929500Y-110935683D01*
X149929500Y-111284316D01*
X149935931Y-111333171D01*
X149985935Y-111440404D01*
X149991927Y-111446396D01*
X150025412Y-111507719D01*
X150020428Y-111577411D01*
X150017044Y-111585580D01*
X150013305Y-111593768D01*
X150013303Y-111593772D01*
X150013304Y-111593773D01*
X150013302Y-111593778D01*
X149994867Y-111722000D01*
X150013302Y-111850225D01*
X150041597Y-111912181D01*
X150067118Y-111968063D01*
X150151951Y-112065967D01*
X150260931Y-112136004D01*
X150385225Y-112172499D01*
X150385227Y-112172500D01*
X150385228Y-112172500D01*
X150514773Y-112172500D01*
X150514773Y-112172499D01*
X150639069Y-112136004D01*
X150748049Y-112065967D01*
X150832882Y-111968063D01*
X150886697Y-111850226D01*
X150905133Y-111722000D01*
X150886697Y-111593774D01*
X150882959Y-111585591D01*
X150873015Y-111516434D01*
X150902038Y-111452877D01*
X150908075Y-111446394D01*
X150908567Y-111445901D01*
X150914065Y-111440404D01*
X150930406Y-111405359D01*
X150976578Y-111352921D01*
X151043772Y-111333769D01*
X151110653Y-111353985D01*
X151130469Y-111370084D01*
X151408181Y-111647796D01*
X151441666Y-111709119D01*
X151444500Y-111735477D01*
X151444500Y-112336087D01*
X151424815Y-112403126D01*
X151372011Y-112448881D01*
X151356499Y-112454747D01*
X151335268Y-112461187D01*
X151161467Y-112554086D01*
X151161460Y-112554090D01*
X151009116Y-112679116D01*
X150884090Y-112831460D01*
X150884086Y-112831467D01*
X150791188Y-113005266D01*
X150733975Y-113193870D01*
X150714659Y-113390000D01*
X150733975Y-113586129D01*
X150791188Y-113774733D01*
X150884086Y-113948532D01*
X150884090Y-113948539D01*
X151012981Y-114105592D01*
X151011785Y-114106573D01*
X151041637Y-114161242D01*
X151036653Y-114230934D01*
X150994781Y-114286867D01*
X150929317Y-114311284D01*
X150920471Y-114311600D01*
X149979529Y-114311600D01*
X149912490Y-114291915D01*
X149866735Y-114239111D01*
X149856791Y-114169953D01*
X149885816Y-114106397D01*
X149890387Y-114101487D01*
X149924158Y-114060338D01*
X150015910Y-113948538D01*
X150108814Y-113774727D01*
X150166024Y-113586132D01*
X150185341Y-113390000D01*
X150166024Y-113193868D01*
X150108814Y-113005273D01*
X150108811Y-113005269D01*
X150108811Y-113005266D01*
X150015913Y-112831467D01*
X150015909Y-112831460D01*
X149890883Y-112679116D01*
X149738539Y-112554090D01*
X149738532Y-112554086D01*
X149564733Y-112461188D01*
X149564727Y-112461186D01*
X149376132Y-112403976D01*
X149376129Y-112403975D01*
X149177346Y-112384397D01*
X149112559Y-112358236D01*
X149072200Y-112301202D01*
X149065500Y-112260994D01*
X149065500Y-110727779D01*
X149085185Y-110660740D01*
X149095786Y-110646577D01*
X149098045Y-110643969D01*
X149098049Y-110643967D01*
X149144217Y-110590684D01*
X149202992Y-110552912D01*
X149267418Y-110552850D01*
X149267421Y-110552830D01*
X149267571Y-110552849D01*
X149272636Y-110552845D01*
X149276819Y-110554064D01*
X149276827Y-110554068D01*
X149276835Y-110554069D01*
X149325683Y-110560500D01*
X149325684Y-110560500D01*
X149774317Y-110560500D01*
X149790601Y-110558356D01*
X149823173Y-110554068D01*
X149913379Y-110512003D01*
X149982454Y-110501512D01*
X150046238Y-110530031D01*
G37*
G04 #@! TD.AperFunction*
G04 #@! TA.AperFunction,Conductor*
G36*
X160134835Y-110869143D02*
G01*
X160138093Y-110872903D01*
X160138264Y-110872733D01*
X160145935Y-110880404D01*
X160229596Y-110964065D01*
X160336827Y-111014068D01*
X160385683Y-111020500D01*
X160385684Y-111020500D01*
X160734317Y-111020500D01*
X160750601Y-111018356D01*
X160783173Y-111014068D01*
X160890404Y-110964065D01*
X160917650Y-110936819D01*
X160978973Y-110903334D01*
X161005331Y-110900500D01*
X161104386Y-110900500D01*
X161155894Y-110911704D01*
X161160928Y-110914002D01*
X161160931Y-110914004D01*
X161238634Y-110936819D01*
X161285225Y-110950499D01*
X161285227Y-110950500D01*
X161405500Y-110950500D01*
X161472539Y-110970185D01*
X161518294Y-111022989D01*
X161529500Y-111074500D01*
X161529500Y-112368568D01*
X161509815Y-112435607D01*
X161463953Y-112477926D01*
X161321467Y-112554086D01*
X161321460Y-112554090D01*
X161169116Y-112679116D01*
X161044090Y-112831460D01*
X161044086Y-112831467D01*
X160951188Y-113005266D01*
X160893975Y-113193870D01*
X160874659Y-113390000D01*
X160893975Y-113586129D01*
X160951188Y-113774733D01*
X161044086Y-113948532D01*
X161044090Y-113948539D01*
X161172981Y-114105592D01*
X161171785Y-114106573D01*
X161201637Y-114161242D01*
X161196653Y-114230934D01*
X161154781Y-114286867D01*
X161089317Y-114311284D01*
X161080471Y-114311600D01*
X160139529Y-114311600D01*
X160072490Y-114291915D01*
X160026735Y-114239111D01*
X160016791Y-114169953D01*
X160045816Y-114106397D01*
X160050387Y-114101487D01*
X160084158Y-114060338D01*
X160175910Y-113948538D01*
X160268814Y-113774727D01*
X160326024Y-113586132D01*
X160345341Y-113390000D01*
X160326024Y-113193868D01*
X160268814Y-113005273D01*
X160268811Y-113005269D01*
X160268811Y-113005266D01*
X160175913Y-112831467D01*
X160175909Y-112831460D01*
X160050883Y-112679116D01*
X159898539Y-112554090D01*
X159898532Y-112554086D01*
X159724733Y-112461188D01*
X159724727Y-112461186D01*
X159536132Y-112403976D01*
X159536129Y-112403975D01*
X159340000Y-112384659D01*
X159143870Y-112403975D01*
X158955269Y-112461187D01*
X158935707Y-112471643D01*
X158867304Y-112485882D01*
X158802061Y-112460878D01*
X158789578Y-112449963D01*
X158251796Y-111912181D01*
X158218311Y-111850858D01*
X158223295Y-111781166D01*
X158265167Y-111725233D01*
X158330631Y-111700816D01*
X158339477Y-111700500D01*
X159124167Y-111700500D01*
X159191206Y-111720185D01*
X159211848Y-111736819D01*
X159227235Y-111752206D01*
X159330009Y-111797585D01*
X159355135Y-111800500D01*
X159704864Y-111800499D01*
X159704879Y-111800497D01*
X159704882Y-111800497D01*
X159729987Y-111797586D01*
X159729988Y-111797585D01*
X159729991Y-111797585D01*
X159832765Y-111752206D01*
X159912206Y-111672765D01*
X159957585Y-111569991D01*
X159960500Y-111544865D01*
X159960499Y-111255136D01*
X159958575Y-111238542D01*
X159957586Y-111230012D01*
X159957585Y-111230010D01*
X159957585Y-111230009D01*
X159912206Y-111127235D01*
X159897401Y-111112430D01*
X159863916Y-111051107D01*
X159868900Y-110981415D01*
X159897401Y-110937068D01*
X159961736Y-110872733D01*
X159964564Y-110875561D01*
X160002977Y-110844843D01*
X160072474Y-110837635D01*
X160134835Y-110869143D01*
G37*
G04 #@! TD.AperFunction*
G04 #@! TA.AperFunction,Conductor*
G36*
X127376567Y-96056197D02*
G01*
X127390827Y-96068442D01*
X128946526Y-97624142D01*
X130455942Y-99133558D01*
X130455944Y-99133560D01*
X130527022Y-99163000D01*
X130557200Y-99175500D01*
X130666800Y-99175500D01*
X143384523Y-99175500D01*
X143451562Y-99195185D01*
X143472204Y-99211819D01*
X144738181Y-100477796D01*
X144771666Y-100539119D01*
X144774500Y-100565477D01*
X144774500Y-101648487D01*
X144754815Y-101715526D01*
X144702011Y-101761281D01*
X144632853Y-101771225D01*
X144598095Y-101760869D01*
X144583510Y-101754068D01*
X144523173Y-101725932D01*
X144523171Y-101725931D01*
X144523172Y-101725931D01*
X144474317Y-101719500D01*
X144474316Y-101719500D01*
X144025684Y-101719500D01*
X144025683Y-101719500D01*
X143976828Y-101725931D01*
X143869595Y-101775935D01*
X143785936Y-101859594D01*
X143784516Y-101861623D01*
X143781486Y-101864044D01*
X143778264Y-101867267D01*
X143777904Y-101866907D01*
X143729939Y-101905248D01*
X143682941Y-101914500D01*
X141855478Y-101914500D01*
X141788439Y-101894815D01*
X141767797Y-101878181D01*
X141436819Y-101547203D01*
X141403334Y-101485880D01*
X141400500Y-101459522D01*
X141400500Y-100380249D01*
X141400499Y-100380247D01*
X141388868Y-100321770D01*
X141388867Y-100321769D01*
X141344552Y-100255447D01*
X141278230Y-100211132D01*
X141278229Y-100211131D01*
X141219752Y-100199500D01*
X141219748Y-100199500D01*
X141131778Y-100199500D01*
X141064739Y-100179815D01*
X141018984Y-100127011D01*
X141008604Y-100061210D01*
X141009495Y-100053526D01*
X141010500Y-100044865D01*
X141010499Y-99755136D01*
X141010497Y-99755117D01*
X141007586Y-99730012D01*
X141007585Y-99730010D01*
X141007585Y-99730009D01*
X140962206Y-99627235D01*
X140882765Y-99547794D01*
X140830442Y-99524691D01*
X140779992Y-99502415D01*
X140754865Y-99499500D01*
X140405143Y-99499500D01*
X140405117Y-99499502D01*
X140380012Y-99502413D01*
X140380008Y-99502415D01*
X140277235Y-99547793D01*
X140197794Y-99627234D01*
X140152415Y-99730006D01*
X140152415Y-99730008D01*
X140149500Y-99755131D01*
X140149500Y-100044856D01*
X140149502Y-100044877D01*
X140151397Y-100061214D01*
X140139567Y-100130075D01*
X140092387Y-100181609D01*
X140028223Y-100199500D01*
X139980247Y-100199500D01*
X139921770Y-100211131D01*
X139921769Y-100211132D01*
X139855447Y-100255447D01*
X139811132Y-100321769D01*
X139811131Y-100321770D01*
X139799500Y-100380247D01*
X139799500Y-101819752D01*
X139811131Y-101878229D01*
X139811132Y-101878230D01*
X139855447Y-101944552D01*
X139921769Y-101988867D01*
X139921770Y-101988868D01*
X139980247Y-102000499D01*
X139980250Y-102000500D01*
X139980252Y-102000500D01*
X141059522Y-102000500D01*
X141126561Y-102020185D01*
X141147203Y-102036819D01*
X141427703Y-102317319D01*
X141461188Y-102378642D01*
X141456204Y-102448334D01*
X141443124Y-102473891D01*
X141411132Y-102521769D01*
X141411131Y-102521770D01*
X141399500Y-102580247D01*
X141399500Y-104019752D01*
X141411131Y-104078229D01*
X141411132Y-104078230D01*
X141455447Y-104144552D01*
X141521769Y-104188867D01*
X141521770Y-104188868D01*
X141580247Y-104200499D01*
X141580250Y-104200500D01*
X141580252Y-104200500D01*
X141668222Y-104200500D01*
X141735261Y-104220185D01*
X141781016Y-104272989D01*
X141791396Y-104338790D01*
X141789500Y-104355128D01*
X141789500Y-104644856D01*
X141789502Y-104644882D01*
X141792413Y-104669987D01*
X141792415Y-104669991D01*
X141837793Y-104772764D01*
X141837794Y-104772765D01*
X141917235Y-104852206D01*
X142020009Y-104897585D01*
X142045135Y-104900500D01*
X142394864Y-104900499D01*
X142394879Y-104900497D01*
X142394882Y-104900497D01*
X142419987Y-104897586D01*
X142419988Y-104897585D01*
X142419991Y-104897585D01*
X142522765Y-104852206D01*
X142602206Y-104772765D01*
X142647585Y-104669991D01*
X142650500Y-104644865D01*
X142650499Y-104355136D01*
X142648603Y-104338786D01*
X142660433Y-104269925D01*
X142707613Y-104218391D01*
X142771777Y-104200500D01*
X142819750Y-104200500D01*
X142825813Y-104199903D01*
X142825966Y-104201459D01*
X142887936Y-104206992D01*
X142930241Y-104234710D01*
X142969596Y-104274065D01*
X143076827Y-104324068D01*
X143125683Y-104330500D01*
X143125684Y-104330500D01*
X143574317Y-104330500D01*
X143593458Y-104327980D01*
X143623173Y-104324068D01*
X143730404Y-104274065D01*
X143814065Y-104190404D01*
X143864068Y-104083173D01*
X143870500Y-104034316D01*
X143870500Y-103801464D01*
X143890185Y-103734425D01*
X143942989Y-103688670D01*
X144010685Y-103678525D01*
X144025684Y-103680500D01*
X144025687Y-103680500D01*
X144474317Y-103680500D01*
X144490601Y-103678356D01*
X144523173Y-103674068D01*
X144630404Y-103624065D01*
X144630404Y-103624064D01*
X144640236Y-103619480D01*
X144641511Y-103622215D01*
X144691360Y-103605389D01*
X144759132Y-103622380D01*
X144783993Y-103641609D01*
X145063262Y-103920878D01*
X145096747Y-103982201D01*
X145091763Y-104051893D01*
X145049891Y-104107826D01*
X145025668Y-104121993D01*
X144967234Y-104147794D01*
X144887794Y-104227234D01*
X144842415Y-104330006D01*
X144842415Y-104330008D01*
X144839500Y-104355131D01*
X144839500Y-104644856D01*
X144839502Y-104644882D01*
X144842413Y-104669987D01*
X144842415Y-104669991D01*
X144887791Y-104772760D01*
X144892699Y-104779924D01*
X144914344Y-104846356D01*
X144896638Y-104913945D01*
X144892699Y-104920076D01*
X144887792Y-104927238D01*
X144842415Y-105030006D01*
X144842415Y-105030008D01*
X144842415Y-105030009D01*
X144839500Y-105055135D01*
X144839500Y-105199767D01*
X144839501Y-105225499D01*
X144819817Y-105292539D01*
X144767013Y-105338294D01*
X144715501Y-105349500D01*
X133781277Y-105349500D01*
X133714238Y-105329815D01*
X133693596Y-105313181D01*
X131646859Y-103266444D01*
X131646858Y-103266443D01*
X131545600Y-103224500D01*
X131331193Y-103224500D01*
X131264154Y-103204815D01*
X131219793Y-103154961D01*
X131214197Y-103143515D01*
X131131485Y-103060803D01*
X131085517Y-103038331D01*
X131066431Y-103029000D01*
X131026391Y-103009426D01*
X130958261Y-102999500D01*
X130958260Y-102999500D01*
X129641740Y-102999500D01*
X129641739Y-102999500D01*
X129573608Y-103009426D01*
X129468516Y-103060802D01*
X129453819Y-103075500D01*
X129416136Y-103113182D01*
X129354816Y-103146666D01*
X129328457Y-103149500D01*
X129235226Y-103149500D01*
X129110935Y-103185994D01*
X129110932Y-103185995D01*
X129110931Y-103185996D01*
X129081648Y-103204815D01*
X129001950Y-103256033D01*
X128917118Y-103353937D01*
X128917117Y-103353938D01*
X128863302Y-103471774D01*
X128844867Y-103600000D01*
X128863302Y-103728225D01*
X128886712Y-103779485D01*
X128917118Y-103846063D01*
X129001951Y-103943967D01*
X129110931Y-104014004D01*
X129155608Y-104027122D01*
X129235225Y-104050499D01*
X129235227Y-104050500D01*
X129235228Y-104050500D01*
X129364773Y-104050500D01*
X129364773Y-104050499D01*
X129469506Y-104019748D01*
X129489066Y-104014005D01*
X129489067Y-104014005D01*
X129495389Y-104009942D01*
X129562427Y-103990254D01*
X129580311Y-103991550D01*
X129641739Y-104000500D01*
X129641740Y-104000500D01*
X130958261Y-104000500D01*
X130988713Y-103996063D01*
X131026393Y-103990573D01*
X131131483Y-103939198D01*
X131214198Y-103856483D01*
X131217864Y-103848983D01*
X131264988Y-103797402D01*
X131332522Y-103779485D01*
X131399021Y-103800923D01*
X131416946Y-103815761D01*
X132614004Y-105012819D01*
X132647489Y-105074142D01*
X132642505Y-105143834D01*
X132600633Y-105199767D01*
X132535169Y-105224184D01*
X132526323Y-105224500D01*
X131331193Y-105224500D01*
X131264154Y-105204815D01*
X131219793Y-105154961D01*
X131214197Y-105143515D01*
X131131485Y-105060803D01*
X131026391Y-105009426D01*
X130958261Y-104999500D01*
X130958260Y-104999500D01*
X129641740Y-104999500D01*
X129641739Y-104999500D01*
X129573608Y-105009426D01*
X129468516Y-105060802D01*
X129455177Y-105074142D01*
X129416136Y-105113182D01*
X129354816Y-105146666D01*
X129328457Y-105149500D01*
X129235226Y-105149500D01*
X129110935Y-105185994D01*
X129110932Y-105185995D01*
X129110931Y-105185996D01*
X129098256Y-105194142D01*
X129001950Y-105256033D01*
X128917118Y-105353937D01*
X128917117Y-105353938D01*
X128863302Y-105471774D01*
X128844867Y-105600000D01*
X128863302Y-105728225D01*
X128893884Y-105795189D01*
X128917118Y-105846063D01*
X129001951Y-105943967D01*
X129110931Y-106014004D01*
X129235225Y-106050499D01*
X129235227Y-106050500D01*
X129235228Y-106050500D01*
X129364773Y-106050500D01*
X129364773Y-106050499D01*
X129489066Y-106014005D01*
X129489067Y-106014005D01*
X129495389Y-106009942D01*
X129562427Y-105990254D01*
X129580311Y-105991550D01*
X129641739Y-106000500D01*
X129641740Y-106000500D01*
X130958261Y-106000500D01*
X130980971Y-105997191D01*
X131026393Y-105990573D01*
X131131483Y-105939198D01*
X131214198Y-105856483D01*
X131219292Y-105846063D01*
X131219793Y-105845039D01*
X131266921Y-105793457D01*
X131331193Y-105775500D01*
X132563323Y-105775500D01*
X132630362Y-105795185D01*
X132651003Y-105811818D01*
X132972741Y-106133557D01*
X132972746Y-106133559D01*
X132989408Y-106140461D01*
X132989409Y-106140461D01*
X133073997Y-106175499D01*
X133073998Y-106175499D01*
X133074000Y-106175500D01*
X144909991Y-106175500D01*
X144977030Y-106195185D01*
X145022785Y-106247989D01*
X145032729Y-106317147D01*
X145022785Y-106351012D01*
X145013302Y-106371774D01*
X144994867Y-106500000D01*
X145013302Y-106628225D01*
X145057727Y-106725500D01*
X145067118Y-106746063D01*
X145151951Y-106843967D01*
X145260931Y-106914004D01*
X145269789Y-106916605D01*
X145328568Y-106954376D01*
X145357596Y-107017930D01*
X145349420Y-107083035D01*
X145324501Y-107143194D01*
X145324500Y-107143201D01*
X145324500Y-108584523D01*
X145304815Y-108651562D01*
X145288181Y-108672204D01*
X144323704Y-109636681D01*
X144262381Y-109670166D01*
X144236023Y-109673000D01*
X136056300Y-109673000D01*
X135946700Y-109673000D01*
X135946698Y-109673000D01*
X135946696Y-109673001D01*
X135845444Y-109714939D01*
X135845442Y-109714941D01*
X133972204Y-111588181D01*
X133910881Y-111621666D01*
X133884523Y-111624500D01*
X128532398Y-111624500D01*
X128460799Y-111654158D01*
X128431139Y-111666443D01*
X128431138Y-111666444D01*
X127302329Y-112795254D01*
X127241006Y-112828739D01*
X127171314Y-112823755D01*
X127118797Y-112786240D01*
X127030883Y-112679117D01*
X127030881Y-112679115D01*
X127030880Y-112679114D01*
X126878539Y-112554090D01*
X126878532Y-112554086D01*
X126704733Y-112461188D01*
X126704727Y-112461186D01*
X126516132Y-112403976D01*
X126516129Y-112403975D01*
X126320000Y-112384659D01*
X126123867Y-112403976D01*
X126062794Y-112422502D01*
X125992928Y-112423125D01*
X125933815Y-112385876D01*
X125904224Y-112322582D01*
X125902800Y-112303841D01*
X125902800Y-109700000D01*
X129594659Y-109700000D01*
X129613975Y-109896129D01*
X129613976Y-109896132D01*
X129660845Y-110050639D01*
X129671188Y-110084733D01*
X129764086Y-110258532D01*
X129764090Y-110258539D01*
X129889116Y-110410883D01*
X130041460Y-110535909D01*
X130041467Y-110535913D01*
X130215266Y-110628811D01*
X130215269Y-110628811D01*
X130215273Y-110628814D01*
X130403868Y-110686024D01*
X130600000Y-110705341D01*
X130796132Y-110686024D01*
X130984727Y-110628814D01*
X130988445Y-110626827D01*
X131124567Y-110554068D01*
X131158538Y-110535910D01*
X131310883Y-110410883D01*
X131435910Y-110258538D01*
X131528814Y-110084727D01*
X131586024Y-109896132D01*
X131605341Y-109700000D01*
X131586024Y-109503868D01*
X131528814Y-109315273D01*
X131528811Y-109315269D01*
X131528811Y-109315266D01*
X131435913Y-109141467D01*
X131435909Y-109141460D01*
X131310883Y-108989116D01*
X131158539Y-108864090D01*
X131158532Y-108864086D01*
X130984733Y-108771188D01*
X130984727Y-108771186D01*
X130796132Y-108713976D01*
X130796129Y-108713975D01*
X130600000Y-108694659D01*
X130403870Y-108713975D01*
X130215266Y-108771188D01*
X130041467Y-108864086D01*
X130041460Y-108864090D01*
X129889116Y-108989116D01*
X129764090Y-109141460D01*
X129764086Y-109141467D01*
X129671188Y-109315266D01*
X129613975Y-109503870D01*
X129594659Y-109700000D01*
X125902800Y-109700000D01*
X125902800Y-96696158D01*
X125922485Y-96629119D01*
X125975289Y-96583364D01*
X126044447Y-96573420D01*
X126062797Y-96577498D01*
X126123868Y-96596024D01*
X126320000Y-96615341D01*
X126516132Y-96596024D01*
X126704727Y-96538814D01*
X126704735Y-96538810D01*
X126878532Y-96445913D01*
X126878536Y-96445911D01*
X126878538Y-96445910D01*
X127030883Y-96320883D01*
X127155910Y-96168538D01*
X127193789Y-96097670D01*
X127242750Y-96047827D01*
X127310887Y-96032366D01*
X127376567Y-96056197D01*
G37*
G04 #@! TD.AperFunction*
G04 #@! TA.AperFunction,Conductor*
G36*
X155068946Y-110368035D02*
G01*
X155124880Y-110409906D01*
X155149297Y-110475370D01*
X155137995Y-110536621D01*
X155095932Y-110626826D01*
X155095931Y-110626827D01*
X155089500Y-110675683D01*
X155089500Y-111124316D01*
X155097170Y-111182579D01*
X155093748Y-111183029D01*
X155093645Y-111235671D01*
X155055754Y-111294374D01*
X154992141Y-111323273D01*
X154974737Y-111324500D01*
X154726800Y-111324500D01*
X154659761Y-111304815D01*
X154614006Y-111252011D01*
X154602800Y-111200500D01*
X154602800Y-110643926D01*
X154622485Y-110576887D01*
X154675289Y-110531132D01*
X154710616Y-110520987D01*
X154714315Y-110520500D01*
X154714316Y-110520500D01*
X154763173Y-110514068D01*
X154870404Y-110464065D01*
X154937935Y-110396533D01*
X154999254Y-110363051D01*
X155068946Y-110368035D01*
G37*
G04 #@! TD.AperFunction*
G04 #@! TA.AperFunction,Conductor*
G36*
X157407844Y-110779887D02*
G01*
X157460931Y-110814004D01*
X157529980Y-110834278D01*
X157585225Y-110850499D01*
X157585227Y-110850500D01*
X157715501Y-110850500D01*
X157782540Y-110870185D01*
X157828295Y-110922989D01*
X157839501Y-110974500D01*
X157839501Y-111025500D01*
X157819816Y-111092539D01*
X157767012Y-111138294D01*
X157715501Y-111149500D01*
X157485833Y-111149500D01*
X157418794Y-111129815D01*
X157398152Y-111113181D01*
X157332765Y-111047794D01*
X157254946Y-111013433D01*
X157201570Y-110968347D01*
X157181043Y-110901560D01*
X157199882Y-110834278D01*
X157252105Y-110787862D01*
X157254881Y-110786594D01*
X157290723Y-110770768D01*
X157360001Y-110761699D01*
X157407844Y-110779887D01*
G37*
G04 #@! TD.AperFunction*
G04 #@! TA.AperFunction,Conductor*
G36*
X158077710Y-108415185D02*
G01*
X158123465Y-108467989D01*
X158133409Y-108537147D01*
X158133144Y-108538897D01*
X158124500Y-108593474D01*
X158124500Y-109206517D01*
X158132759Y-109258662D01*
X158139354Y-109300304D01*
X158139354Y-109300305D01*
X158140273Y-109306103D01*
X158131317Y-109375396D01*
X158086320Y-109428848D01*
X158019569Y-109449487D01*
X158017799Y-109449500D01*
X156225853Y-109449500D01*
X156199690Y-109456510D01*
X156199691Y-109456511D01*
X156136710Y-109473386D01*
X156136709Y-109473387D01*
X156056785Y-109519531D01*
X156052184Y-109524132D01*
X155990859Y-109557614D01*
X155921168Y-109552627D01*
X155893382Y-109538020D01*
X155890406Y-109535936D01*
X155871835Y-109527276D01*
X155783173Y-109485932D01*
X155783171Y-109485931D01*
X155783172Y-109485931D01*
X155734317Y-109479500D01*
X155734316Y-109479500D01*
X155385684Y-109479500D01*
X155385683Y-109479500D01*
X155336828Y-109485931D01*
X155229596Y-109535935D01*
X155224876Y-109540655D01*
X155163551Y-109574137D01*
X155093860Y-109569150D01*
X155037928Y-109527276D01*
X155013514Y-109461811D01*
X155024815Y-109400568D01*
X155043972Y-109359487D01*
X155050500Y-109309901D01*
X155050499Y-108919499D01*
X155070183Y-108852461D01*
X155122987Y-108806706D01*
X155174499Y-108795500D01*
X155325803Y-108795500D01*
X155328662Y-108795433D01*
X155340106Y-108795165D01*
X155340726Y-108795135D01*
X155346530Y-108795000D01*
X155713472Y-108795000D01*
X155719275Y-108795135D01*
X155719896Y-108795165D01*
X155734198Y-108795500D01*
X157340803Y-108795500D01*
X157342723Y-108795397D01*
X157373461Y-108793749D01*
X157399819Y-108790915D01*
X157406824Y-108790080D01*
X157505116Y-108758052D01*
X157513565Y-108755299D01*
X157513565Y-108755298D01*
X157513571Y-108755297D01*
X157574894Y-108721812D01*
X157644504Y-108669702D01*
X157882387Y-108431817D01*
X157943708Y-108398334D01*
X157970067Y-108395500D01*
X158010671Y-108395500D01*
X158077710Y-108415185D01*
G37*
G04 #@! TD.AperFunction*
G04 #@! TA.AperFunction,Conductor*
G36*
X166291435Y-108008830D02*
G01*
X166291433Y-108008830D01*
X166248096Y-108016648D01*
X166161195Y-108040487D01*
X166161187Y-108040490D01*
X166090963Y-108066682D01*
X166047632Y-108074500D01*
X165961601Y-108074500D01*
X165884880Y-108089760D01*
X165868889Y-108100446D01*
X165802212Y-108121323D01*
X165734832Y-108102837D01*
X165731111Y-108100446D01*
X165715117Y-108089759D01*
X165638403Y-108074500D01*
X165461601Y-108074500D01*
X165384881Y-108089760D01*
X165384879Y-108089761D01*
X165297888Y-108147888D01*
X165239760Y-108234883D01*
X165239758Y-108234887D01*
X165224500Y-108311594D01*
X165224500Y-108859600D01*
X165204815Y-108926639D01*
X165152011Y-108972394D01*
X165100500Y-108983600D01*
X164999500Y-108983600D01*
X164932461Y-108963915D01*
X164886706Y-108911111D01*
X164875500Y-108859600D01*
X164875500Y-108622158D01*
X164875499Y-108622144D01*
X164875499Y-108311602D01*
X164875499Y-108311600D01*
X164860240Y-108234883D01*
X164860239Y-108234881D01*
X164860238Y-108234879D01*
X164826543Y-108184452D01*
X164802112Y-108147888D01*
X164715117Y-108089760D01*
X164715115Y-108089759D01*
X164715112Y-108089758D01*
X164638404Y-108074500D01*
X164461601Y-108074500D01*
X164384881Y-108089760D01*
X164368887Y-108100447D01*
X164302208Y-108121322D01*
X164234829Y-108102835D01*
X164231112Y-108100446D01*
X164215120Y-108089761D01*
X164215117Y-108089760D01*
X164184855Y-108083740D01*
X164163958Y-108079583D01*
X164153218Y-108076943D01*
X164086577Y-108057376D01*
X164086561Y-108057372D01*
X164000497Y-108044999D01*
X163976613Y-108044999D01*
X163937110Y-108037733D01*
X163936901Y-108038384D01*
X163933836Y-108037396D01*
X163933834Y-108037395D01*
X163901750Y-108027052D01*
X163873487Y-108017942D01*
X163873481Y-108017940D01*
X163823408Y-108007378D01*
X163817496Y-108006761D01*
X163760349Y-108000800D01*
X166381174Y-108000800D01*
X166291435Y-108008830D01*
G37*
G04 #@! TD.AperFunction*
G04 #@! TA.AperFunction,Conductor*
G36*
X177887087Y-94931285D02*
G01*
X177932842Y-94984089D01*
X177944046Y-95035949D01*
X177928437Y-100527327D01*
X177906671Y-108184452D01*
X177886796Y-108251436D01*
X177833863Y-108297040D01*
X177782672Y-108308100D01*
X177598126Y-108308100D01*
X177539648Y-108311496D01*
X177539598Y-108311500D01*
X177511103Y-108314822D01*
X177475112Y-108321149D01*
X177453374Y-108324971D01*
X177453372Y-108324971D01*
X177453370Y-108324972D01*
X177319481Y-108377651D01*
X177261683Y-108410564D01*
X177259832Y-108411552D01*
X177258762Y-108412226D01*
X177145143Y-108500490D01*
X177145137Y-108500495D01*
X177060992Y-108617187D01*
X177060984Y-108617200D01*
X177028603Y-108679104D01*
X177028597Y-108679117D01*
X176980736Y-108814782D01*
X176980736Y-108814783D01*
X176967009Y-108883792D01*
X176934624Y-108945703D01*
X176873908Y-108980277D01*
X176845392Y-108983600D01*
X175304607Y-108983600D01*
X175237568Y-108963915D01*
X175191813Y-108911111D01*
X175182992Y-108883799D01*
X175169265Y-108814788D01*
X175154513Y-108758052D01*
X175145690Y-108730733D01*
X175124474Y-108676096D01*
X175098632Y-108635885D01*
X175046690Y-108555062D01*
X175046681Y-108555051D01*
X175000937Y-108502259D01*
X175000933Y-108502256D01*
X175000931Y-108502253D01*
X174892197Y-108408033D01*
X174892194Y-108408031D01*
X174892192Y-108408030D01*
X174761326Y-108348264D01*
X174761321Y-108348262D01*
X174761320Y-108348262D01*
X174694281Y-108328577D01*
X174694283Y-108328577D01*
X174694278Y-108328576D01*
X174646805Y-108321750D01*
X174551861Y-108308100D01*
X173568139Y-108308100D01*
X173568126Y-108308100D01*
X173509648Y-108311496D01*
X173509598Y-108311500D01*
X173481103Y-108314822D01*
X173445112Y-108321149D01*
X173423374Y-108324971D01*
X173423372Y-108324971D01*
X173423370Y-108324972D01*
X173289481Y-108377651D01*
X173231683Y-108410564D01*
X173229832Y-108411552D01*
X173228762Y-108412226D01*
X173115143Y-108500490D01*
X173115137Y-108500495D01*
X173030992Y-108617187D01*
X173030984Y-108617200D01*
X172998603Y-108679104D01*
X172998597Y-108679117D01*
X172950736Y-108814782D01*
X172950736Y-108814783D01*
X172937009Y-108883792D01*
X172904624Y-108945703D01*
X172843908Y-108980277D01*
X172815392Y-108983600D01*
X170974607Y-108983600D01*
X170907568Y-108963915D01*
X170861813Y-108911111D01*
X170852991Y-108883799D01*
X170851121Y-108874401D01*
X170848915Y-108856837D01*
X170847103Y-108823022D01*
X170844269Y-108796664D01*
X170844080Y-108795500D01*
X170839497Y-108767215D01*
X170837900Y-108747379D01*
X170837900Y-108210503D01*
X170819984Y-108077122D01*
X170819984Y-108077121D01*
X170802716Y-108014000D01*
X170770314Y-107937482D01*
X170765425Y-107923730D01*
X170754924Y-107887585D01*
X170750000Y-107852990D01*
X170750000Y-107547006D01*
X170754917Y-107512434D01*
X170756494Y-107507004D01*
X170768838Y-107478475D01*
X170771556Y-107473880D01*
X170790592Y-107449342D01*
X170803121Y-107436813D01*
X170864444Y-107403333D01*
X170890797Y-107400500D01*
X171778259Y-107400500D01*
X171778260Y-107400500D01*
X171791642Y-107398550D01*
X171860819Y-107408362D01*
X171913709Y-107454017D01*
X171929295Y-107489159D01*
X171951903Y-107573531D01*
X171951905Y-107573536D01*
X172014505Y-107681964D01*
X172103036Y-107770495D01*
X172211464Y-107833095D01*
X172332399Y-107865500D01*
X172332401Y-107865500D01*
X172457599Y-107865500D01*
X172457601Y-107865500D01*
X172578536Y-107833095D01*
X172686964Y-107770495D01*
X172775495Y-107681964D01*
X172821069Y-107603025D01*
X172871635Y-107554811D01*
X172940242Y-107541587D01*
X172990455Y-107557638D01*
X173051561Y-107592918D01*
X173134347Y-107615100D01*
X173587036Y-107615100D01*
X173654075Y-107634785D01*
X173666935Y-107645148D01*
X173666941Y-107645142D01*
X173673382Y-107650084D01*
X173673387Y-107650089D01*
X173776114Y-107709399D01*
X173890691Y-107740100D01*
X173890694Y-107740100D01*
X174009306Y-107740100D01*
X174009309Y-107740100D01*
X174123886Y-107709399D01*
X174226613Y-107650089D01*
X174310489Y-107566213D01*
X174369799Y-107463486D01*
X174400500Y-107348909D01*
X174400500Y-102455091D01*
X174369799Y-102340514D01*
X174310489Y-102237787D01*
X174226613Y-102153911D01*
X174123886Y-102094601D01*
X174009309Y-102063900D01*
X174009306Y-102063900D01*
X174000389Y-102063900D01*
X173933350Y-102044215D01*
X173912708Y-102027581D01*
X173899661Y-102014534D01*
X173898686Y-102013786D01*
X173898166Y-102013340D01*
X173897918Y-102013158D01*
X173895718Y-102011509D01*
X173895435Y-102011292D01*
X173894856Y-102010914D01*
X173893869Y-102010191D01*
X173860644Y-101991973D01*
X173858262Y-101990633D01*
X173825431Y-101971678D01*
X173824286Y-101971204D01*
X173823659Y-101970903D01*
X173823354Y-101970785D01*
X173820853Y-101969782D01*
X173820524Y-101969645D01*
X173819872Y-101969432D01*
X173818719Y-101968984D01*
X173781880Y-101959979D01*
X173779232Y-101959301D01*
X173757113Y-101953374D01*
X173742653Y-101949500D01*
X173742652Y-101949500D01*
X173742645Y-101949498D01*
X173741438Y-101949339D01*
X173740752Y-101949210D01*
X173740388Y-101949171D01*
X173737692Y-101948847D01*
X173737368Y-101948804D01*
X173736681Y-101948767D01*
X173735464Y-101948634D01*
X173697563Y-101949470D01*
X173694829Y-101949500D01*
X172957904Y-101949500D01*
X172890865Y-101929815D01*
X172845110Y-101877011D01*
X172835166Y-101807853D01*
X172838126Y-101793419D01*
X172870500Y-101672601D01*
X172870500Y-101547399D01*
X172838095Y-101426464D01*
X172775495Y-101318036D01*
X172686964Y-101229505D01*
X172578536Y-101166905D01*
X172578537Y-101166905D01*
X172538224Y-101156103D01*
X172457601Y-101134500D01*
X172332399Y-101134500D01*
X172251775Y-101156103D01*
X172211463Y-101166905D01*
X172103037Y-101229504D01*
X172103034Y-101229506D01*
X172014506Y-101318034D01*
X172014504Y-101318037D01*
X171951905Y-101426463D01*
X171951903Y-101426468D01*
X171929295Y-101510840D01*
X171892930Y-101570500D01*
X171830082Y-101601028D01*
X171791648Y-101601450D01*
X171778260Y-101599500D01*
X170861740Y-101599500D01*
X170861739Y-101599500D01*
X170793608Y-101609426D01*
X170688514Y-101660803D01*
X170605803Y-101743514D01*
X170554426Y-101848608D01*
X170544500Y-101916739D01*
X170544500Y-102074626D01*
X170524815Y-102141665D01*
X170472011Y-102187420D01*
X170402853Y-102197364D01*
X170339297Y-102168339D01*
X170307706Y-102126138D01*
X170267882Y-102038938D01*
X170267882Y-102038937D01*
X170183049Y-101941033D01*
X170074069Y-101870996D01*
X170074065Y-101870994D01*
X170074064Y-101870994D01*
X169949774Y-101834500D01*
X169949772Y-101834500D01*
X169820228Y-101834500D01*
X169820226Y-101834500D01*
X169695933Y-101870994D01*
X169687869Y-101874678D01*
X169687373Y-101873594D01*
X169623038Y-101885172D01*
X169583945Y-101874270D01*
X169523172Y-101845931D01*
X169474317Y-101839500D01*
X169474316Y-101839500D01*
X169025684Y-101839500D01*
X169025683Y-101839500D01*
X168976828Y-101845931D01*
X168869595Y-101895935D01*
X168837681Y-101927850D01*
X168776358Y-101961335D01*
X168706666Y-101956351D01*
X168662319Y-101927850D01*
X168622733Y-101888264D01*
X168625561Y-101885435D01*
X168594843Y-101847023D01*
X168587635Y-101777526D01*
X168619143Y-101715165D01*
X168622903Y-101711906D01*
X168622733Y-101711736D01*
X168665385Y-101669084D01*
X168714065Y-101620404D01*
X168764068Y-101513173D01*
X168770500Y-101464316D01*
X168770500Y-101115684D01*
X168769738Y-101109899D01*
X168764068Y-101066828D01*
X168747275Y-101030815D01*
X168714065Y-100959596D01*
X168702428Y-100947959D01*
X168668943Y-100886636D01*
X168673927Y-100816944D01*
X168677300Y-100808800D01*
X168686697Y-100788226D01*
X168705133Y-100660000D01*
X168703742Y-100650323D01*
X168698972Y-100617146D01*
X168708916Y-100547988D01*
X168754671Y-100495184D01*
X168821710Y-100475500D01*
X168993199Y-100475500D01*
X168993200Y-100475500D01*
X169094458Y-100433557D01*
X169171957Y-100356058D01*
X169171956Y-100356058D01*
X169230525Y-100297489D01*
X170302046Y-99225969D01*
X170363365Y-99192487D01*
X170433057Y-99197471D01*
X170488990Y-99239343D01*
X170500207Y-99257357D01*
X170550341Y-99355749D01*
X170550346Y-99355756D01*
X170644243Y-99449653D01*
X170644245Y-99449654D01*
X170644249Y-99449658D01*
X170762580Y-99509951D01*
X170762581Y-99509951D01*
X170762583Y-99509952D01*
X170762582Y-99509952D01*
X170860749Y-99525500D01*
X170860754Y-99525500D01*
X171439251Y-99525500D01*
X171537417Y-99509952D01*
X171537418Y-99509951D01*
X171537420Y-99509951D01*
X171655751Y-99449658D01*
X171749658Y-99355751D01*
X171809951Y-99237420D01*
X171809951Y-99237418D01*
X171809952Y-99237417D01*
X171825500Y-99139251D01*
X171825500Y-98635748D01*
X171809952Y-98537582D01*
X171809951Y-98537580D01*
X171790697Y-98499793D01*
X171777802Y-98431126D01*
X171804078Y-98366386D01*
X171861184Y-98326128D01*
X171901183Y-98319500D01*
X172200799Y-98319500D01*
X172200800Y-98319500D01*
X172302058Y-98277557D01*
X172379557Y-98200058D01*
X172379556Y-98200058D01*
X172438125Y-98141489D01*
X172438124Y-98141489D01*
X174029580Y-96550034D01*
X174090901Y-96516551D01*
X174160593Y-96521535D01*
X174175712Y-96528359D01*
X174195267Y-96538811D01*
X174195273Y-96538814D01*
X174383868Y-96596024D01*
X174580000Y-96615341D01*
X174776132Y-96596024D01*
X174964727Y-96538814D01*
X174964735Y-96538810D01*
X175138532Y-96445913D01*
X175138536Y-96445911D01*
X175138538Y-96445910D01*
X175290883Y-96320883D01*
X175415910Y-96168538D01*
X175475958Y-96056197D01*
X175508811Y-95994733D01*
X175508812Y-95994730D01*
X175508814Y-95994727D01*
X175566024Y-95806132D01*
X175585341Y-95610000D01*
X175566024Y-95413868D01*
X175508814Y-95225273D01*
X175508811Y-95225267D01*
X175438676Y-95094053D01*
X175424434Y-95025650D01*
X175449434Y-94960407D01*
X175505739Y-94919036D01*
X175548034Y-94911600D01*
X177820048Y-94911600D01*
X177887087Y-94931285D01*
G37*
G04 #@! TD.AperFunction*
G04 #@! TA.AperFunction,Conductor*
G36*
X155180890Y-106298847D02*
G01*
X155195135Y-106300500D01*
X155362836Y-106300499D01*
X155419039Y-106313967D01*
X155515351Y-106362939D01*
X155571736Y-106379495D01*
X155581395Y-106382332D01*
X155582390Y-106382624D01*
X155668462Y-106395000D01*
X155671872Y-106395000D01*
X155712824Y-106401958D01*
X155719772Y-106404389D01*
X155740006Y-106411469D01*
X155760822Y-106420992D01*
X155770721Y-106426680D01*
X155822309Y-106448936D01*
X155839775Y-106455016D01*
X155863987Y-106463445D01*
X155872726Y-106464127D01*
X155975918Y-106472184D01*
X155994636Y-106470175D01*
X156004768Y-106472005D01*
X156046160Y-106466555D01*
X156046161Y-106466556D01*
X156133812Y-106455016D01*
X156166181Y-106455016D01*
X156181977Y-106457096D01*
X156181978Y-106457096D01*
X156186004Y-106457626D01*
X156186005Y-106457626D01*
X156197779Y-106459176D01*
X156229040Y-106467553D01*
X156245683Y-106474446D01*
X156281315Y-106489206D01*
X156301819Y-106495426D01*
X156338612Y-106506588D01*
X156338615Y-106506588D01*
X156338623Y-106506591D01*
X156385759Y-106515967D01*
X156386080Y-106516031D01*
X156406695Y-106518060D01*
X156412181Y-106518601D01*
X156476969Y-106544759D01*
X156517330Y-106601793D01*
X156520449Y-106671593D01*
X156493746Y-106723204D01*
X156467120Y-106753932D01*
X156467117Y-106753938D01*
X156413302Y-106871774D01*
X156394867Y-107000000D01*
X156413302Y-107128225D01*
X156467117Y-107246061D01*
X156467120Y-107246067D01*
X156501726Y-107286004D01*
X156530751Y-107349560D01*
X156520807Y-107418718D01*
X156499274Y-107451155D01*
X156498483Y-107452014D01*
X156498480Y-107452018D01*
X156497944Y-107452601D01*
X156491511Y-107459594D01*
X156491510Y-107459594D01*
X156436968Y-107542832D01*
X156408706Y-107606724D01*
X156408703Y-107606731D01*
X156402932Y-107627288D01*
X156398109Y-107641221D01*
X156370253Y-107708473D01*
X156354068Y-107736508D01*
X156334673Y-107761784D01*
X156311784Y-107784672D01*
X156308016Y-107787564D01*
X156286508Y-107804068D01*
X156258472Y-107820254D01*
X156229037Y-107832446D01*
X156197775Y-107840823D01*
X156176556Y-107843617D01*
X156166189Y-107844982D01*
X156133817Y-107844982D01*
X156121569Y-107843369D01*
X156064805Y-107835896D01*
X156054468Y-107834087D01*
X156049987Y-107833106D01*
X156049985Y-107833106D01*
X156047690Y-107833140D01*
X156025529Y-107831486D01*
X156019976Y-107830565D01*
X156007317Y-107828467D01*
X155968247Y-107824870D01*
X155963278Y-107824413D01*
X155963277Y-107824413D01*
X155852540Y-107842901D01*
X155852538Y-107842902D01*
X155786926Y-107866869D01*
X155786907Y-107866878D01*
X155767489Y-107877310D01*
X155749770Y-107885112D01*
X155727667Y-107892848D01*
X155727665Y-107892849D01*
X155723950Y-107894148D01*
X155723941Y-107894152D01*
X155712827Y-107898041D01*
X155671872Y-107905000D01*
X155388131Y-107905000D01*
X155347161Y-107898036D01*
X155343833Y-107896871D01*
X155311175Y-107879609D01*
X155308500Y-107877635D01*
X155282359Y-107851495D01*
X155271891Y-107837312D01*
X155247922Y-107771684D01*
X155247664Y-107763682D01*
X155247664Y-107429098D01*
X155247465Y-107418052D01*
X155247141Y-107409098D01*
X155246811Y-107407444D01*
X155227979Y-107313108D01*
X155203501Y-107247666D01*
X155176275Y-107192539D01*
X155100214Y-107109959D01*
X155086907Y-107100016D01*
X155044983Y-107044124D01*
X155039933Y-106974437D01*
X155042081Y-106965971D01*
X155043968Y-106959495D01*
X155043972Y-106959487D01*
X155050500Y-106909901D01*
X155050499Y-106490100D01*
X155050381Y-106489206D01*
X155043668Y-106438205D01*
X155054435Y-106369170D01*
X155100815Y-106316915D01*
X155168085Y-106298031D01*
X155180890Y-106298847D01*
G37*
G04 #@! TD.AperFunction*
G04 #@! TA.AperFunction,Conductor*
G36*
X167148485Y-107512430D02*
G01*
X167086947Y-107521278D01*
X167019918Y-107540960D01*
X167019909Y-107540963D01*
X166889039Y-107600731D01*
X166889031Y-107600736D01*
X166780301Y-107694952D01*
X166734546Y-107747757D01*
X166734544Y-107747761D01*
X166656765Y-107868787D01*
X166656760Y-107868797D01*
X166647800Y-107888416D01*
X166647800Y-107600800D01*
X166747800Y-107500800D01*
X167229371Y-107500800D01*
X167148485Y-107512430D01*
G37*
G04 #@! TD.AperFunction*
G04 #@! TA.AperFunction,Conductor*
G36*
X163447800Y-107600800D02*
G01*
X163447800Y-107875395D01*
X163446707Y-107873433D01*
X163446123Y-107870949D01*
X163446395Y-107865973D01*
X163437017Y-107833075D01*
X163437003Y-107833022D01*
X163435264Y-107826926D01*
X163435255Y-107826893D01*
X163425678Y-107793296D01*
X163425540Y-107792842D01*
X163424034Y-107787564D01*
X163422914Y-107784898D01*
X163419939Y-107775642D01*
X163363260Y-107678729D01*
X163317505Y-107625925D01*
X163317503Y-107625923D01*
X163317493Y-107625912D01*
X163272777Y-107583751D01*
X163272774Y-107583749D01*
X163272772Y-107583747D01*
X163172696Y-107532861D01*
X163172695Y-107532860D01*
X163172694Y-107532860D01*
X163105663Y-107513177D01*
X163105657Y-107513176D01*
X163019585Y-107500800D01*
X163347800Y-107500800D01*
X163447800Y-107600800D01*
G37*
G04 #@! TD.AperFunction*
G04 #@! TA.AperFunction,Conductor*
G36*
X168273294Y-106037989D02*
G01*
X168284500Y-106089500D01*
X168284500Y-106325188D01*
X168284500Y-106430812D01*
X168324920Y-106528394D01*
X168324921Y-106528395D01*
X168560990Y-106764464D01*
X168594475Y-106825787D01*
X168596047Y-106869789D01*
X168594867Y-106878000D01*
X168599454Y-106909901D01*
X168613302Y-107006222D01*
X168613302Y-107006224D01*
X168617041Y-107014410D01*
X168626984Y-107083569D01*
X168597958Y-107147124D01*
X168591930Y-107153599D01*
X168585936Y-107159593D01*
X168535931Y-107266828D01*
X168529500Y-107315683D01*
X168529500Y-107402929D01*
X168509815Y-107469968D01*
X168457011Y-107515723D01*
X168387853Y-107525667D01*
X168370571Y-107521908D01*
X168368421Y-107521276D01*
X168257403Y-107505315D01*
X168226000Y-107500800D01*
X168247800Y-107500800D01*
X168247800Y-106008567D01*
X168273294Y-106037989D01*
G37*
G04 #@! TD.AperFunction*
G04 #@! TA.AperFunction,Conductor*
G36*
X161747800Y-107291497D02*
G01*
X161746477Y-107266827D01*
X161746049Y-107258839D01*
X161743215Y-107232481D01*
X161742380Y-107225476D01*
X161727990Y-107181313D01*
X161707599Y-107118734D01*
X161707595Y-107118724D01*
X161674110Y-107057402D01*
X161622010Y-106987806D01*
X161622005Y-106987801D01*
X161622002Y-106987796D01*
X161621998Y-106987792D01*
X161621992Y-106987785D01*
X161586819Y-106952612D01*
X161553334Y-106891289D01*
X161550500Y-106864931D01*
X161550500Y-106175933D01*
X161570185Y-106108894D01*
X161586819Y-106088252D01*
X161747752Y-105927319D01*
X161747800Y-105927292D01*
X161747800Y-107291497D01*
G37*
G04 #@! TD.AperFunction*
G04 #@! TA.AperFunction,Conductor*
G36*
X151488039Y-102924685D02*
G01*
X151533794Y-102977489D01*
X151545000Y-103029000D01*
X151545000Y-104190212D01*
X151544866Y-104192086D01*
X151544867Y-104207944D01*
X151545000Y-104209792D01*
X151545000Y-106110710D01*
X151544850Y-106116800D01*
X151544557Y-106122760D01*
X151544310Y-106132833D01*
X151544309Y-106132871D01*
X151544309Y-106278225D01*
X151549006Y-106321904D01*
X151560206Y-106373392D01*
X151562151Y-106381351D01*
X151562699Y-106383591D01*
X151602151Y-106457627D01*
X151605710Y-106464304D01*
X151608718Y-106468684D01*
X151630445Y-106535089D01*
X151619298Y-106590393D01*
X151601802Y-106628705D01*
X151601800Y-106628709D01*
X151596323Y-106647362D01*
X151590142Y-106663934D01*
X151574013Y-106699250D01*
X151561707Y-106736221D01*
X151521856Y-106793612D01*
X151480972Y-106813172D01*
X151476783Y-106816802D01*
X151460214Y-106822981D01*
X151437295Y-106829709D01*
X151437293Y-106829711D01*
X151402330Y-106839977D01*
X151367395Y-106845000D01*
X151332602Y-106845000D01*
X151297668Y-106839977D01*
X151239818Y-106822991D01*
X151233841Y-106819150D01*
X151210737Y-106814124D01*
X151202165Y-106811936D01*
X151190924Y-106808635D01*
X151174901Y-106806328D01*
X151159834Y-106803050D01*
X151151395Y-106801215D01*
X151107713Y-106796519D01*
X150879238Y-106796519D01*
X150812199Y-106776834D01*
X150766444Y-106724030D01*
X150755238Y-106672519D01*
X150755238Y-106426027D01*
X150755237Y-106426011D01*
X150753673Y-106411467D01*
X150750541Y-106382335D01*
X150746635Y-106364383D01*
X150739340Y-106330844D01*
X150739086Y-106329808D01*
X150736848Y-106320646D01*
X150693838Y-106239934D01*
X150655063Y-106195185D01*
X150648077Y-106187123D01*
X150630495Y-106169179D01*
X150630494Y-106169178D01*
X150630492Y-106169176D01*
X150630490Y-106169175D01*
X150630488Y-106169173D01*
X150550678Y-106124530D01*
X150550673Y-106124528D01*
X150483641Y-106104845D01*
X150483637Y-106104844D01*
X150483636Y-106104844D01*
X150425738Y-106096519D01*
X150425734Y-106096519D01*
X148479000Y-106096519D01*
X148411961Y-106076834D01*
X148366206Y-106024030D01*
X148355000Y-105972519D01*
X148355000Y-105481726D01*
X148354999Y-105481710D01*
X148350303Y-105438034D01*
X148344059Y-105409332D01*
X148339102Y-105386543D01*
X148338848Y-105385507D01*
X148336610Y-105376345D01*
X148302849Y-105312991D01*
X148288695Y-105244571D01*
X148304060Y-105194146D01*
X148326990Y-105153155D01*
X148346675Y-105086116D01*
X148355000Y-105028218D01*
X148355000Y-104909792D01*
X148355132Y-104907944D01*
X148355133Y-104892086D01*
X148355000Y-104890212D01*
X148355000Y-103029000D01*
X148374685Y-102961961D01*
X148427489Y-102916206D01*
X148479000Y-102905000D01*
X151421000Y-102905000D01*
X151488039Y-102924685D01*
G37*
G04 #@! TD.AperFunction*
G04 #@! TA.AperFunction,Conductor*
G36*
X164580702Y-105683813D02*
G01*
X164612293Y-105726014D01*
X164613302Y-105728225D01*
X164613303Y-105728226D01*
X164667118Y-105846063D01*
X164694213Y-105877333D01*
X164723238Y-105940888D01*
X164724500Y-105958535D01*
X164724500Y-106488398D01*
X164739760Y-106565118D01*
X164739761Y-106565120D01*
X164763402Y-106600500D01*
X164797888Y-106652112D01*
X164884883Y-106710240D01*
X164884886Y-106710240D01*
X164884887Y-106710241D01*
X164923241Y-106717870D01*
X164961599Y-106725500D01*
X165138400Y-106725499D01*
X165215117Y-106710240D01*
X165231107Y-106699555D01*
X165297783Y-106678676D01*
X165365164Y-106697159D01*
X165368871Y-106699541D01*
X165384880Y-106710238D01*
X165384883Y-106710240D01*
X165384887Y-106710241D01*
X165423241Y-106717870D01*
X165461599Y-106725500D01*
X165638400Y-106725499D01*
X165715117Y-106710240D01*
X165731107Y-106699555D01*
X165797783Y-106678676D01*
X165865164Y-106697159D01*
X165868871Y-106699541D01*
X165884880Y-106710238D01*
X165884883Y-106710240D01*
X165884887Y-106710241D01*
X165923241Y-106717870D01*
X165961599Y-106725500D01*
X166138400Y-106725499D01*
X166215117Y-106710240D01*
X166302112Y-106652112D01*
X166360240Y-106565117D01*
X166375500Y-106488401D01*
X166375499Y-106226335D01*
X166395183Y-106159297D01*
X166411813Y-106138660D01*
X166548656Y-106001817D01*
X166609978Y-105968334D01*
X166636336Y-105965500D01*
X168160500Y-105965500D01*
X168227539Y-105985185D01*
X168241069Y-106000800D01*
X166647800Y-106000800D01*
X166447800Y-106200800D01*
X166447800Y-106700800D01*
X166347800Y-106800800D01*
X163747800Y-106800800D01*
X163647800Y-106700800D01*
X163647800Y-106112771D01*
X163688181Y-106153152D01*
X163721666Y-106214475D01*
X163724500Y-106240833D01*
X163724500Y-106488398D01*
X163739760Y-106565118D01*
X163739761Y-106565120D01*
X163763402Y-106600500D01*
X163797888Y-106652112D01*
X163884883Y-106710240D01*
X163884886Y-106710240D01*
X163884887Y-106710241D01*
X163923241Y-106717870D01*
X163961599Y-106725500D01*
X164138400Y-106725499D01*
X164215117Y-106710240D01*
X164302112Y-106652112D01*
X164360240Y-106565117D01*
X164375500Y-106488401D01*
X164375499Y-105777525D01*
X164395183Y-105710487D01*
X164447987Y-105664732D01*
X164517146Y-105654788D01*
X164580702Y-105683813D01*
G37*
G04 #@! TD.AperFunction*
G04 #@! TA.AperFunction,Conductor*
G36*
X160716186Y-105105017D02*
G01*
X160735988Y-105107624D01*
X160735991Y-105107624D01*
X160747781Y-105109176D01*
X160779035Y-105117550D01*
X160808475Y-105129745D01*
X160836500Y-105145925D01*
X160885001Y-105183141D01*
X160885030Y-105183163D01*
X160893301Y-105189239D01*
X160895295Y-105190704D01*
X160903736Y-105196638D01*
X160931355Y-105209951D01*
X160983197Y-105256794D01*
X161001484Y-105324228D01*
X160980411Y-105390844D01*
X160965192Y-105409332D01*
X159676345Y-106698181D01*
X159615022Y-106731666D01*
X159588664Y-106734500D01*
X157272670Y-106734500D01*
X157205631Y-106714815D01*
X157178956Y-106691702D01*
X157148049Y-106656033D01*
X157141946Y-106652111D01*
X157039069Y-106585996D01*
X157039066Y-106585995D01*
X157039063Y-106585993D01*
X157021119Y-106580724D01*
X156962342Y-106542949D01*
X156933318Y-106479393D01*
X156943263Y-106410234D01*
X156968375Y-106374067D01*
X158034222Y-105308219D01*
X158095545Y-105274734D01*
X158121903Y-105271900D01*
X160253532Y-105271900D01*
X160254327Y-105271883D01*
X160266252Y-105271635D01*
X160276569Y-105271205D01*
X160374008Y-105250917D01*
X160439176Y-105225723D01*
X160514991Y-105183146D01*
X160563495Y-105145926D01*
X160591521Y-105129745D01*
X160620960Y-105117551D01*
X160652216Y-105109175D01*
X160683813Y-105105016D01*
X160716186Y-105105017D01*
G37*
G04 #@! TD.AperFunction*
G04 #@! TA.AperFunction,Conductor*
G36*
X162075013Y-105900800D02*
G01*
X161796318Y-105900800D01*
X161809075Y-105893834D01*
X161835433Y-105891000D01*
X162041638Y-105891000D01*
X162075013Y-105900800D01*
G37*
G04 #@! TD.AperFunction*
G04 #@! TA.AperFunction,Conductor*
G36*
X163408042Y-105900800D02*
G01*
X162131660Y-105900800D01*
X162143743Y-105894066D01*
X162171148Y-105891000D01*
X163374667Y-105891000D01*
X163408042Y-105900800D01*
G37*
G04 #@! TD.AperFunction*
G04 #@! TA.AperFunction,Conductor*
G36*
X160501562Y-99145185D02*
G01*
X160522204Y-99161819D01*
X161113181Y-99752796D01*
X161146666Y-99814119D01*
X161149500Y-99840477D01*
X161149500Y-100269752D01*
X161161131Y-100328229D01*
X161161132Y-100328230D01*
X161205447Y-100394552D01*
X161271769Y-100438867D01*
X161271770Y-100438868D01*
X161330247Y-100450499D01*
X161330250Y-100450500D01*
X161330252Y-100450500D01*
X162419750Y-100450500D01*
X162419751Y-100450499D01*
X162434568Y-100447552D01*
X162478229Y-100438868D01*
X162478229Y-100438867D01*
X162478231Y-100438867D01*
X162544552Y-100394552D01*
X162588867Y-100328231D01*
X162588867Y-100328229D01*
X162588868Y-100328229D01*
X162589449Y-100325309D01*
X162592470Y-100319532D01*
X162593542Y-100316946D01*
X162593773Y-100317041D01*
X162621834Y-100263398D01*
X162682549Y-100228824D01*
X162711066Y-100225500D01*
X163785500Y-100225500D01*
X163852539Y-100245185D01*
X163898294Y-100297989D01*
X163909500Y-100349500D01*
X163909500Y-102147219D01*
X163889815Y-102214258D01*
X163879214Y-102228421D01*
X163792118Y-102328937D01*
X163792117Y-102328938D01*
X163738302Y-102446774D01*
X163719867Y-102575000D01*
X163738302Y-102703226D01*
X163738303Y-102703227D01*
X163795006Y-102827389D01*
X163804950Y-102896547D01*
X163775925Y-102960103D01*
X163717147Y-102997877D01*
X163682212Y-103002900D01*
X160975983Y-103002900D01*
X160946736Y-103004992D01*
X160911797Y-103010015D01*
X160883165Y-103016244D01*
X160883152Y-103016247D01*
X160807929Y-103038331D01*
X160807888Y-103038345D01*
X160802330Y-103039977D01*
X160767395Y-103045000D01*
X160732604Y-103045000D01*
X160697672Y-103039978D01*
X160616844Y-103016246D01*
X160588197Y-103010015D01*
X160588192Y-103010014D01*
X160588191Y-103010014D01*
X160553263Y-103004992D01*
X160524017Y-103002900D01*
X160524016Y-103002900D01*
X157254050Y-103002900D01*
X157233912Y-103004054D01*
X157230555Y-103004247D01*
X157202392Y-103007488D01*
X157124727Y-103032765D01*
X157124716Y-103032769D01*
X157063907Y-103067161D01*
X157017610Y-103102908D01*
X157017608Y-103102910D01*
X156129670Y-104017753D01*
X156125649Y-104022016D01*
X156120966Y-104027122D01*
X156120962Y-104027129D01*
X156085494Y-104080645D01*
X156056477Y-104144182D01*
X156056463Y-104144215D01*
X156047441Y-104167668D01*
X156047440Y-104167672D01*
X156039987Y-104258816D01*
X156039987Y-104258817D01*
X156042180Y-104274065D01*
X156049932Y-104327980D01*
X156066411Y-104384101D01*
X156066412Y-104384104D01*
X156066414Y-104384109D01*
X156080087Y-104414050D01*
X156090030Y-104447912D01*
X156094982Y-104482354D01*
X156094982Y-104517647D01*
X156090031Y-104552084D01*
X156080087Y-104585951D01*
X156065633Y-104617600D01*
X156046552Y-104647290D01*
X156023762Y-104673591D01*
X155997090Y-104696702D01*
X155967822Y-104715512D01*
X155935715Y-104730175D01*
X155902332Y-104739977D01*
X155867399Y-104745000D01*
X155832603Y-104745000D01*
X155797670Y-104739978D01*
X155768427Y-104731392D01*
X155754210Y-104727763D01*
X155736937Y-104724005D01*
X155664001Y-104721399D01*
X155594845Y-104731343D01*
X155578914Y-104734638D01*
X155570227Y-104736436D01*
X155496499Y-104775723D01*
X155483369Y-104782721D01*
X155482384Y-104780872D01*
X155425625Y-104799442D01*
X155421834Y-104799500D01*
X155281777Y-104799500D01*
X155214738Y-104779815D01*
X155168983Y-104727011D01*
X155158604Y-104661204D01*
X155160499Y-104644873D01*
X155160500Y-104644865D01*
X155160499Y-104355136D01*
X155160497Y-104355117D01*
X155157586Y-104330012D01*
X155157585Y-104330010D01*
X155157585Y-104330009D01*
X155112206Y-104227235D01*
X155112199Y-104227228D01*
X155107303Y-104220080D01*
X155085655Y-104153649D01*
X155103358Y-104086059D01*
X155107303Y-104079920D01*
X155112198Y-104072772D01*
X155112206Y-104072765D01*
X155157585Y-103969991D01*
X155160500Y-103944865D01*
X155160499Y-103655136D01*
X155160497Y-103655117D01*
X155157586Y-103630012D01*
X155157585Y-103630010D01*
X155157585Y-103630009D01*
X155112206Y-103527235D01*
X155032765Y-103447794D01*
X155009173Y-103437377D01*
X154921458Y-103398647D01*
X154922675Y-103395888D01*
X154876389Y-103367433D01*
X154846100Y-103304469D01*
X154854660Y-103235126D01*
X154880780Y-103196693D01*
X155021255Y-103056219D01*
X155325655Y-102751819D01*
X155386978Y-102718334D01*
X155413336Y-102715500D01*
X158678081Y-102715500D01*
X158678082Y-102715500D01*
X158775664Y-102675080D01*
X159575080Y-101875664D01*
X159615500Y-101778082D01*
X159615500Y-101672458D01*
X159615500Y-101672457D01*
X159615500Y-101029589D01*
X159603407Y-101000394D01*
X159594225Y-100978226D01*
X159575082Y-100932008D01*
X159205254Y-100562180D01*
X159171769Y-100500857D01*
X159176753Y-100431165D01*
X159218625Y-100375232D01*
X159284089Y-100350815D01*
X159292930Y-100350499D01*
X159354864Y-100350499D01*
X159354879Y-100350497D01*
X159354882Y-100350497D01*
X159379987Y-100347586D01*
X159379988Y-100347585D01*
X159379991Y-100347585D01*
X159482765Y-100302206D01*
X159562206Y-100222765D01*
X159607585Y-100119991D01*
X159610500Y-100094865D01*
X159610499Y-99805136D01*
X159610497Y-99805117D01*
X159607586Y-99780012D01*
X159607585Y-99780010D01*
X159607585Y-99780009D01*
X159562206Y-99677235D01*
X159482765Y-99597794D01*
X159481687Y-99597318D01*
X159379992Y-99552415D01*
X159354865Y-99549500D01*
X159005143Y-99549500D01*
X159005117Y-99549502D01*
X158980012Y-99552413D01*
X158980011Y-99552414D01*
X158910042Y-99583308D01*
X158840764Y-99592379D01*
X158777579Y-99562555D01*
X158740549Y-99503305D01*
X158741430Y-99433441D01*
X158767956Y-99389369D01*
X158767843Y-99389290D01*
X158768994Y-99387645D01*
X158772276Y-99382192D01*
X158774065Y-99380404D01*
X158795705Y-99333996D01*
X158841878Y-99281558D01*
X158860633Y-99271841D01*
X158953058Y-99233557D01*
X159024796Y-99161819D01*
X159086119Y-99128334D01*
X159112477Y-99125500D01*
X160434523Y-99125500D01*
X160501562Y-99145185D01*
G37*
G04 #@! TD.AperFunction*
G04 #@! TA.AperFunction,Conductor*
G36*
X165255973Y-100245185D02*
G01*
X165301728Y-100297989D01*
X165310551Y-100325309D01*
X165311131Y-100328229D01*
X165311132Y-100328230D01*
X165355447Y-100394552D01*
X165421769Y-100438867D01*
X165421770Y-100438868D01*
X165480247Y-100450499D01*
X165480250Y-100450500D01*
X166344242Y-100450500D01*
X166411281Y-100470185D01*
X166457036Y-100522989D01*
X166466980Y-100592147D01*
X166457036Y-100626011D01*
X166413303Y-100721772D01*
X166413302Y-100721773D01*
X166394867Y-100850000D01*
X166413302Y-100978225D01*
X166461331Y-101083391D01*
X166467118Y-101096063D01*
X166544214Y-101185038D01*
X166573238Y-101248591D01*
X166574500Y-101266238D01*
X166574500Y-101406800D01*
X166598324Y-101464316D01*
X166610596Y-101493941D01*
X166610595Y-101493941D01*
X166616441Y-101508055D01*
X166616444Y-101508059D01*
X167651942Y-102543558D01*
X167651944Y-102543560D01*
X167717489Y-102570709D01*
X167771893Y-102614549D01*
X167782417Y-102632861D01*
X167785934Y-102640403D01*
X167785935Y-102640404D01*
X167869596Y-102724065D01*
X167976827Y-102774068D01*
X168025683Y-102780500D01*
X168025684Y-102780500D01*
X168474317Y-102780500D01*
X168490601Y-102778356D01*
X168523173Y-102774068D01*
X168630404Y-102724065D01*
X168662319Y-102692150D01*
X168723642Y-102658665D01*
X168793334Y-102663649D01*
X168837681Y-102692150D01*
X168869596Y-102724065D01*
X168976827Y-102774068D01*
X169025683Y-102780500D01*
X169025684Y-102780500D01*
X169474317Y-102780500D01*
X169490601Y-102778356D01*
X169523173Y-102774068D01*
X169630404Y-102724065D01*
X169630404Y-102724064D01*
X169640236Y-102719480D01*
X169641372Y-102721917D01*
X169692320Y-102704726D01*
X169732191Y-102709650D01*
X169752113Y-102715500D01*
X169820227Y-102735500D01*
X169820228Y-102735500D01*
X169949773Y-102735500D01*
X169949773Y-102735499D01*
X170074069Y-102699004D01*
X170183049Y-102628967D01*
X170267882Y-102531063D01*
X170321697Y-102413226D01*
X170324156Y-102396121D01*
X170353179Y-102332566D01*
X170411956Y-102294790D01*
X170481826Y-102294788D01*
X170540605Y-102332561D01*
X170558294Y-102359304D01*
X170586680Y-102417368D01*
X170598440Y-102486240D01*
X170578383Y-102540719D01*
X170560484Y-102567506D01*
X170560483Y-102567509D01*
X170544500Y-102647863D01*
X170544500Y-102852129D01*
X170544501Y-102852132D01*
X170560070Y-102930411D01*
X170560486Y-102932498D01*
X170565159Y-102943780D01*
X170563714Y-102944378D01*
X170580436Y-102997788D01*
X170564482Y-103055938D01*
X170565159Y-103056219D01*
X170562926Y-103061609D01*
X170561950Y-103065168D01*
X170560550Y-103067345D01*
X170560484Y-103067505D01*
X170544500Y-103147862D01*
X170544500Y-103249248D01*
X170524815Y-103316287D01*
X170472011Y-103362042D01*
X170462039Y-103365764D01*
X170462104Y-103365938D01*
X170457949Y-103367487D01*
X170404741Y-103391786D01*
X170404737Y-103391788D01*
X170404736Y-103391789D01*
X170367816Y-103415515D01*
X170335716Y-103430174D01*
X170313613Y-103436664D01*
X170313612Y-103436663D01*
X170313605Y-103436666D01*
X170302333Y-103439976D01*
X170267396Y-103445000D01*
X170232600Y-103445000D01*
X170197666Y-103439977D01*
X170164283Y-103430175D01*
X170132176Y-103415512D01*
X170102908Y-103396702D01*
X170076236Y-103373591D01*
X170059206Y-103353937D01*
X170053445Y-103347289D01*
X170034365Y-103317598D01*
X170016625Y-103278754D01*
X170016617Y-103278736D01*
X170009906Y-103266444D01*
X170002592Y-103253046D01*
X170002581Y-103253028D01*
X170002578Y-103253022D01*
X169983518Y-103223357D01*
X169983516Y-103223355D01*
X169983515Y-103223353D01*
X169921777Y-103161592D01*
X169876475Y-103132462D01*
X169863008Y-103123802D01*
X169809808Y-103099490D01*
X169809809Y-103099490D01*
X169655621Y-103054172D01*
X169655618Y-103054171D01*
X169655617Y-103054171D01*
X169626937Y-103047926D01*
X169591973Y-103042895D01*
X169591966Y-103042894D01*
X169591971Y-103042894D01*
X169562713Y-103040800D01*
X169562705Y-103040800D01*
X166522926Y-103040800D01*
X166490833Y-103036575D01*
X166433735Y-103021276D01*
X166431478Y-103020648D01*
X166417569Y-103016638D01*
X166413665Y-103015898D01*
X166404080Y-103013330D01*
X166399779Y-103012657D01*
X166389508Y-103009905D01*
X166389492Y-103009901D01*
X166336317Y-103002900D01*
X166336310Y-103002900D01*
X164667788Y-103002900D01*
X164600749Y-102983215D01*
X164554994Y-102930411D01*
X164545050Y-102861253D01*
X164554994Y-102827389D01*
X164604797Y-102718334D01*
X164611697Y-102703226D01*
X164630133Y-102575000D01*
X164611697Y-102446774D01*
X164557882Y-102328937D01*
X164473049Y-102231033D01*
X164470786Y-102228421D01*
X164441762Y-102164865D01*
X164440500Y-102147219D01*
X164440500Y-100349500D01*
X164460185Y-100282461D01*
X164512989Y-100236706D01*
X164564500Y-100225500D01*
X165188934Y-100225500D01*
X165255973Y-100245185D01*
G37*
G04 #@! TD.AperFunction*
G04 #@! TA.AperFunction,Conductor*
G36*
X156893334Y-99363649D02*
G01*
X156937681Y-99392150D01*
X157009596Y-99464065D01*
X157030479Y-99473803D01*
X157082917Y-99519972D01*
X157102070Y-99587166D01*
X157081855Y-99654047D01*
X157071789Y-99667384D01*
X157040119Y-99703934D01*
X157035322Y-99711399D01*
X157033743Y-99710384D01*
X156995233Y-99754821D01*
X156928203Y-99774500D01*
X156715105Y-99774500D01*
X156715097Y-99774501D01*
X156685787Y-99780330D01*
X156652542Y-99802542D01*
X156630332Y-99835785D01*
X156630329Y-99835791D01*
X156624500Y-99865098D01*
X156624500Y-99865100D01*
X156624500Y-99865101D01*
X156624500Y-100699999D01*
X156624501Y-101460500D01*
X156604816Y-101527539D01*
X156552013Y-101573294D01*
X156500501Y-101584500D01*
X155039500Y-101584500D01*
X154972461Y-101564815D01*
X154926706Y-101512011D01*
X154915500Y-101460500D01*
X154915500Y-101339500D01*
X154935185Y-101272461D01*
X154987989Y-101226706D01*
X155039500Y-101215500D01*
X155502809Y-101215500D01*
X155502811Y-101215500D01*
X155516239Y-101209937D01*
X155563691Y-101200499D01*
X155909895Y-101200499D01*
X155909898Y-101200499D01*
X155939213Y-101194669D01*
X155972457Y-101172457D01*
X155994669Y-101139213D01*
X156000500Y-101109899D01*
X156000499Y-100790102D01*
X155994669Y-100760787D01*
X155989996Y-100749504D01*
X155993551Y-100748031D01*
X155979205Y-100702208D01*
X155993047Y-100651756D01*
X155989996Y-100650493D01*
X155994666Y-100639217D01*
X155994669Y-100639213D01*
X156000500Y-100609899D01*
X156000499Y-100290102D01*
X155994669Y-100260787D01*
X155989996Y-100249504D01*
X155993551Y-100248031D01*
X155979205Y-100202208D01*
X155993047Y-100151756D01*
X155989996Y-100150493D01*
X155994665Y-100139218D01*
X155994669Y-100139213D01*
X155998323Y-100120842D01*
X156030707Y-100058934D01*
X156032200Y-100057413D01*
X156553425Y-99536189D01*
X156588695Y-99511492D01*
X156690404Y-99464065D01*
X156762319Y-99392150D01*
X156823642Y-99358665D01*
X156893334Y-99363649D01*
G37*
G04 #@! TD.AperFunction*
G04 #@! TA.AperFunction,Conductor*
G36*
X168068265Y-97526385D02*
G01*
X168114020Y-97579189D01*
X168123964Y-97648347D01*
X168094939Y-97711903D01*
X168037222Y-97749360D01*
X167965271Y-97771186D01*
X167791467Y-97864086D01*
X167791460Y-97864091D01*
X167701922Y-97937573D01*
X167637612Y-97964886D01*
X167614079Y-97960857D01*
X167615405Y-97964410D01*
X167600553Y-98032683D01*
X167587574Y-98051921D01*
X167514090Y-98141460D01*
X167514086Y-98141467D01*
X167421188Y-98315266D01*
X167363975Y-98503870D01*
X167344659Y-98700000D01*
X167363975Y-98896129D01*
X167363976Y-98896132D01*
X167410747Y-99050316D01*
X167421188Y-99084733D01*
X167514086Y-99258532D01*
X167514090Y-99258539D01*
X167639116Y-99410883D01*
X167791460Y-99535909D01*
X167791467Y-99535913D01*
X167965266Y-99628811D01*
X167965269Y-99628811D01*
X167965273Y-99628814D01*
X168140075Y-99681840D01*
X168198512Y-99720137D01*
X168226969Y-99783949D01*
X168216408Y-99853016D01*
X168170184Y-99905410D01*
X168104078Y-99924500D01*
X167554800Y-99924500D01*
X167445200Y-99924500D01*
X167445198Y-99924500D01*
X167445196Y-99924501D01*
X167343944Y-99966439D01*
X167343942Y-99966441D01*
X166962181Y-100348203D01*
X166900858Y-100381688D01*
X166831166Y-100376704D01*
X166775233Y-100334832D01*
X166750816Y-100269368D01*
X166750500Y-100260522D01*
X166750500Y-99580249D01*
X166750499Y-99580247D01*
X166738868Y-99521770D01*
X166738867Y-99521769D01*
X166694552Y-99455447D01*
X166628230Y-99411132D01*
X166628229Y-99411131D01*
X166569752Y-99399500D01*
X166569748Y-99399500D01*
X165480252Y-99399500D01*
X165480247Y-99399500D01*
X165421770Y-99411131D01*
X165421769Y-99411132D01*
X165355447Y-99455447D01*
X165311132Y-99521769D01*
X165311131Y-99521770D01*
X165310551Y-99524691D01*
X165307529Y-99530467D01*
X165306458Y-99533054D01*
X165306226Y-99532958D01*
X165278166Y-99586602D01*
X165217451Y-99621176D01*
X165188934Y-99624500D01*
X162711066Y-99624500D01*
X162644027Y-99604815D01*
X162598272Y-99552011D01*
X162589449Y-99524691D01*
X162588868Y-99521770D01*
X162588867Y-99521769D01*
X162544552Y-99455447D01*
X162478230Y-99411132D01*
X162478229Y-99411131D01*
X162419752Y-99399500D01*
X162419748Y-99399500D01*
X161590478Y-99399500D01*
X161523439Y-99379815D01*
X161502797Y-99363181D01*
X161290063Y-99150447D01*
X161076795Y-98937180D01*
X161043311Y-98875858D01*
X161048295Y-98806167D01*
X161090166Y-98750233D01*
X161155631Y-98725816D01*
X161164477Y-98725500D01*
X166504799Y-98725500D01*
X166504800Y-98725500D01*
X166606058Y-98683557D01*
X166683557Y-98606058D01*
X166683556Y-98606058D01*
X166742125Y-98547489D01*
X167404040Y-97885574D01*
X167465363Y-97852090D01*
X167503650Y-97854828D01*
X167499301Y-97838400D01*
X167520774Y-97771912D01*
X167535573Y-97754042D01*
X167746597Y-97543019D01*
X167807920Y-97509534D01*
X167834278Y-97506700D01*
X168001226Y-97506700D01*
X168068265Y-97526385D01*
G37*
G04 #@! TD.AperFunction*
G04 #@! TA.AperFunction,Conductor*
G36*
X154236269Y-98745185D02*
G01*
X154282024Y-98797989D01*
X154291968Y-98867147D01*
X154272867Y-99000000D01*
X154272867Y-99000001D01*
X154276962Y-99028487D01*
X154267017Y-99097646D01*
X154221264Y-99150447D01*
X154197824Y-99165511D01*
X154165717Y-99180174D01*
X154121335Y-99193205D01*
X154104111Y-99196674D01*
X154104149Y-99196928D01*
X154065526Y-99202716D01*
X153982834Y-99234402D01*
X153982828Y-99234406D01*
X153924498Y-99272881D01*
X153904404Y-99287975D01*
X153849725Y-99361281D01*
X153849723Y-99361285D01*
X153821461Y-99425174D01*
X153821457Y-99425186D01*
X153804454Y-99485755D01*
X153804066Y-99485646D01*
X153796912Y-99507271D01*
X153791531Y-99518811D01*
X153766829Y-99554089D01*
X153764088Y-99556830D01*
X153728826Y-99581524D01*
X153724860Y-99583374D01*
X153672441Y-99594999D01*
X153262750Y-99594999D01*
X153261789Y-99595525D01*
X153245634Y-99599049D01*
X153237574Y-99600530D01*
X153191807Y-99607385D01*
X153191799Y-99607386D01*
X153191790Y-99607388D01*
X153168365Y-99612305D01*
X153168363Y-99612305D01*
X153168362Y-99612306D01*
X153087654Y-99655314D01*
X153087651Y-99655316D01*
X153034842Y-99701075D01*
X153016898Y-99718657D01*
X153016892Y-99718664D01*
X152972249Y-99798474D01*
X152972245Y-99798486D01*
X152969684Y-99807207D01*
X152931906Y-99865983D01*
X152868349Y-99895004D01*
X152829357Y-99892604D01*
X152829255Y-99893490D01*
X152819991Y-99892415D01*
X152815415Y-99891884D01*
X152794868Y-99889500D01*
X152549500Y-99889500D01*
X152482461Y-99869815D01*
X152436706Y-99817011D01*
X152425500Y-99765500D01*
X152425500Y-98865478D01*
X152445185Y-98798439D01*
X152461822Y-98777794D01*
X152477801Y-98761816D01*
X152539125Y-98728333D01*
X152565479Y-98725500D01*
X154169230Y-98725500D01*
X154236269Y-98745185D01*
G37*
G04 #@! TD.AperFunction*
G04 #@! TA.AperFunction,Conductor*
G36*
X150819005Y-94931285D02*
G01*
X150864760Y-94984089D01*
X150874704Y-95053247D01*
X150861324Y-95094053D01*
X150791188Y-95225267D01*
X150733975Y-95413870D01*
X150714659Y-95610000D01*
X150733975Y-95806129D01*
X150791187Y-95994730D01*
X150801640Y-96014285D01*
X150815882Y-96082688D01*
X150790882Y-96147932D01*
X150779963Y-96160420D01*
X149293942Y-97646443D01*
X149216444Y-97723940D01*
X149174500Y-97825199D01*
X149174500Y-99765500D01*
X149154815Y-99832539D01*
X149102011Y-99878294D01*
X149050500Y-99889500D01*
X148851500Y-99889500D01*
X148784461Y-99869815D01*
X148738706Y-99817011D01*
X148727500Y-99765500D01*
X148727500Y-97505477D01*
X148747185Y-97438438D01*
X148763819Y-97417796D01*
X149055757Y-97125858D01*
X149413557Y-96768059D01*
X149434937Y-96716442D01*
X149455500Y-96666800D01*
X149455500Y-96663911D01*
X149457280Y-96657846D01*
X149457883Y-96654819D01*
X149458153Y-96654872D01*
X149475185Y-96596872D01*
X149527989Y-96551117D01*
X149543486Y-96545257D01*
X149564727Y-96538814D01*
X149738538Y-96445910D01*
X149890883Y-96320883D01*
X150015910Y-96168538D01*
X150075958Y-96056197D01*
X150108811Y-95994733D01*
X150108812Y-95994730D01*
X150108814Y-95994727D01*
X150166024Y-95806132D01*
X150185341Y-95610000D01*
X150166024Y-95413868D01*
X150108814Y-95225273D01*
X150108811Y-95225267D01*
X150038676Y-95094053D01*
X150024434Y-95025650D01*
X150049434Y-94960407D01*
X150105739Y-94919036D01*
X150148034Y-94911600D01*
X150751966Y-94911600D01*
X150819005Y-94931285D01*
G37*
G04 #@! TD.AperFunction*
G04 #@! TA.AperFunction,Conductor*
G36*
X148279005Y-94931285D02*
G01*
X148324760Y-94984089D01*
X148334704Y-95053247D01*
X148321324Y-95094053D01*
X148251188Y-95225267D01*
X148193975Y-95413870D01*
X148174659Y-95610000D01*
X148193975Y-95806129D01*
X148251188Y-95994733D01*
X148344086Y-96168532D01*
X148344090Y-96168539D01*
X148469116Y-96320883D01*
X148621460Y-96445909D01*
X148621463Y-96445911D01*
X148638644Y-96455094D01*
X148692327Y-96483788D01*
X148742171Y-96532749D01*
X148757632Y-96600887D01*
X148733801Y-96666566D01*
X148721556Y-96680827D01*
X148639565Y-96762819D01*
X148295942Y-97106443D01*
X148218444Y-97183940D01*
X148218443Y-97183941D01*
X148218443Y-97183942D01*
X148206159Y-97213596D01*
X148176500Y-97285199D01*
X148176500Y-98937522D01*
X148156815Y-99004561D01*
X148104011Y-99050316D01*
X148034853Y-99060260D01*
X147971297Y-99031235D01*
X147964819Y-99025203D01*
X146951819Y-98012203D01*
X146918334Y-97950880D01*
X146915500Y-97924522D01*
X146915500Y-96663911D01*
X146935185Y-96596872D01*
X146987989Y-96551117D01*
X147003486Y-96545257D01*
X147024727Y-96538814D01*
X147198538Y-96445910D01*
X147350883Y-96320883D01*
X147475910Y-96168538D01*
X147535958Y-96056197D01*
X147568811Y-95994733D01*
X147568812Y-95994730D01*
X147568814Y-95994727D01*
X147626024Y-95806132D01*
X147645341Y-95610000D01*
X147626024Y-95413868D01*
X147568814Y-95225273D01*
X147568811Y-95225267D01*
X147498676Y-95094053D01*
X147484434Y-95025650D01*
X147509434Y-94960407D01*
X147565739Y-94919036D01*
X147608034Y-94911600D01*
X148211966Y-94911600D01*
X148279005Y-94931285D01*
G37*
G04 #@! TD.AperFunction*
G04 #@! TA.AperFunction,Conductor*
G36*
X133039005Y-94931285D02*
G01*
X133084760Y-94984089D01*
X133094704Y-95053247D01*
X133081324Y-95094053D01*
X133011188Y-95225267D01*
X132953975Y-95413870D01*
X132934659Y-95610000D01*
X132953975Y-95806129D01*
X133011188Y-95994733D01*
X133104086Y-96168532D01*
X133104090Y-96168539D01*
X133229116Y-96320883D01*
X133381460Y-96445909D01*
X133381467Y-96445913D01*
X133555266Y-96538811D01*
X133555269Y-96538811D01*
X133555273Y-96538814D01*
X133743868Y-96596024D01*
X133940000Y-96615341D01*
X134136132Y-96596024D01*
X134324727Y-96538814D01*
X134344285Y-96528360D01*
X134412687Y-96514117D01*
X134477932Y-96539116D01*
X134490421Y-96550036D01*
X135953203Y-98012819D01*
X135986688Y-98074142D01*
X135981704Y-98143834D01*
X135939832Y-98199767D01*
X135874368Y-98224184D01*
X135865522Y-98224500D01*
X131152078Y-98224500D01*
X131085039Y-98204815D01*
X131064397Y-98188181D01*
X130294012Y-97417796D01*
X129462323Y-96586108D01*
X129428839Y-96524786D01*
X129433823Y-96455094D01*
X129471338Y-96402577D01*
X129570883Y-96320883D01*
X129695910Y-96168538D01*
X129755958Y-96056197D01*
X129788811Y-95994733D01*
X129788812Y-95994730D01*
X129788814Y-95994727D01*
X129846024Y-95806132D01*
X129865341Y-95610000D01*
X129846024Y-95413868D01*
X129788814Y-95225273D01*
X129788811Y-95225267D01*
X129718676Y-95094053D01*
X129704434Y-95025650D01*
X129729434Y-94960407D01*
X129785739Y-94919036D01*
X129828034Y-94911600D01*
X132971966Y-94911600D01*
X133039005Y-94931285D01*
G37*
G04 #@! TD.AperFunction*
G04 #@! TA.AperFunction,Conductor*
G36*
X145739005Y-94931285D02*
G01*
X145784760Y-94984089D01*
X145794704Y-95053247D01*
X145781324Y-95094053D01*
X145711188Y-95225267D01*
X145653975Y-95413870D01*
X145634659Y-95610000D01*
X145653975Y-95806129D01*
X145711188Y-95994733D01*
X145804086Y-96168532D01*
X145804090Y-96168539D01*
X145929116Y-96320883D01*
X146081460Y-96445909D01*
X146081467Y-96445913D01*
X146255265Y-96538810D01*
X146255266Y-96538810D01*
X146255273Y-96538814D01*
X146276496Y-96545251D01*
X146334932Y-96583545D01*
X146363390Y-96647357D01*
X146364500Y-96663911D01*
X146364500Y-97775523D01*
X146344815Y-97842562D01*
X146292011Y-97888317D01*
X146222853Y-97898261D01*
X146159297Y-97869236D01*
X146152819Y-97863204D01*
X144956059Y-96666444D01*
X144956058Y-96666443D01*
X144854800Y-96624500D01*
X143015478Y-96624500D01*
X142948439Y-96604815D01*
X142927797Y-96588181D01*
X142500036Y-96160420D01*
X142466551Y-96099097D01*
X142471535Y-96029405D01*
X142478361Y-96014282D01*
X142488814Y-95994727D01*
X142546024Y-95806132D01*
X142565341Y-95610000D01*
X142546024Y-95413868D01*
X142488814Y-95225273D01*
X142488811Y-95225267D01*
X142418676Y-95094053D01*
X142404434Y-95025650D01*
X142429434Y-94960407D01*
X142485739Y-94919036D01*
X142528034Y-94911600D01*
X145671966Y-94911600D01*
X145739005Y-94931285D01*
G37*
G04 #@! TD.AperFunction*
G04 #@! TA.AperFunction,Conductor*
G36*
X166540593Y-96521535D02*
G01*
X166555712Y-96528359D01*
X166575267Y-96538811D01*
X166575273Y-96538814D01*
X166763868Y-96596024D01*
X166960000Y-96615341D01*
X167042224Y-96607242D01*
X167110867Y-96620260D01*
X167161578Y-96668325D01*
X167178253Y-96736176D01*
X167155598Y-96802270D01*
X167142057Y-96818326D01*
X166122204Y-97838181D01*
X166060881Y-97871666D01*
X166034523Y-97874500D01*
X165384477Y-97874500D01*
X165317438Y-97854815D01*
X165271683Y-97802011D01*
X165261739Y-97732853D01*
X165290764Y-97669297D01*
X165296796Y-97662819D01*
X165853172Y-97106443D01*
X166409580Y-96550034D01*
X166470901Y-96516551D01*
X166540593Y-96521535D01*
G37*
G04 #@! TD.AperFunction*
G04 #@! TA.AperFunction,Conductor*
G36*
X135579005Y-94931285D02*
G01*
X135624760Y-94984089D01*
X135634704Y-95053247D01*
X135621324Y-95094053D01*
X135551188Y-95225267D01*
X135493975Y-95413870D01*
X135474659Y-95610000D01*
X135493975Y-95806129D01*
X135551188Y-95994733D01*
X135644086Y-96168532D01*
X135644090Y-96168539D01*
X135769116Y-96320883D01*
X135921460Y-96445909D01*
X135921467Y-96445913D01*
X136095266Y-96538811D01*
X136095269Y-96538811D01*
X136095273Y-96538814D01*
X136283868Y-96596024D01*
X136480000Y-96615341D01*
X136676132Y-96596024D01*
X136864727Y-96538814D01*
X136884285Y-96528360D01*
X136952687Y-96514117D01*
X137017932Y-96539116D01*
X137030421Y-96550036D01*
X138043203Y-97562819D01*
X138076688Y-97624142D01*
X138071704Y-97693834D01*
X138029832Y-97749767D01*
X137964368Y-97774184D01*
X137955522Y-97774500D01*
X136545478Y-97774500D01*
X136478439Y-97754815D01*
X136457797Y-97738181D01*
X135669383Y-96949767D01*
X134880035Y-96160420D01*
X134846551Y-96099098D01*
X134851535Y-96029406D01*
X134858360Y-96014285D01*
X134859830Y-96011534D01*
X134868814Y-95994727D01*
X134926024Y-95806132D01*
X134945341Y-95610000D01*
X134926024Y-95413868D01*
X134868814Y-95225273D01*
X134868811Y-95225267D01*
X134798676Y-95094053D01*
X134784434Y-95025650D01*
X134809434Y-94960407D01*
X134865739Y-94919036D01*
X134908034Y-94911600D01*
X135511966Y-94911600D01*
X135579005Y-94931285D01*
G37*
G04 #@! TD.AperFunction*
G04 #@! TA.AperFunction,Conductor*
G36*
X173679005Y-94931285D02*
G01*
X173724760Y-94984089D01*
X173734704Y-95053247D01*
X173721324Y-95094053D01*
X173651188Y-95225267D01*
X173593975Y-95413870D01*
X173574659Y-95610000D01*
X173593975Y-95806129D01*
X173651187Y-95994730D01*
X173661640Y-96014285D01*
X173675882Y-96082688D01*
X173650882Y-96147932D01*
X173639963Y-96160420D01*
X173245675Y-96554709D01*
X172450618Y-97349767D01*
X172068204Y-97732181D01*
X172006881Y-97765666D01*
X171980523Y-97768500D01*
X169710478Y-97768500D01*
X169643439Y-97748815D01*
X169622797Y-97732181D01*
X169392627Y-97502011D01*
X169077795Y-97187180D01*
X169044311Y-97125858D01*
X169049295Y-97056167D01*
X169091166Y-97000233D01*
X169156631Y-96975816D01*
X169165477Y-96975500D01*
X170511999Y-96975500D01*
X170512000Y-96975500D01*
X170613258Y-96933557D01*
X170690757Y-96856058D01*
X170690756Y-96856058D01*
X170749325Y-96797489D01*
X171192974Y-96353839D01*
X171254296Y-96320356D01*
X171323988Y-96325340D01*
X171359317Y-96345668D01*
X171369276Y-96353841D01*
X171481460Y-96445909D01*
X171481467Y-96445913D01*
X171655266Y-96538811D01*
X171655269Y-96538811D01*
X171655273Y-96538814D01*
X171843868Y-96596024D01*
X172040000Y-96615341D01*
X172236132Y-96596024D01*
X172424727Y-96538814D01*
X172424735Y-96538810D01*
X172598532Y-96445913D01*
X172598536Y-96445911D01*
X172598538Y-96445910D01*
X172750883Y-96320883D01*
X172875910Y-96168538D01*
X172935958Y-96056197D01*
X172968811Y-95994733D01*
X172968812Y-95994730D01*
X172968814Y-95994727D01*
X173026024Y-95806132D01*
X173045341Y-95610000D01*
X173026024Y-95413868D01*
X172968814Y-95225273D01*
X172968811Y-95225267D01*
X172898676Y-95094053D01*
X172884434Y-95025650D01*
X172909434Y-94960407D01*
X172965739Y-94919036D01*
X173008034Y-94911600D01*
X173611966Y-94911600D01*
X173679005Y-94931285D01*
G37*
G04 #@! TD.AperFunction*
G04 #@! TA.AperFunction,Conductor*
G36*
X166059005Y-94931285D02*
G01*
X166104760Y-94984089D01*
X166114704Y-95053247D01*
X166101324Y-95094053D01*
X166031188Y-95225267D01*
X165973975Y-95413870D01*
X165954659Y-95610000D01*
X165973975Y-95806129D01*
X166031187Y-95994730D01*
X166041640Y-96014285D01*
X166055882Y-96082688D01*
X166030882Y-96147932D01*
X166019963Y-96160420D01*
X165666268Y-96514116D01*
X164978374Y-97202011D01*
X164642204Y-97538181D01*
X164580881Y-97571666D01*
X164554523Y-97574500D01*
X163144477Y-97574500D01*
X163077438Y-97554815D01*
X163031683Y-97502011D01*
X163021739Y-97432853D01*
X163050764Y-97369297D01*
X163056796Y-97362819D01*
X163447949Y-96971666D01*
X163869580Y-96550034D01*
X163930901Y-96516551D01*
X164000592Y-96521535D01*
X164015712Y-96528359D01*
X164035267Y-96538811D01*
X164035273Y-96538814D01*
X164223868Y-96596024D01*
X164420000Y-96615341D01*
X164616132Y-96596024D01*
X164804727Y-96538814D01*
X164804735Y-96538810D01*
X164978532Y-96445913D01*
X164978536Y-96445911D01*
X164978538Y-96445910D01*
X165130883Y-96320883D01*
X165255910Y-96168538D01*
X165315958Y-96056197D01*
X165348811Y-95994733D01*
X165348812Y-95994730D01*
X165348814Y-95994727D01*
X165406024Y-95806132D01*
X165425341Y-95610000D01*
X165406024Y-95413868D01*
X165348814Y-95225273D01*
X165348811Y-95225267D01*
X165278676Y-95094053D01*
X165264434Y-95025650D01*
X165289434Y-94960407D01*
X165345739Y-94919036D01*
X165388034Y-94911600D01*
X165991966Y-94911600D01*
X166059005Y-94931285D01*
G37*
G04 #@! TD.AperFunction*
G04 #@! TA.AperFunction,Conductor*
G36*
X138119005Y-94931285D02*
G01*
X138164760Y-94984089D01*
X138174704Y-95053247D01*
X138161324Y-95094053D01*
X138091188Y-95225267D01*
X138033975Y-95413870D01*
X138014659Y-95610000D01*
X138033975Y-95806129D01*
X138091188Y-95994733D01*
X138184086Y-96168532D01*
X138184090Y-96168539D01*
X138309116Y-96320883D01*
X138461460Y-96445909D01*
X138461467Y-96445913D01*
X138635266Y-96538811D01*
X138635269Y-96538811D01*
X138635273Y-96538814D01*
X138823868Y-96596024D01*
X139020000Y-96615341D01*
X139216132Y-96596024D01*
X139404727Y-96538814D01*
X139424283Y-96528360D01*
X139492684Y-96514116D01*
X139557929Y-96539114D01*
X139570420Y-96550036D01*
X140183203Y-97162819D01*
X140216688Y-97224142D01*
X140211704Y-97293834D01*
X140169832Y-97349767D01*
X140104368Y-97374184D01*
X140095522Y-97374500D01*
X138685478Y-97374500D01*
X138618439Y-97354815D01*
X138597797Y-97338181D01*
X138022435Y-96762819D01*
X137420035Y-96160420D01*
X137386551Y-96099098D01*
X137391535Y-96029406D01*
X137398360Y-96014285D01*
X137399830Y-96011534D01*
X137408814Y-95994727D01*
X137466024Y-95806132D01*
X137485341Y-95610000D01*
X137466024Y-95413868D01*
X137408814Y-95225273D01*
X137408811Y-95225267D01*
X137338676Y-95094053D01*
X137324434Y-95025650D01*
X137349434Y-94960407D01*
X137405739Y-94919036D01*
X137448034Y-94911600D01*
X138051966Y-94911600D01*
X138119005Y-94931285D01*
G37*
G04 #@! TD.AperFunction*
G04 #@! TA.AperFunction,Conductor*
G36*
X163519005Y-94931285D02*
G01*
X163564760Y-94984089D01*
X163574704Y-95053247D01*
X163561324Y-95094053D01*
X163491188Y-95225267D01*
X163433975Y-95413870D01*
X163414659Y-95610000D01*
X163433975Y-95806129D01*
X163491187Y-95994730D01*
X163501640Y-96014285D01*
X163515882Y-96082688D01*
X163490882Y-96147932D01*
X163479963Y-96160420D01*
X163194475Y-96445909D01*
X162664569Y-96975816D01*
X162402204Y-97238181D01*
X162340881Y-97271666D01*
X162314523Y-97274500D01*
X160904477Y-97274500D01*
X160837438Y-97254815D01*
X160791683Y-97202011D01*
X160781739Y-97132853D01*
X160810764Y-97069297D01*
X160816796Y-97062819D01*
X161061289Y-96818326D01*
X161329580Y-96550034D01*
X161390901Y-96516551D01*
X161460592Y-96521535D01*
X161475712Y-96528359D01*
X161495267Y-96538811D01*
X161495273Y-96538814D01*
X161683868Y-96596024D01*
X161880000Y-96615341D01*
X162076132Y-96596024D01*
X162264727Y-96538814D01*
X162264735Y-96538810D01*
X162438532Y-96445913D01*
X162438536Y-96445911D01*
X162438538Y-96445910D01*
X162590883Y-96320883D01*
X162715910Y-96168538D01*
X162775958Y-96056197D01*
X162808811Y-95994733D01*
X162808812Y-95994730D01*
X162808814Y-95994727D01*
X162866024Y-95806132D01*
X162885341Y-95610000D01*
X162866024Y-95413868D01*
X162808814Y-95225273D01*
X162808811Y-95225267D01*
X162738676Y-95094053D01*
X162724434Y-95025650D01*
X162749434Y-94960407D01*
X162805739Y-94919036D01*
X162848034Y-94911600D01*
X163451966Y-94911600D01*
X163519005Y-94931285D01*
G37*
G04 #@! TD.AperFunction*
G04 #@! TA.AperFunction,Conductor*
G36*
X140659005Y-94931285D02*
G01*
X140704760Y-94984089D01*
X140714704Y-95053247D01*
X140701324Y-95094053D01*
X140631188Y-95225267D01*
X140573975Y-95413870D01*
X140554659Y-95610000D01*
X140573975Y-95806129D01*
X140631188Y-95994733D01*
X140724086Y-96168532D01*
X140724090Y-96168539D01*
X140849116Y-96320883D01*
X141001460Y-96445909D01*
X141001467Y-96445913D01*
X141175266Y-96538811D01*
X141175269Y-96538811D01*
X141175273Y-96538814D01*
X141363868Y-96596024D01*
X141560000Y-96615341D01*
X141756132Y-96596024D01*
X141944727Y-96538814D01*
X141964283Y-96528360D01*
X142032684Y-96514116D01*
X142097929Y-96539114D01*
X142110420Y-96550036D01*
X142323203Y-96762819D01*
X142356688Y-96824142D01*
X142351704Y-96893834D01*
X142309832Y-96949767D01*
X142244368Y-96974184D01*
X142235522Y-96974500D01*
X140825478Y-96974500D01*
X140758439Y-96954815D01*
X140737797Y-96938181D01*
X139960036Y-96160420D01*
X139926551Y-96099097D01*
X139931535Y-96029405D01*
X139938361Y-96014282D01*
X139948814Y-95994727D01*
X140006024Y-95806132D01*
X140025341Y-95610000D01*
X140006024Y-95413868D01*
X139948814Y-95225273D01*
X139948811Y-95225267D01*
X139878676Y-95094053D01*
X139864434Y-95025650D01*
X139889434Y-94960407D01*
X139945739Y-94919036D01*
X139988034Y-94911600D01*
X140591966Y-94911600D01*
X140659005Y-94931285D01*
G37*
G04 #@! TD.AperFunction*
G04 #@! TA.AperFunction,Conductor*
G36*
X160979005Y-94931285D02*
G01*
X161024760Y-94984089D01*
X161034704Y-95053247D01*
X161021324Y-95094053D01*
X160951188Y-95225267D01*
X160893975Y-95413870D01*
X160874659Y-95610000D01*
X160893975Y-95806129D01*
X160951187Y-95994730D01*
X160961640Y-96014285D01*
X160975882Y-96082688D01*
X160950882Y-96147932D01*
X160939963Y-96160420D01*
X160162204Y-96938181D01*
X160100881Y-96971666D01*
X160074523Y-96974500D01*
X158664477Y-96974500D01*
X158597438Y-96954815D01*
X158551683Y-96902011D01*
X158541739Y-96832853D01*
X158570764Y-96769297D01*
X158576796Y-96762819D01*
X158681769Y-96657846D01*
X158789580Y-96550034D01*
X158850901Y-96516551D01*
X158920592Y-96521535D01*
X158935712Y-96528359D01*
X158955267Y-96538811D01*
X158955273Y-96538814D01*
X159143868Y-96596024D01*
X159340000Y-96615341D01*
X159536132Y-96596024D01*
X159724727Y-96538814D01*
X159724735Y-96538810D01*
X159898532Y-96445913D01*
X159898536Y-96445911D01*
X159898538Y-96445910D01*
X160050883Y-96320883D01*
X160175910Y-96168538D01*
X160235958Y-96056197D01*
X160268811Y-95994733D01*
X160268812Y-95994730D01*
X160268814Y-95994727D01*
X160326024Y-95806132D01*
X160345341Y-95610000D01*
X160326024Y-95413868D01*
X160268814Y-95225273D01*
X160268811Y-95225267D01*
X160198676Y-95094053D01*
X160184434Y-95025650D01*
X160209434Y-94960407D01*
X160265739Y-94919036D01*
X160308034Y-94911600D01*
X160911966Y-94911600D01*
X160979005Y-94931285D01*
G37*
G04 #@! TD.AperFunction*
G04 #@! TA.AperFunction,Conductor*
G36*
X158439005Y-94931285D02*
G01*
X158484760Y-94984089D01*
X158494704Y-95053247D01*
X158481324Y-95094053D01*
X158411188Y-95225267D01*
X158353975Y-95413870D01*
X158334659Y-95610000D01*
X158353975Y-95806129D01*
X158411187Y-95994730D01*
X158421640Y-96014285D01*
X158435882Y-96082688D01*
X158410882Y-96147932D01*
X158399963Y-96160420D01*
X158277531Y-96282853D01*
X158032024Y-96528361D01*
X157922204Y-96638181D01*
X157860881Y-96671666D01*
X157834523Y-96674500D01*
X154885203Y-96674500D01*
X154818164Y-96654815D01*
X154772409Y-96602011D01*
X154762465Y-96532853D01*
X154791490Y-96469297D01*
X154816309Y-96447400D01*
X154818537Y-96445911D01*
X154970883Y-96320883D01*
X154970884Y-96320882D01*
X155095910Y-96168538D01*
X155155958Y-96056197D01*
X155188811Y-95994733D01*
X155188812Y-95994730D01*
X155188814Y-95994727D01*
X155246024Y-95806132D01*
X155265341Y-95610000D01*
X155246024Y-95413868D01*
X155188814Y-95225273D01*
X155188811Y-95225267D01*
X155118676Y-95094053D01*
X155104434Y-95025650D01*
X155129434Y-94960407D01*
X155185739Y-94919036D01*
X155228034Y-94911600D01*
X158371966Y-94911600D01*
X158439005Y-94931285D01*
G37*
G04 #@! TD.AperFunction*
G04 #@! TA.AperFunction,Conductor*
G36*
X171139005Y-94931285D02*
G01*
X171184760Y-94984089D01*
X171194704Y-95053247D01*
X171181324Y-95094053D01*
X171111188Y-95225267D01*
X171053975Y-95413870D01*
X171034659Y-95610000D01*
X171034659Y-95610001D01*
X171039931Y-95663540D01*
X171026911Y-95732186D01*
X171004209Y-95763373D01*
X170379404Y-96388181D01*
X170318081Y-96421666D01*
X170291723Y-96424500D01*
X167848024Y-96424500D01*
X167780985Y-96404815D01*
X167735230Y-96352011D01*
X167725286Y-96282853D01*
X167752170Y-96221836D01*
X167771328Y-96198489D01*
X167795910Y-96168538D01*
X167855958Y-96056197D01*
X167888811Y-95994733D01*
X167888812Y-95994730D01*
X167888814Y-95994727D01*
X167946024Y-95806132D01*
X167965341Y-95610000D01*
X167946024Y-95413868D01*
X167888814Y-95225273D01*
X167888811Y-95225267D01*
X167818676Y-95094053D01*
X167804434Y-95025650D01*
X167829434Y-94960407D01*
X167885739Y-94919036D01*
X167928034Y-94911600D01*
X171071966Y-94911600D01*
X171139005Y-94931285D01*
G37*
G04 #@! TD.AperFunction*
G04 #@! TA.AperFunction,Conductor*
G36*
X154892777Y-98745185D02*
G01*
X154938532Y-98797989D01*
X154949738Y-98849500D01*
X154949738Y-99560500D01*
X154930053Y-99627539D01*
X154877249Y-99673294D01*
X154825738Y-99684500D01*
X154697189Y-99684500D01*
X154697188Y-99684500D01*
X154697184Y-99684501D01*
X154660975Y-99699500D01*
X154660972Y-99699502D01*
X154599606Y-99724919D01*
X153624919Y-100699606D01*
X153613348Y-100727543D01*
X153587436Y-100790102D01*
X153584500Y-100797189D01*
X153584500Y-100797190D01*
X153584500Y-101276164D01*
X153564815Y-101343203D01*
X153548181Y-101363845D01*
X153348845Y-101563181D01*
X153287522Y-101596666D01*
X153261164Y-101599500D01*
X152975326Y-101599500D01*
X152974639Y-101599636D01*
X152950450Y-101602019D01*
X152949734Y-101602019D01*
X152949063Y-101602297D01*
X152925822Y-101609346D01*
X152902261Y-101614033D01*
X152819399Y-101669399D01*
X152764033Y-101752260D01*
X152764032Y-101752264D01*
X152749500Y-101825321D01*
X152749500Y-101825326D01*
X152749500Y-101974674D01*
X152749500Y-101974676D01*
X152749499Y-101974676D01*
X152764033Y-102047740D01*
X152766025Y-102052548D01*
X152773494Y-102122017D01*
X152766025Y-102147452D01*
X152764033Y-102152259D01*
X152749500Y-102225323D01*
X152749500Y-102225326D01*
X152749500Y-102374674D01*
X152749500Y-102374676D01*
X152749499Y-102374676D01*
X152764033Y-102447740D01*
X152766025Y-102452548D01*
X152773494Y-102522017D01*
X152766025Y-102547452D01*
X152764033Y-102552259D01*
X152749500Y-102625323D01*
X152749500Y-102625326D01*
X152749500Y-102774674D01*
X152749500Y-102774676D01*
X152749499Y-102774676D01*
X152764033Y-102847740D01*
X152766025Y-102852548D01*
X152773494Y-102922017D01*
X152766025Y-102947452D01*
X152764033Y-102952259D01*
X152749500Y-103025323D01*
X152749500Y-103025326D01*
X152749500Y-103174674D01*
X152749500Y-103174676D01*
X152749499Y-103174676D01*
X152764033Y-103247740D01*
X152766025Y-103252548D01*
X152773494Y-103322017D01*
X152766025Y-103347452D01*
X152764033Y-103352259D01*
X152749500Y-103425323D01*
X152749500Y-103425326D01*
X152749500Y-103574674D01*
X152749500Y-103574676D01*
X152749499Y-103574676D01*
X152764033Y-103647740D01*
X152766025Y-103652548D01*
X152773494Y-103722017D01*
X152766025Y-103747452D01*
X152764033Y-103752259D01*
X152749500Y-103825323D01*
X152749500Y-103825326D01*
X152749500Y-103974674D01*
X152749500Y-103974676D01*
X152749499Y-103974676D01*
X152764033Y-104047740D01*
X152766025Y-104052548D01*
X152773494Y-104122017D01*
X152766025Y-104147452D01*
X152764033Y-104152259D01*
X152749500Y-104225323D01*
X152749500Y-104374678D01*
X152764032Y-104447735D01*
X152764033Y-104447739D01*
X152764034Y-104447740D01*
X152819399Y-104530601D01*
X152819400Y-104530601D01*
X152826185Y-104540756D01*
X152823286Y-104542692D01*
X152846904Y-104585944D01*
X152849738Y-104612302D01*
X152849738Y-105187697D01*
X152830053Y-105254736D01*
X152825037Y-105260960D01*
X152764034Y-105352260D01*
X152764032Y-105352264D01*
X152749500Y-105425321D01*
X152749500Y-105472718D01*
X152729815Y-105539757D01*
X152677011Y-105585512D01*
X152625500Y-105596718D01*
X152579309Y-105596718D01*
X152512270Y-105577033D01*
X152466515Y-105524229D01*
X152455309Y-105472718D01*
X152455309Y-102326226D01*
X152455308Y-102326210D01*
X152450612Y-102282534D01*
X152446706Y-102264582D01*
X152439411Y-102231043D01*
X152439157Y-102230007D01*
X152436919Y-102220845D01*
X152414306Y-102178409D01*
X152399738Y-102120095D01*
X152399738Y-102052019D01*
X152331859Y-102052019D01*
X152271326Y-102036240D01*
X152250746Y-102024728D01*
X152250744Y-102024727D01*
X152183712Y-102005044D01*
X152183708Y-102005043D01*
X152183707Y-102005043D01*
X152125809Y-101996718D01*
X147773809Y-101996718D01*
X147773801Y-101996718D01*
X147730122Y-102001415D01*
X147678634Y-102012615D01*
X147668436Y-102015108D01*
X147668433Y-102015109D01*
X147650385Y-102024727D01*
X147626506Y-102037451D01*
X147568193Y-102052019D01*
X147499738Y-102052019D01*
X147499738Y-102119938D01*
X147483958Y-102180472D01*
X147472320Y-102201276D01*
X147452635Y-102268314D01*
X147452634Y-102268319D01*
X147452634Y-102268320D01*
X147444311Y-102326210D01*
X147444309Y-102326221D01*
X147444309Y-105028225D01*
X147449006Y-105071904D01*
X147460209Y-105123402D01*
X147462698Y-105133589D01*
X147462698Y-105133590D01*
X147463977Y-105135990D01*
X147485170Y-105175761D01*
X147499738Y-105234074D01*
X147499738Y-105302019D01*
X147567047Y-105302019D01*
X147627581Y-105317798D01*
X147648872Y-105329708D01*
X147715911Y-105349393D01*
X147773809Y-105357718D01*
X147773813Y-105357718D01*
X148025500Y-105357718D01*
X148092539Y-105377403D01*
X148138294Y-105430207D01*
X148149500Y-105481718D01*
X148149500Y-106123417D01*
X148149738Y-106128257D01*
X148149738Y-106302019D01*
X150425738Y-106302019D01*
X150492777Y-106321704D01*
X150538532Y-106374508D01*
X150549738Y-106426019D01*
X150549738Y-107002019D01*
X151107713Y-107002019D01*
X151152354Y-107011730D01*
X151152421Y-107011506D01*
X151155564Y-107012429D01*
X151159228Y-107013226D01*
X151160929Y-107014003D01*
X151160931Y-107014004D01*
X151160932Y-107014004D01*
X151160936Y-107014006D01*
X151285225Y-107050499D01*
X151285227Y-107050500D01*
X151285228Y-107050500D01*
X151414773Y-107050500D01*
X151414773Y-107050499D01*
X151500526Y-107025321D01*
X151539063Y-107014006D01*
X151539064Y-107014005D01*
X151539069Y-107014004D01*
X151539072Y-107014001D01*
X151540772Y-107013226D01*
X151544435Y-107012429D01*
X151547579Y-107011506D01*
X151547645Y-107011730D01*
X151592287Y-107002019D01*
X151749738Y-107002019D01*
X151749738Y-106836127D01*
X151760942Y-106784618D01*
X151786697Y-106728226D01*
X151788732Y-106714073D01*
X151817756Y-106650517D01*
X151876533Y-106612741D01*
X151911470Y-106607718D01*
X152725738Y-106607718D01*
X152792777Y-106627403D01*
X152838532Y-106680207D01*
X152849738Y-106731718D01*
X152849738Y-106787697D01*
X152830053Y-106854736D01*
X152825037Y-106860960D01*
X152764034Y-106952260D01*
X152764032Y-106952264D01*
X152749500Y-107025321D01*
X152749500Y-107174678D01*
X152764032Y-107247735D01*
X152764033Y-107247739D01*
X152777827Y-107268384D01*
X152819399Y-107330601D01*
X152819400Y-107330602D01*
X152819402Y-107330604D01*
X152839279Y-107343884D01*
X152849738Y-107350872D01*
X152849738Y-107402019D01*
X152464584Y-107402019D01*
X152397545Y-107382334D01*
X152385822Y-107372887D01*
X152322539Y-107330604D01*
X152297740Y-107314034D01*
X152297738Y-107314033D01*
X152297735Y-107314032D01*
X152224677Y-107299500D01*
X152224674Y-107299500D01*
X152075326Y-107299500D01*
X152075324Y-107299500D01*
X152002259Y-107314033D01*
X151997452Y-107316025D01*
X151927983Y-107323494D01*
X151902548Y-107316025D01*
X151897740Y-107314033D01*
X151824676Y-107299500D01*
X151824674Y-107299500D01*
X151675326Y-107299500D01*
X151675324Y-107299500D01*
X151602259Y-107314033D01*
X151597452Y-107316025D01*
X151527983Y-107323494D01*
X151502548Y-107316025D01*
X151497740Y-107314033D01*
X151424676Y-107299500D01*
X151424674Y-107299500D01*
X151275326Y-107299500D01*
X151275324Y-107299500D01*
X151202259Y-107314033D01*
X151197452Y-107316025D01*
X151127983Y-107323494D01*
X151102548Y-107316025D01*
X151097740Y-107314033D01*
X151024676Y-107299500D01*
X151024674Y-107299500D01*
X150875326Y-107299500D01*
X150875324Y-107299500D01*
X150802259Y-107314033D01*
X150797452Y-107316025D01*
X150727983Y-107323494D01*
X150702548Y-107316025D01*
X150697740Y-107314033D01*
X150624676Y-107299500D01*
X150624674Y-107299500D01*
X150475326Y-107299500D01*
X150475324Y-107299500D01*
X150402259Y-107314033D01*
X150397452Y-107316025D01*
X150327983Y-107323494D01*
X150302548Y-107316025D01*
X150297740Y-107314033D01*
X150224676Y-107299500D01*
X150224674Y-107299500D01*
X150075326Y-107299500D01*
X150075324Y-107299500D01*
X150002259Y-107314033D01*
X149997452Y-107316025D01*
X149927983Y-107323494D01*
X149902548Y-107316025D01*
X149897740Y-107314033D01*
X149824676Y-107299500D01*
X149824674Y-107299500D01*
X149675326Y-107299500D01*
X149675324Y-107299500D01*
X149602259Y-107314033D01*
X149597452Y-107316025D01*
X149527983Y-107323494D01*
X149502548Y-107316025D01*
X149497740Y-107314033D01*
X149424676Y-107299500D01*
X149424674Y-107299500D01*
X149275326Y-107299500D01*
X149275323Y-107299500D01*
X149202264Y-107314032D01*
X149202260Y-107314034D01*
X149109244Y-107376184D01*
X149107814Y-107374044D01*
X149061774Y-107399185D01*
X149035416Y-107402019D01*
X148864584Y-107402019D01*
X148797545Y-107382334D01*
X148785822Y-107372887D01*
X148722539Y-107330604D01*
X148697740Y-107314034D01*
X148697738Y-107314033D01*
X148697735Y-107314032D01*
X148624677Y-107299500D01*
X148624674Y-107299500D01*
X148475326Y-107299500D01*
X148475324Y-107299500D01*
X148402259Y-107314033D01*
X148397452Y-107316025D01*
X148327983Y-107323494D01*
X148302548Y-107316025D01*
X148297740Y-107314033D01*
X148224676Y-107299500D01*
X148224674Y-107299500D01*
X148075326Y-107299500D01*
X148075324Y-107299500D01*
X148002259Y-107314033D01*
X147997452Y-107316025D01*
X147927983Y-107323494D01*
X147902548Y-107316025D01*
X147897740Y-107314033D01*
X147824676Y-107299500D01*
X147824674Y-107299500D01*
X147675326Y-107299500D01*
X147675324Y-107299500D01*
X147602259Y-107314033D01*
X147597452Y-107316025D01*
X147527983Y-107323494D01*
X147502548Y-107316025D01*
X147497740Y-107314033D01*
X147424676Y-107299500D01*
X147424674Y-107299500D01*
X147275326Y-107299500D01*
X147274500Y-107299500D01*
X147207461Y-107279815D01*
X147161706Y-107227011D01*
X147150500Y-107175500D01*
X147150500Y-107025323D01*
X147150499Y-107025321D01*
X147135968Y-106952267D01*
X147135966Y-106952264D01*
X147135966Y-106952260D01*
X147135963Y-106952256D01*
X147133977Y-106947461D01*
X147126504Y-106877992D01*
X147133977Y-106852539D01*
X147135962Y-106847745D01*
X147135966Y-106847740D01*
X147150500Y-106774674D01*
X147150500Y-106625326D01*
X147150500Y-106625323D01*
X147150499Y-106625321D01*
X147135968Y-106552267D01*
X147135966Y-106552264D01*
X147135966Y-106552260D01*
X147135963Y-106552256D01*
X147133977Y-106547461D01*
X147126504Y-106477992D01*
X147133977Y-106452539D01*
X147135962Y-106447745D01*
X147135966Y-106447740D01*
X147150500Y-106374674D01*
X147150500Y-106225326D01*
X147150500Y-106225323D01*
X147150499Y-106225321D01*
X147135968Y-106152267D01*
X147135966Y-106152264D01*
X147135966Y-106152260D01*
X147135963Y-106152256D01*
X147133977Y-106147461D01*
X147126504Y-106077992D01*
X147133977Y-106052539D01*
X147135962Y-106047745D01*
X147135966Y-106047740D01*
X147150500Y-105974674D01*
X147150500Y-105825326D01*
X147150500Y-105825323D01*
X147150499Y-105825321D01*
X147135968Y-105752267D01*
X147135966Y-105752264D01*
X147135966Y-105752260D01*
X147135963Y-105752256D01*
X147133977Y-105747461D01*
X147126504Y-105677992D01*
X147133977Y-105652539D01*
X147135962Y-105647745D01*
X147135966Y-105647740D01*
X147139415Y-105630404D01*
X147150499Y-105574678D01*
X147150500Y-105574676D01*
X147150500Y-105425323D01*
X147150499Y-105425321D01*
X147135968Y-105352267D01*
X147135966Y-105352264D01*
X147135966Y-105352260D01*
X147135963Y-105352256D01*
X147133977Y-105347461D01*
X147126504Y-105277992D01*
X147133977Y-105252539D01*
X147135962Y-105247745D01*
X147135966Y-105247740D01*
X147136674Y-105244185D01*
X147147660Y-105188953D01*
X147150500Y-105174674D01*
X147150500Y-105025326D01*
X147150500Y-105025323D01*
X147150499Y-105025321D01*
X147135967Y-104952264D01*
X147135966Y-104952263D01*
X147135966Y-104952260D01*
X147080601Y-104869399D01*
X147073816Y-104859244D01*
X147076539Y-104857424D01*
X147052572Y-104813531D01*
X147049738Y-104787173D01*
X147049738Y-104612826D01*
X147069423Y-104545787D01*
X147075454Y-104538301D01*
X147080597Y-104530603D01*
X147080601Y-104530601D01*
X147135966Y-104447740D01*
X147150500Y-104374674D01*
X147150500Y-104225326D01*
X147150500Y-104225323D01*
X147150499Y-104225321D01*
X147135968Y-104152267D01*
X147135966Y-104152264D01*
X147135966Y-104152260D01*
X147135963Y-104152256D01*
X147133977Y-104147461D01*
X147126504Y-104077992D01*
X147133977Y-104052539D01*
X147135962Y-104047745D01*
X147135966Y-104047740D01*
X147150500Y-103974674D01*
X147150500Y-103825326D01*
X147150500Y-103825323D01*
X147150499Y-103825321D01*
X147135968Y-103752267D01*
X147135966Y-103752264D01*
X147135966Y-103752260D01*
X147135963Y-103752256D01*
X147133977Y-103747461D01*
X147126504Y-103677992D01*
X147133977Y-103652539D01*
X147135962Y-103647745D01*
X147135966Y-103647740D01*
X147150500Y-103574674D01*
X147150500Y-103425326D01*
X147150500Y-103425323D01*
X147150499Y-103425321D01*
X147135968Y-103352267D01*
X147135966Y-103352264D01*
X147135966Y-103352260D01*
X147135963Y-103352256D01*
X147133977Y-103347461D01*
X147126504Y-103277992D01*
X147133977Y-103252539D01*
X147135962Y-103247745D01*
X147135966Y-103247740D01*
X147150500Y-103174674D01*
X147150500Y-103025326D01*
X147150500Y-103025323D01*
X147150499Y-103025321D01*
X147135968Y-102952267D01*
X147135966Y-102952264D01*
X147135966Y-102952260D01*
X147135963Y-102952256D01*
X147133977Y-102947461D01*
X147126504Y-102877992D01*
X147133977Y-102852539D01*
X147135962Y-102847745D01*
X147135966Y-102847740D01*
X147150500Y-102774674D01*
X147150500Y-102625326D01*
X147150500Y-102625323D01*
X147150499Y-102625321D01*
X147135968Y-102552267D01*
X147135966Y-102552264D01*
X147135966Y-102552260D01*
X147135963Y-102552256D01*
X147133977Y-102547461D01*
X147126504Y-102477992D01*
X147133977Y-102452539D01*
X147135962Y-102447745D01*
X147135966Y-102447740D01*
X147150500Y-102374674D01*
X147150500Y-102225326D01*
X147150500Y-102225323D01*
X147150499Y-102225321D01*
X147135968Y-102152267D01*
X147135966Y-102152264D01*
X147135966Y-102152260D01*
X147135963Y-102152256D01*
X147133977Y-102147461D01*
X147126504Y-102077992D01*
X147133977Y-102052539D01*
X147135962Y-102047745D01*
X147135966Y-102047740D01*
X147140544Y-102024728D01*
X147150499Y-101974678D01*
X147150500Y-101974676D01*
X147150500Y-101824500D01*
X147170185Y-101757461D01*
X147222989Y-101711706D01*
X147274500Y-101700500D01*
X147424676Y-101700500D01*
X147424677Y-101700499D01*
X147449029Y-101695655D01*
X147497732Y-101685968D01*
X147497733Y-101685967D01*
X147497740Y-101685966D01*
X147497745Y-101685962D01*
X147502539Y-101683977D01*
X147572008Y-101676504D01*
X147597461Y-101683977D01*
X147602256Y-101685963D01*
X147602260Y-101685966D01*
X147602264Y-101685966D01*
X147602267Y-101685968D01*
X147675321Y-101700499D01*
X147675324Y-101700500D01*
X147675326Y-101700500D01*
X147824676Y-101700500D01*
X147824677Y-101700499D01*
X147849029Y-101695655D01*
X147897732Y-101685968D01*
X147897733Y-101685967D01*
X147897740Y-101685966D01*
X147897745Y-101685962D01*
X147902539Y-101683977D01*
X147972008Y-101676504D01*
X147997461Y-101683977D01*
X148002256Y-101685963D01*
X148002260Y-101685966D01*
X148002264Y-101685966D01*
X148002267Y-101685968D01*
X148075321Y-101700499D01*
X148075324Y-101700500D01*
X148075326Y-101700500D01*
X148224676Y-101700500D01*
X148224677Y-101700499D01*
X148249029Y-101695655D01*
X148297732Y-101685968D01*
X148297733Y-101685967D01*
X148297740Y-101685966D01*
X148297745Y-101685962D01*
X148302539Y-101683977D01*
X148372008Y-101676504D01*
X148397461Y-101683977D01*
X148402256Y-101685963D01*
X148402260Y-101685966D01*
X148402264Y-101685966D01*
X148402267Y-101685968D01*
X148475321Y-101700499D01*
X148475324Y-101700500D01*
X148475326Y-101700500D01*
X148624676Y-101700500D01*
X148624677Y-101700499D01*
X148697740Y-101685966D01*
X148780601Y-101630601D01*
X148780600Y-101630601D01*
X148790756Y-101623816D01*
X148793082Y-101627298D01*
X148834188Y-101604853D01*
X148860546Y-101602019D01*
X149039454Y-101602019D01*
X149106493Y-101621704D01*
X149109198Y-101623884D01*
X149109244Y-101623816D01*
X149119399Y-101630601D01*
X149202260Y-101685966D01*
X149202263Y-101685966D01*
X149202264Y-101685967D01*
X149275321Y-101700499D01*
X149275324Y-101700500D01*
X149275326Y-101700500D01*
X149424676Y-101700500D01*
X149424677Y-101700499D01*
X149449029Y-101695655D01*
X149497732Y-101685968D01*
X149497733Y-101685967D01*
X149497740Y-101685966D01*
X149497745Y-101685962D01*
X149502539Y-101683977D01*
X149572008Y-101676504D01*
X149597461Y-101683977D01*
X149602256Y-101685963D01*
X149602260Y-101685966D01*
X149602264Y-101685966D01*
X149602267Y-101685968D01*
X149675321Y-101700499D01*
X149675324Y-101700500D01*
X149675326Y-101700500D01*
X149824676Y-101700500D01*
X149824677Y-101700499D01*
X149849029Y-101695655D01*
X149897732Y-101685968D01*
X149897733Y-101685967D01*
X149897740Y-101685966D01*
X149897745Y-101685962D01*
X149902539Y-101683977D01*
X149972008Y-101676504D01*
X149997461Y-101683977D01*
X150002256Y-101685963D01*
X150002260Y-101685966D01*
X150002264Y-101685966D01*
X150002267Y-101685968D01*
X150075321Y-101700499D01*
X150075324Y-101700500D01*
X150075326Y-101700500D01*
X150224676Y-101700500D01*
X150224677Y-101700499D01*
X150249029Y-101695655D01*
X150297732Y-101685968D01*
X150297733Y-101685967D01*
X150297740Y-101685966D01*
X150297745Y-101685962D01*
X150302539Y-101683977D01*
X150372008Y-101676504D01*
X150397461Y-101683977D01*
X150402256Y-101685963D01*
X150402260Y-101685966D01*
X150402264Y-101685966D01*
X150402267Y-101685968D01*
X150475321Y-101700499D01*
X150475324Y-101700500D01*
X150475326Y-101700500D01*
X150624676Y-101700500D01*
X150624677Y-101700499D01*
X150649029Y-101695655D01*
X150697732Y-101685968D01*
X150697733Y-101685967D01*
X150697740Y-101685966D01*
X150697745Y-101685962D01*
X150702539Y-101683977D01*
X150772008Y-101676504D01*
X150797461Y-101683977D01*
X150802256Y-101685963D01*
X150802260Y-101685966D01*
X150802264Y-101685966D01*
X150802267Y-101685968D01*
X150875321Y-101700499D01*
X150875324Y-101700500D01*
X150875326Y-101700500D01*
X151024676Y-101700500D01*
X151024677Y-101700499D01*
X151049029Y-101695655D01*
X151097732Y-101685968D01*
X151097733Y-101685967D01*
X151097740Y-101685966D01*
X151097745Y-101685962D01*
X151102539Y-101683977D01*
X151172008Y-101676504D01*
X151197461Y-101683977D01*
X151202256Y-101685963D01*
X151202260Y-101685966D01*
X151202264Y-101685966D01*
X151202267Y-101685968D01*
X151275321Y-101700499D01*
X151275324Y-101700500D01*
X151275326Y-101700500D01*
X151424676Y-101700500D01*
X151424677Y-101700499D01*
X151449029Y-101695655D01*
X151497732Y-101685968D01*
X151497733Y-101685967D01*
X151497740Y-101685966D01*
X151497745Y-101685962D01*
X151502539Y-101683977D01*
X151572008Y-101676504D01*
X151597461Y-101683977D01*
X151602256Y-101685963D01*
X151602260Y-101685966D01*
X151602264Y-101685966D01*
X151602267Y-101685968D01*
X151675321Y-101700499D01*
X151675324Y-101700500D01*
X151675326Y-101700500D01*
X151824676Y-101700500D01*
X151824677Y-101700499D01*
X151849029Y-101695655D01*
X151897732Y-101685968D01*
X151897733Y-101685967D01*
X151897740Y-101685966D01*
X151897745Y-101685962D01*
X151902539Y-101683977D01*
X151972008Y-101676504D01*
X151997461Y-101683977D01*
X152002256Y-101685963D01*
X152002260Y-101685966D01*
X152002264Y-101685966D01*
X152002267Y-101685968D01*
X152075321Y-101700499D01*
X152075324Y-101700500D01*
X152075326Y-101700500D01*
X152224676Y-101700500D01*
X152224677Y-101700499D01*
X152297740Y-101685966D01*
X152380601Y-101630601D01*
X152380600Y-101630601D01*
X152390756Y-101623816D01*
X152393082Y-101627298D01*
X152434188Y-101604853D01*
X152448435Y-101603321D01*
X152449738Y-101602019D01*
X152449738Y-101488499D01*
X152450336Y-101476338D01*
X152450500Y-101474673D01*
X152450500Y-100650322D01*
X152450335Y-100648647D01*
X152449738Y-100636496D01*
X152449738Y-100276019D01*
X152469423Y-100208980D01*
X152522227Y-100163225D01*
X152573738Y-100152019D01*
X153049738Y-100152019D01*
X153149738Y-100052019D01*
X153149738Y-99923415D01*
X153169423Y-99856376D01*
X153222227Y-99810621D01*
X153285994Y-99801071D01*
X153286049Y-99800235D01*
X153289895Y-99800487D01*
X153289945Y-99800479D01*
X153290099Y-99800500D01*
X153709900Y-99800499D01*
X153759487Y-99793972D01*
X153868316Y-99743224D01*
X153953224Y-99658316D01*
X154003972Y-99549487D01*
X154009392Y-99508315D01*
X154037657Y-99444419D01*
X154095981Y-99405948D01*
X154132331Y-99400500D01*
X154144773Y-99400500D01*
X154144773Y-99400499D01*
X154269069Y-99364004D01*
X154378049Y-99293967D01*
X154462882Y-99196063D01*
X154516697Y-99078226D01*
X154535133Y-98950000D01*
X154527481Y-98896776D01*
X154523221Y-98867146D01*
X154533165Y-98797988D01*
X154578920Y-98745184D01*
X154645959Y-98725500D01*
X154825738Y-98725500D01*
X154892777Y-98745185D01*
G37*
G04 #@! TD.AperFunction*
G04 #@! TA.AperFunction,Conductor*
G36*
X170294007Y-106596885D02*
G01*
X170325343Y-106625713D01*
X170409548Y-106735450D01*
X170409549Y-106735451D01*
X170518552Y-106819093D01*
X170559754Y-106875521D01*
X170563909Y-106945267D01*
X170529696Y-107006187D01*
X170506188Y-107024199D01*
X170493137Y-107031917D01*
X170493129Y-107031923D01*
X170376923Y-107148129D01*
X170376917Y-107148137D01*
X170293255Y-107289603D01*
X170293254Y-107289606D01*
X170247402Y-107447426D01*
X170247401Y-107447432D01*
X170244500Y-107484298D01*
X170244500Y-107915701D01*
X170247401Y-107952567D01*
X170247402Y-107952573D01*
X170293254Y-108110393D01*
X170293255Y-108110396D01*
X170315132Y-108147388D01*
X170332400Y-108210509D01*
X170332400Y-108833734D01*
X170341666Y-108850704D01*
X170344500Y-108877062D01*
X170344500Y-108918541D01*
X170344500Y-108918543D01*
X170344499Y-108918543D01*
X170382947Y-109111829D01*
X170382950Y-109111839D01*
X170458364Y-109293907D01*
X170458371Y-109293920D01*
X170567860Y-109457781D01*
X170567863Y-109457785D01*
X170707214Y-109597136D01*
X170707218Y-109597139D01*
X170871079Y-109706628D01*
X170871092Y-109706635D01*
X171053160Y-109782049D01*
X171053165Y-109782051D01*
X171053169Y-109782051D01*
X171053170Y-109782052D01*
X171246456Y-109820500D01*
X171246459Y-109820500D01*
X172543543Y-109820500D01*
X172673582Y-109794632D01*
X172736835Y-109782051D01*
X172918914Y-109706632D01*
X173082782Y-109597139D01*
X173222139Y-109457782D01*
X173331632Y-109293914D01*
X173407051Y-109111835D01*
X173421936Y-109037004D01*
X173446522Y-108913408D01*
X173478907Y-108851497D01*
X173539623Y-108816923D01*
X173568139Y-108813600D01*
X174551861Y-108813600D01*
X174618900Y-108833285D01*
X174664655Y-108886089D01*
X174673478Y-108913408D01*
X174712947Y-109111829D01*
X174712950Y-109111839D01*
X174788364Y-109293907D01*
X174788371Y-109293920D01*
X174897860Y-109457781D01*
X174897863Y-109457785D01*
X175037214Y-109597136D01*
X175037218Y-109597139D01*
X175201079Y-109706628D01*
X175201092Y-109706635D01*
X175383160Y-109782049D01*
X175383165Y-109782051D01*
X175383169Y-109782051D01*
X175383170Y-109782052D01*
X175576456Y-109820500D01*
X175576459Y-109820500D01*
X176573543Y-109820500D01*
X176703582Y-109794632D01*
X176766835Y-109782051D01*
X176948914Y-109706632D01*
X177112782Y-109597139D01*
X177252139Y-109457782D01*
X177361632Y-109293914D01*
X177437051Y-109111835D01*
X177451936Y-109037004D01*
X177476522Y-108913408D01*
X177508907Y-108851497D01*
X177569623Y-108816923D01*
X177598139Y-108813600D01*
X177804000Y-108813600D01*
X177871039Y-108833285D01*
X177916794Y-108886089D01*
X177928000Y-108937600D01*
X177928000Y-114189600D01*
X177908315Y-114256639D01*
X177855511Y-114302394D01*
X177804000Y-114313600D01*
X173219108Y-114313600D01*
X173152069Y-114293915D01*
X173106314Y-114241111D01*
X173096370Y-114171953D01*
X173117532Y-114118478D01*
X173118925Y-114116487D01*
X173170568Y-114042734D01*
X173266739Y-113836496D01*
X173325635Y-113616692D01*
X173345468Y-113390000D01*
X173325635Y-113163308D01*
X173266739Y-112943504D01*
X173170568Y-112737266D01*
X173040047Y-112550861D01*
X173040045Y-112550858D01*
X172879141Y-112389954D01*
X172692734Y-112259432D01*
X172692732Y-112259431D01*
X172486497Y-112163261D01*
X172486488Y-112163258D01*
X172266697Y-112104366D01*
X172266693Y-112104365D01*
X172266692Y-112104365D01*
X172266691Y-112104364D01*
X172266686Y-112104364D01*
X172040002Y-112084532D01*
X172039999Y-112084532D01*
X171981676Y-112089634D01*
X171813308Y-112104365D01*
X171813306Y-112104365D01*
X171807916Y-112104837D01*
X171807713Y-112102527D01*
X171748079Y-112095863D01*
X171710002Y-112070823D01*
X170827222Y-111220739D01*
X170798963Y-111195499D01*
X170798964Y-111195499D01*
X170798953Y-111195490D01*
X170784660Y-111183656D01*
X170754606Y-111160613D01*
X170754604Y-111160612D01*
X170626580Y-111094963D01*
X170626576Y-111094961D01*
X170626575Y-111094961D01*
X170610024Y-111089272D01*
X170602458Y-111085798D01*
X170602322Y-111086134D01*
X170594109Y-111082783D01*
X170588459Y-111081373D01*
X170578198Y-111078334D01*
X170543375Y-111066366D01*
X170536897Y-111067468D01*
X170521373Y-111064628D01*
X170488102Y-111056323D01*
X170454510Y-111047939D01*
X170454508Y-111047938D01*
X170454501Y-111047937D01*
X170417162Y-111044122D01*
X170390762Y-111038470D01*
X170359507Y-111028113D01*
X170333415Y-111015946D01*
X170309339Y-111001096D01*
X170286754Y-110983238D01*
X170266760Y-110963244D01*
X170248902Y-110940659D01*
X170234049Y-110916578D01*
X170221884Y-110890491D01*
X170211528Y-110859239D01*
X170205877Y-110832840D01*
X170205477Y-110828918D01*
X170201022Y-110796032D01*
X170198311Y-110779995D01*
X170191717Y-110747509D01*
X170191715Y-110747505D01*
X170191715Y-110747502D01*
X170138905Y-110613674D01*
X170138901Y-110613665D01*
X170105955Y-110555944D01*
X170104968Y-110554100D01*
X170104261Y-110552977D01*
X170015887Y-110439453D01*
X169893488Y-110321587D01*
X169858853Y-110260906D01*
X169855500Y-110232267D01*
X169855500Y-108804723D01*
X169860424Y-108770127D01*
X169867665Y-108745204D01*
X169870500Y-108709181D01*
X169870499Y-108310820D01*
X169867665Y-108274796D01*
X169822869Y-108120607D01*
X169788869Y-108063117D01*
X169771688Y-107995398D01*
X169788869Y-107936882D01*
X169822869Y-107879393D01*
X169867665Y-107725204D01*
X169870500Y-107689181D01*
X169870499Y-107290820D01*
X169867665Y-107254796D01*
X169822869Y-107100607D01*
X169808136Y-107075696D01*
X169790954Y-107007973D01*
X169791647Y-106998709D01*
X169805249Y-106878000D01*
X169804970Y-106875521D01*
X169786893Y-106715084D01*
X169798947Y-106646262D01*
X169846296Y-106594882D01*
X169910113Y-106577200D01*
X170226968Y-106577200D01*
X170294007Y-106596885D01*
G37*
G04 #@! TD.AperFunction*
G04 #@! TA.AperFunction,Conductor*
G36*
X163441706Y-105910685D02*
G01*
X163462348Y-105927319D01*
X163647800Y-106112771D01*
X163647800Y-106700800D01*
X163747800Y-106800800D01*
X166347800Y-106800800D01*
X166447800Y-106700800D01*
X166447800Y-106200800D01*
X166647800Y-106000800D01*
X168241069Y-106000800D01*
X168247800Y-106008567D01*
X168247800Y-107500800D01*
X166747800Y-107500800D01*
X166647800Y-107600800D01*
X166647800Y-107900800D01*
X166547800Y-108000800D01*
X163547800Y-108000800D01*
X163447800Y-107900800D01*
X163447800Y-107600800D01*
X163347800Y-107500800D01*
X162137176Y-107500800D01*
X162137175Y-107500800D01*
X162102800Y-107500800D01*
X161847800Y-107500800D01*
X161747800Y-107400800D01*
X161747800Y-105927292D01*
X161796318Y-105900800D01*
X163408042Y-105900800D01*
X163441706Y-105910685D01*
G37*
G04 #@! TD.AperFunction*
M02*
