G04 #@! TF.GenerationSoftware,KiCad,Pcbnew,8.0.6*
G04 #@! TF.CreationDate,2024-11-24T01:45:06-05:00*
G04 #@! TF.ProjectId,RPI-PICO-R3a-PUBLIC,5250492d-5049-4434-9f2d-5233612d5055,4*
G04 #@! TF.SameCoordinates,Original*
G04 #@! TF.FileFunction,Soldermask,Bot*
G04 #@! TF.FilePolarity,Negative*
%FSLAX46Y46*%
G04 Gerber Fmt 4.6, Leading zero omitted, Abs format (unit mm)*
G04 Created by KiCad (PCBNEW 8.0.6) date 2024-11-24 01:45:06*
%MOMM*%
%LPD*%
G01*
G04 APERTURE LIST*
G04 Aperture macros list*
%AMRoundRect*
0 Rectangle with rounded corners*
0 $1 Rounding radius*
0 $2 $3 $4 $5 $6 $7 $8 $9 X,Y pos of 4 corners*
0 Add a 4 corners polygon primitive as box body*
4,1,4,$2,$3,$4,$5,$6,$7,$8,$9,$2,$3,0*
0 Add four circle primitives for the rounded corners*
1,1,$1+$1,$2,$3*
1,1,$1+$1,$4,$5*
1,1,$1+$1,$6,$7*
1,1,$1+$1,$8,$9*
0 Add four rect primitives between the rounded corners*
20,1,$1+$1,$2,$3,$4,$5,0*
20,1,$1+$1,$4,$5,$6,$7,0*
20,1,$1+$1,$6,$7,$8,$9,0*
20,1,$1+$1,$8,$9,$2,$3,0*%
G04 Aperture macros list end*
%ADD10C,1.600000*%
%ADD11R,1.600000X1.600000*%
%ADD12C,0.650000*%
%ADD13O,2.100000X1.000000*%
%ADD14O,1.800000X1.000000*%
%ADD15R,1.500000X1.500000*%
%ADD16RoundRect,0.135000X-0.185000X0.135000X-0.185000X-0.135000X0.185000X-0.135000X0.185000X0.135000X0*%
%ADD17RoundRect,0.135000X0.185000X-0.135000X0.185000X0.135000X-0.185000X0.135000X-0.185000X-0.135000X0*%
G04 APERTURE END LIST*
D10*
X126320000Y-113390000D03*
X128860000Y-113390000D03*
D11*
X131400000Y-113390000D03*
D10*
X133940000Y-113390000D03*
X136480000Y-113390000D03*
X139020000Y-113390000D03*
X141560000Y-113390000D03*
D11*
X144100000Y-113390000D03*
D10*
X146640000Y-113390000D03*
X149180000Y-113390000D03*
X151720000Y-113390000D03*
X154260000Y-113390000D03*
D11*
X156800000Y-113390000D03*
D10*
X159340000Y-113390000D03*
X161880000Y-113390000D03*
X164420000Y-113390000D03*
X166960000Y-113390000D03*
D11*
X169500000Y-113390000D03*
D10*
X172040000Y-113390000D03*
X174580000Y-113390000D03*
X174580000Y-95610000D03*
X172040000Y-95610000D03*
D11*
X169500000Y-95610000D03*
D10*
X166960000Y-95610000D03*
X164420000Y-95610000D03*
X161880000Y-95610000D03*
X159340000Y-95610000D03*
D11*
X156800000Y-95610000D03*
D10*
X154260000Y-95610000D03*
X151720000Y-95610000D03*
X149180000Y-95610000D03*
X146640000Y-95610000D03*
D11*
X144100000Y-95610000D03*
D10*
X141560000Y-95610000D03*
X139020000Y-95610000D03*
X136480000Y-95610000D03*
X133940000Y-95610000D03*
D11*
X131400000Y-95610000D03*
D10*
X128860000Y-95610000D03*
X126320000Y-95610000D03*
D12*
X172395000Y-107390000D03*
X172395000Y-101610000D03*
D13*
X171895000Y-108820000D03*
D14*
X176075000Y-108820000D03*
D13*
X171895000Y-100180000D03*
D14*
X176075000Y-100180000D03*
D15*
X126450000Y-102150000D03*
X126450000Y-107050000D03*
X174750000Y-105500000D03*
X167950000Y-102000000D03*
X126450000Y-104600000D03*
D16*
X173950000Y-107240000D03*
X173950000Y-108260000D03*
D15*
X174750000Y-103500000D03*
X165450000Y-102000000D03*
X171450000Y-104500000D03*
X162950000Y-102000000D03*
D17*
X173950000Y-101760000D03*
X173950000Y-100740000D03*
M02*
