G04 #@! TF.GenerationSoftware,KiCad,Pcbnew,8.0.6*
G04 #@! TF.CreationDate,2024-11-24T01:45:06-05:00*
G04 #@! TF.ProjectId,RPI-PICO-R3a-PUBLIC,5250492d-5049-4434-9f2d-5233612d5055,4*
G04 #@! TF.SameCoordinates,Original*
G04 #@! TF.FileFunction,Legend,Top*
G04 #@! TF.FilePolarity,Positive*
%FSLAX46Y46*%
G04 Gerber Fmt 4.6, Leading zero omitted, Abs format (unit mm)*
G04 Created by KiCad (PCBNEW 8.0.6) date 2024-11-24 01:45:06*
%MOMM*%
%LPD*%
G01*
G04 APERTURE LIST*
G04 Aperture macros list*
%AMRoundRect*
0 Rectangle with rounded corners*
0 $1 Rounding radius*
0 $2 $3 $4 $5 $6 $7 $8 $9 X,Y pos of 4 corners*
0 Add a 4 corners polygon primitive as box body*
4,1,4,$2,$3,$4,$5,$6,$7,$8,$9,$2,$3,0*
0 Add four circle primitives for the rounded corners*
1,1,$1+$1,$2,$3*
1,1,$1+$1,$4,$5*
1,1,$1+$1,$6,$7*
1,1,$1+$1,$8,$9*
0 Add four rect primitives between the rounded corners*
20,1,$1+$1,$2,$3,$4,$5,0*
20,1,$1+$1,$4,$5,$6,$7,0*
20,1,$1+$1,$6,$7,$8,$9,0*
20,1,$1+$1,$8,$9,$2,$3,0*%
G04 Aperture macros list end*
%ADD10C,0.000000*%
%ADD11C,0.150000*%
%ADD12C,0.100000*%
%ADD13C,0.120000*%
%ADD14C,0.250000*%
%ADD15C,2.000000*%
%ADD16RoundRect,0.135000X0.135000X0.185000X-0.135000X0.185000X-0.135000X-0.185000X0.135000X-0.185000X0*%
%ADD17RoundRect,0.250000X0.475000X-0.250000X0.475000X0.250000X-0.475000X0.250000X-0.475000X-0.250000X0*%
%ADD18RoundRect,0.250000X0.375000X0.850000X-0.375000X0.850000X-0.375000X-0.850000X0.375000X-0.850000X0*%
%ADD19C,1.600000*%
%ADD20R,1.600000X1.600000*%
%ADD21RoundRect,0.102000X-0.450000X-0.150000X0.450000X-0.150000X0.450000X0.150000X-0.450000X0.150000X0*%
%ADD22RoundRect,0.102000X0.125000X-0.825000X0.125000X0.825000X-0.125000X0.825000X-0.125000X-0.825000X0*%
%ADD23RoundRect,0.100000X0.130000X0.100000X-0.130000X0.100000X-0.130000X-0.100000X0.130000X-0.100000X0*%
%ADD24RoundRect,0.135000X-0.135000X-0.185000X0.135000X-0.185000X0.135000X0.185000X-0.135000X0.185000X0*%
%ADD25RoundRect,0.140000X-0.140000X-0.170000X0.140000X-0.170000X0.140000X0.170000X-0.140000X0.170000X0*%
%ADD26RoundRect,0.135000X-0.185000X0.135000X-0.185000X-0.135000X0.185000X-0.135000X0.185000X0.135000X0*%
%ADD27R,1.050000X0.650000*%
%ADD28RoundRect,0.100000X0.155000X0.100000X-0.155000X0.100000X-0.155000X-0.100000X0.155000X-0.100000X0*%
%ADD29RoundRect,0.100000X0.021213X0.162635X-0.162635X-0.021213X-0.021213X-0.162635X0.162635X0.021213X0*%
%ADD30RoundRect,0.100000X0.100000X-0.130000X0.100000X0.130000X-0.100000X0.130000X-0.100000X-0.130000X0*%
%ADD31RoundRect,0.135000X0.185000X-0.135000X0.185000X0.135000X-0.185000X0.135000X-0.185000X-0.135000X0*%
%ADD32RoundRect,0.100000X-0.130000X-0.100000X0.130000X-0.100000X0.130000X0.100000X-0.130000X0.100000X0*%
%ADD33RoundRect,0.200000X0.200000X0.275000X-0.200000X0.275000X-0.200000X-0.275000X0.200000X-0.275000X0*%
%ADD34RoundRect,0.140000X0.170000X-0.140000X0.170000X0.140000X-0.170000X0.140000X-0.170000X-0.140000X0*%
%ADD35C,0.650000*%
%ADD36RoundRect,0.150000X0.425000X-0.150000X0.425000X0.150000X-0.425000X0.150000X-0.425000X-0.150000X0*%
%ADD37RoundRect,0.075000X0.500000X-0.075000X0.500000X0.075000X-0.500000X0.075000X-0.500000X-0.075000X0*%
%ADD38O,2.100000X1.000000*%
%ADD39O,1.800000X1.000000*%
%ADD40RoundRect,0.218750X-0.256250X0.218750X-0.256250X-0.218750X0.256250X-0.218750X0.256250X0.218750X0*%
%ADD41RoundRect,0.062500X0.062500X-0.337500X0.062500X0.337500X-0.062500X0.337500X-0.062500X-0.337500X0*%
%ADD42R,2.200000X1.300000*%
%ADD43R,1.200000X1.400000*%
%ADD44RoundRect,0.150000X-0.625000X0.150000X-0.625000X-0.150000X0.625000X-0.150000X0.625000X0.150000X0*%
%ADD45RoundRect,0.250000X-0.650000X0.350000X-0.650000X-0.350000X0.650000X-0.350000X0.650000X0.350000X0*%
%ADD46RoundRect,0.050000X-0.050000X0.387500X-0.050000X-0.387500X0.050000X-0.387500X0.050000X0.387500X0*%
%ADD47RoundRect,0.050000X-0.387500X0.050000X-0.387500X-0.050000X0.387500X-0.050000X0.387500X0.050000X0*%
%ADD48R,3.200000X3.200000*%
%ADD49RoundRect,0.250000X-0.300000X-0.300000X0.300000X-0.300000X0.300000X0.300000X-0.300000X0.300000X0*%
%ADD50RoundRect,0.100000X-0.100000X0.130000X-0.100000X-0.130000X0.100000X-0.130000X0.100000X0.130000X0*%
G04 APERTURE END LIST*
D10*
G36*
X140572067Y-108898266D02*
G01*
X140741400Y-108898266D01*
X140741400Y-109067600D01*
X140402733Y-109067600D01*
X140402733Y-108728933D01*
X140572067Y-108728933D01*
X140572067Y-108898266D01*
G37*
G36*
X143789400Y-107374267D02*
G01*
X143958733Y-107374267D01*
X143958733Y-107204933D01*
X144128066Y-107204933D01*
X144128066Y-107712933D01*
X143958733Y-107712933D01*
X143958733Y-107543600D01*
X143620066Y-107543600D01*
X143620066Y-107374267D01*
X143450733Y-107374267D01*
X143450733Y-107204933D01*
X143789400Y-107204933D01*
X143789400Y-107374267D01*
G37*
G36*
X142604066Y-107204933D02*
G01*
X142434733Y-107204933D01*
X142434733Y-106866267D01*
X142604066Y-106866267D01*
X142604066Y-107204933D01*
G37*
G36*
X140064067Y-108051600D02*
G01*
X140233400Y-108051600D01*
X140233400Y-107882267D01*
X140402733Y-107882267D01*
X140402733Y-108220933D01*
X140233400Y-108220933D01*
X140233400Y-108390266D01*
X140572067Y-108390266D01*
X140572067Y-108559600D01*
X140233400Y-108559600D01*
X140233400Y-109236933D01*
X140064067Y-109236933D01*
X140064067Y-109067600D01*
X139894733Y-109067600D01*
X139894733Y-108898266D01*
X139725400Y-108898266D01*
X139725400Y-108220933D01*
X139894733Y-108220933D01*
X139894733Y-108559600D01*
X140064067Y-108559600D01*
X140064067Y-108220933D01*
X139894733Y-108220933D01*
X139894733Y-108051600D01*
X139725400Y-108051600D01*
X139725400Y-107882267D01*
X140064067Y-107882267D01*
X140064067Y-108051600D01*
G37*
G36*
X142265400Y-106696933D02*
G01*
X142096067Y-106696933D01*
X142096067Y-106358267D01*
X142265400Y-106358267D01*
X142265400Y-106696933D01*
G37*
G36*
X142265400Y-107035600D02*
G01*
X142096067Y-107035600D01*
X142096067Y-106866267D01*
X142265400Y-106866267D01*
X142265400Y-107035600D01*
G37*
G36*
X141757400Y-108051600D02*
G01*
X141588067Y-108051600D01*
X141588067Y-107882267D01*
X141757400Y-107882267D01*
X141757400Y-108051600D01*
G37*
G36*
X142604066Y-109406267D02*
G01*
X142773400Y-109406267D01*
X142773400Y-109744933D01*
X143281400Y-109744933D01*
X143281400Y-109914266D01*
X143112066Y-109914266D01*
X143112066Y-110083600D01*
X143281400Y-110083600D01*
X143281400Y-110252933D01*
X142942733Y-110252933D01*
X142942733Y-110422266D01*
X142773400Y-110422266D01*
X142773400Y-110252933D01*
X142604066Y-110252933D01*
X142604066Y-110083600D01*
X142773400Y-110083600D01*
X142942733Y-110083600D01*
X142942733Y-109914266D01*
X142773400Y-109914266D01*
X142773400Y-110083600D01*
X142604066Y-110083600D01*
X142434733Y-110083600D01*
X142434733Y-109575600D01*
X142265400Y-109575600D01*
X142265400Y-109236933D01*
X142604066Y-109236933D01*
X142604066Y-109406267D01*
G37*
G36*
X143112066Y-108051600D02*
G01*
X142942733Y-108051600D01*
X142942733Y-107882267D01*
X143112066Y-107882267D01*
X143112066Y-108051600D01*
G37*
G36*
X141926733Y-106019600D02*
G01*
X141080066Y-106019600D01*
X141080066Y-105850267D01*
X141926733Y-105850267D01*
X141926733Y-106019600D01*
G37*
G36*
X142942733Y-107035600D02*
G01*
X142773400Y-107035600D01*
X142773400Y-106866267D01*
X142942733Y-106866267D01*
X142942733Y-107035600D01*
G37*
G36*
X140064067Y-110760933D02*
G01*
X139894733Y-110760933D01*
X139894733Y-110591600D01*
X140064067Y-110591600D01*
X140064067Y-110760933D01*
G37*
G36*
X141926733Y-108559600D02*
G01*
X142096067Y-108559600D01*
X142096067Y-108728933D01*
X141588067Y-108728933D01*
X141588067Y-108559600D01*
X141757400Y-108559600D01*
X141757400Y-108390266D01*
X141926733Y-108390266D01*
X141926733Y-108559600D01*
G37*
G36*
X140910733Y-109744933D02*
G01*
X140741400Y-109744933D01*
X140741400Y-109575600D01*
X140910733Y-109575600D01*
X140910733Y-109744933D01*
G37*
G36*
X143620066Y-109575600D02*
G01*
X144636066Y-109575600D01*
X144636066Y-110760933D01*
X143450733Y-110760933D01*
X143450733Y-110591600D01*
X143620066Y-110591600D01*
X144466733Y-110591600D01*
X144466733Y-109744933D01*
X143620066Y-109744933D01*
X143620066Y-110591600D01*
X143450733Y-110591600D01*
X143450733Y-109575600D01*
X143620066Y-109575600D01*
G37*
G36*
X141926733Y-108220933D02*
G01*
X141757400Y-108220933D01*
X141757400Y-108051600D01*
X141926733Y-108051600D01*
X141926733Y-108220933D01*
G37*
G36*
X142434733Y-108390266D02*
G01*
X142096067Y-108390266D01*
X142096067Y-108220933D01*
X142434733Y-108220933D01*
X142434733Y-108390266D01*
G37*
G36*
X142604066Y-108559600D02*
G01*
X142434733Y-108559600D01*
X142434733Y-108390266D01*
X142604066Y-108390266D01*
X142604066Y-108559600D01*
G37*
G36*
X141418733Y-108051600D02*
G01*
X141588067Y-108051600D01*
X141588067Y-108220933D01*
X141757400Y-108220933D01*
X141757400Y-108390266D01*
X141418733Y-108390266D01*
X141418733Y-108220933D01*
X141249400Y-108220933D01*
X141249400Y-108559600D01*
X141080066Y-108559600D01*
X141080066Y-108390266D01*
X140910733Y-108390266D01*
X140910733Y-108220933D01*
X141080066Y-108220933D01*
X141080066Y-107882267D01*
X141418733Y-107882267D01*
X141418733Y-108051600D01*
G37*
G36*
X140572067Y-107374267D02*
G01*
X140233400Y-107374267D01*
X140233400Y-107712933D01*
X139894733Y-107712933D01*
X139894733Y-107543600D01*
X140064067Y-107543600D01*
X140064067Y-107374267D01*
X139725400Y-107374267D01*
X139725400Y-107204933D01*
X140572067Y-107204933D01*
X140572067Y-107374267D01*
G37*
G36*
X142434733Y-106866267D02*
G01*
X142265400Y-106866267D01*
X142265400Y-106696933D01*
X142434733Y-106696933D01*
X142434733Y-106866267D01*
G37*
G36*
X142773400Y-108051600D02*
G01*
X142942733Y-108051600D01*
X142942733Y-108390266D01*
X143281400Y-108390266D01*
X143281400Y-108559600D01*
X143620066Y-108559600D01*
X143620066Y-108728933D01*
X143450733Y-108728933D01*
X143450733Y-108898266D01*
X143620066Y-108898266D01*
X143620066Y-109067600D01*
X143450733Y-109067600D01*
X143450733Y-109236933D01*
X143789400Y-109236933D01*
X143789400Y-109406267D01*
X143281400Y-109406267D01*
X143281400Y-109575600D01*
X142942733Y-109575600D01*
X142942733Y-109236933D01*
X142604066Y-109236933D01*
X142604066Y-108898266D01*
X142773400Y-108898266D01*
X142773400Y-109067600D01*
X143112066Y-109067600D01*
X143112066Y-109236933D01*
X143281400Y-109236933D01*
X143281400Y-108898266D01*
X143112066Y-108898266D01*
X143112066Y-108728933D01*
X142942733Y-108728933D01*
X142942733Y-108559600D01*
X142773400Y-108559600D01*
X142773400Y-108220933D01*
X142604066Y-108220933D01*
X142604066Y-108051600D01*
X142434733Y-108051600D01*
X142434733Y-107882267D01*
X142773400Y-107882267D01*
X142773400Y-108051600D01*
G37*
G36*
X139894733Y-110083600D02*
G01*
X140064067Y-110083600D01*
X140064067Y-110252933D01*
X140233400Y-110252933D01*
X140233400Y-110591600D01*
X140064067Y-110591600D01*
X140064067Y-110422266D01*
X139725400Y-110422266D01*
X139725400Y-109914266D01*
X139894733Y-109914266D01*
X139894733Y-110083600D01*
G37*
G36*
X144297400Y-110422266D02*
G01*
X143789400Y-110422266D01*
X143789400Y-109914266D01*
X144297400Y-109914266D01*
X144297400Y-110422266D01*
G37*
G36*
X142773400Y-110760933D02*
G01*
X142604066Y-110760933D01*
X142604066Y-110591600D01*
X142773400Y-110591600D01*
X142773400Y-110760933D01*
G37*
G36*
X141080066Y-107712933D02*
G01*
X140910733Y-107712933D01*
X140910733Y-108051600D01*
X140741400Y-108051600D01*
X140741400Y-107882267D01*
X140402733Y-107882267D01*
X140402733Y-107712933D01*
X140572067Y-107712933D01*
X140572067Y-107543600D01*
X140910733Y-107543600D01*
X140910733Y-107374267D01*
X140741400Y-107374267D01*
X140741400Y-107204933D01*
X141080066Y-107204933D01*
X141080066Y-107712933D01*
G37*
G36*
X140572067Y-106696933D02*
G01*
X140064067Y-106696933D01*
X140064067Y-106188933D01*
X140572067Y-106188933D01*
X140572067Y-106696933D01*
G37*
G36*
X144466733Y-107374267D02*
G01*
X144297400Y-107374267D01*
X144297400Y-107204933D01*
X144466733Y-107204933D01*
X144466733Y-107374267D01*
G37*
G36*
X142434733Y-106188933D02*
G01*
X142265400Y-106188933D01*
X142265400Y-105850267D01*
X142434733Y-105850267D01*
X142434733Y-106188933D01*
G37*
G36*
X144297400Y-106696933D02*
G01*
X143789400Y-106696933D01*
X143789400Y-106188933D01*
X144297400Y-106188933D01*
X144297400Y-106696933D01*
G37*
G36*
X142265400Y-108898266D02*
G01*
X142096067Y-108898266D01*
X142096067Y-108728933D01*
X142265400Y-108728933D01*
X142265400Y-108898266D01*
G37*
G36*
X142096067Y-107712933D02*
G01*
X142265400Y-107712933D01*
X142265400Y-108051600D01*
X142096067Y-108051600D01*
X142096067Y-107882267D01*
X141757400Y-107882267D01*
X141757400Y-107712933D01*
X141926733Y-107712933D01*
X141926733Y-107543600D01*
X142096067Y-107543600D01*
X142096067Y-107712933D01*
G37*
G36*
X143789400Y-108220933D02*
G01*
X144128066Y-108220933D01*
X144128066Y-108559600D01*
X144297400Y-108559600D01*
X144297400Y-108390266D01*
X144636066Y-108390266D01*
X144636066Y-108728933D01*
X144466733Y-108728933D01*
X144466733Y-108898266D01*
X144297400Y-108898266D01*
X144297400Y-108728933D01*
X144128066Y-108728933D01*
X144128066Y-108898266D01*
X144297400Y-108898266D01*
X144297400Y-109406267D01*
X143958733Y-109406267D01*
X143958733Y-109236933D01*
X144128066Y-109236933D01*
X144128066Y-109067600D01*
X143958733Y-109067600D01*
X143958733Y-109236933D01*
X143789400Y-109236933D01*
X143789400Y-108898266D01*
X143958733Y-108898266D01*
X143958733Y-108390266D01*
X143789400Y-108390266D01*
X143789400Y-108559600D01*
X143620066Y-108559600D01*
X143620066Y-108390266D01*
X143281400Y-108390266D01*
X143281400Y-108220933D01*
X143620066Y-108220933D01*
X143620066Y-108051600D01*
X143450733Y-108051600D01*
X143450733Y-107882267D01*
X143620066Y-107882267D01*
X143620066Y-107712933D01*
X143789400Y-107712933D01*
X143789400Y-108220933D01*
G37*
G36*
X144297400Y-108051600D02*
G01*
X144466733Y-108051600D01*
X144466733Y-108220933D01*
X144128066Y-108220933D01*
X144128066Y-108051600D01*
X143958733Y-108051600D01*
X143958733Y-107882267D01*
X144297400Y-107882267D01*
X144297400Y-108051600D01*
G37*
G36*
X140910733Y-108898266D02*
G01*
X140741400Y-108898266D01*
X140741400Y-108728933D01*
X140572067Y-108728933D01*
X140572067Y-108559600D01*
X140741400Y-108559600D01*
X140741400Y-108390266D01*
X140910733Y-108390266D01*
X140910733Y-108898266D01*
G37*
G36*
X143281400Y-110591600D02*
G01*
X142942733Y-110591600D01*
X142942733Y-110422266D01*
X143281400Y-110422266D01*
X143281400Y-110591600D01*
G37*
G36*
X139894733Y-105850267D02*
G01*
X140910733Y-105850267D01*
X140910733Y-107035600D01*
X139725400Y-107035600D01*
X139725400Y-106866267D01*
X139894733Y-106866267D01*
X140741400Y-106866267D01*
X140741400Y-106019600D01*
X139894733Y-106019600D01*
X139894733Y-106866267D01*
X139725400Y-106866267D01*
X139725400Y-105850267D01*
X139894733Y-105850267D01*
G37*
G36*
X142942733Y-108898266D02*
G01*
X142773400Y-108898266D01*
X142773400Y-108728933D01*
X142942733Y-108728933D01*
X142942733Y-108898266D01*
G37*
G36*
X142604066Y-107712933D02*
G01*
X142434733Y-107712933D01*
X142434733Y-107543600D01*
X142265400Y-107543600D01*
X142265400Y-107374267D01*
X142604066Y-107374267D01*
X142604066Y-107712933D01*
G37*
G36*
X141418733Y-108728933D02*
G01*
X141588067Y-108728933D01*
X141588067Y-108898266D01*
X141418733Y-108898266D01*
X141418733Y-109067600D01*
X141757400Y-109067600D01*
X141757400Y-108898266D01*
X142096067Y-108898266D01*
X142096067Y-109067600D01*
X142265400Y-109067600D01*
X142265400Y-109236933D01*
X142096067Y-109236933D01*
X142096067Y-109406267D01*
X141588067Y-109406267D01*
X141588067Y-109236933D01*
X141757400Y-109236933D01*
X141926733Y-109236933D01*
X141926733Y-109067600D01*
X141757400Y-109067600D01*
X141757400Y-109236933D01*
X141588067Y-109236933D01*
X141418733Y-109236933D01*
X141418733Y-110083600D01*
X141588067Y-110083600D01*
X141588067Y-109744933D01*
X141926733Y-109744933D01*
X141926733Y-109575600D01*
X142096067Y-109575600D01*
X142096067Y-110083600D01*
X141926733Y-110083600D01*
X141926733Y-109914266D01*
X141757400Y-109914266D01*
X141757400Y-110252933D01*
X141588067Y-110252933D01*
X141588067Y-110422266D01*
X141757400Y-110422266D01*
X141757400Y-110591600D01*
X141588067Y-110591600D01*
X141588067Y-110760933D01*
X141249400Y-110760933D01*
X141249400Y-110591600D01*
X140910733Y-110591600D01*
X140910733Y-110422266D01*
X141080066Y-110422266D01*
X141249400Y-110422266D01*
X141418733Y-110422266D01*
X141418733Y-110083600D01*
X141249400Y-110083600D01*
X141249400Y-110422266D01*
X141080066Y-110422266D01*
X141080066Y-110083600D01*
X140910733Y-110083600D01*
X140910733Y-110422266D01*
X140741400Y-110422266D01*
X140741400Y-110760933D01*
X140402733Y-110760933D01*
X140402733Y-110252933D01*
X140741400Y-110252933D01*
X140741400Y-110083600D01*
X140402733Y-110083600D01*
X140402733Y-109914266D01*
X140572067Y-109914266D01*
X140910733Y-109914266D01*
X141080066Y-109914266D01*
X141080066Y-109406267D01*
X140572067Y-109406267D01*
X140572067Y-109914266D01*
X140402733Y-109914266D01*
X140064067Y-109914266D01*
X140064067Y-109744933D01*
X140233400Y-109744933D01*
X140402733Y-109744933D01*
X140402733Y-109575600D01*
X140233400Y-109575600D01*
X140233400Y-109744933D01*
X140064067Y-109744933D01*
X140064067Y-109575600D01*
X139894733Y-109575600D01*
X139894733Y-109744933D01*
X139725400Y-109744933D01*
X139725400Y-109067600D01*
X139894733Y-109067600D01*
X139894733Y-109236933D01*
X140064067Y-109236933D01*
X140064067Y-109406267D01*
X140233400Y-109406267D01*
X140233400Y-109236933D01*
X140572067Y-109236933D01*
X140741400Y-109236933D01*
X140741400Y-109067600D01*
X140910733Y-109067600D01*
X140910733Y-108898266D01*
X141080066Y-108898266D01*
X141080066Y-109236933D01*
X141249400Y-109236933D01*
X141249400Y-108559600D01*
X141418733Y-108559600D01*
X141418733Y-108728933D01*
G37*
G36*
X143281400Y-106696933D02*
G01*
X142604066Y-106696933D01*
X142604066Y-106527600D01*
X142773400Y-106527600D01*
X142942733Y-106527600D01*
X143112066Y-106527600D01*
X143112066Y-106358267D01*
X142942733Y-106358267D01*
X142942733Y-106527600D01*
X142773400Y-106527600D01*
X142773400Y-106019600D01*
X142942733Y-106019600D01*
X142942733Y-105850267D01*
X143281400Y-105850267D01*
X143281400Y-106696933D01*
G37*
G36*
X144636066Y-108051600D02*
G01*
X144466733Y-108051600D01*
X144466733Y-107882267D01*
X144636066Y-107882267D01*
X144636066Y-108051600D01*
G37*
G36*
X141418733Y-107543600D02*
G01*
X141249400Y-107543600D01*
X141249400Y-107374267D01*
X141418733Y-107374267D01*
X141418733Y-107543600D01*
G37*
G36*
X144636066Y-107712933D02*
G01*
X144297400Y-107712933D01*
X144297400Y-107543600D01*
X144636066Y-107543600D01*
X144636066Y-107712933D01*
G37*
G36*
X143281400Y-107374267D02*
G01*
X143450733Y-107374267D01*
X143450733Y-107543600D01*
X143620066Y-107543600D01*
X143620066Y-107712933D01*
X143450733Y-107712933D01*
X143450733Y-107882267D01*
X143112066Y-107882267D01*
X143112066Y-107712933D01*
X143281400Y-107712933D01*
X143281400Y-107543600D01*
X143112066Y-107543600D01*
X143112066Y-107374267D01*
X142773400Y-107374267D01*
X142773400Y-107204933D01*
X143112066Y-107204933D01*
X143112066Y-106866267D01*
X143281400Y-106866267D01*
X143281400Y-107374267D01*
G37*
G36*
X142773400Y-108728933D02*
G01*
X142604066Y-108728933D01*
X142604066Y-108559600D01*
X142773400Y-108559600D01*
X142773400Y-108728933D01*
G37*
G36*
X142434733Y-110252933D02*
G01*
X142265400Y-110252933D01*
X142265400Y-110422266D01*
X142434733Y-110422266D01*
X142434733Y-110591600D01*
X142265400Y-110591600D01*
X142265400Y-110760933D01*
X141926733Y-110760933D01*
X141926733Y-110422266D01*
X142096067Y-110422266D01*
X142096067Y-110083600D01*
X142434733Y-110083600D01*
X142434733Y-110252933D01*
G37*
G36*
X143789400Y-108898266D02*
G01*
X143620066Y-108898266D01*
X143620066Y-108728933D01*
X143789400Y-108728933D01*
X143789400Y-108898266D01*
G37*
G36*
X141757400Y-106358267D02*
G01*
X141588067Y-106358267D01*
X141588067Y-106527600D01*
X141757400Y-106527600D01*
X141757400Y-106696933D01*
X141418733Y-106696933D01*
X141418733Y-106866267D01*
X141249400Y-106866267D01*
X141249400Y-107035600D01*
X141418733Y-107035600D01*
X141418733Y-106866267D01*
X141588067Y-106866267D01*
X141588067Y-107204933D01*
X141757400Y-107204933D01*
X141757400Y-107374267D01*
X141418733Y-107374267D01*
X141418733Y-107204933D01*
X141080066Y-107204933D01*
X141080066Y-106696933D01*
X141249400Y-106696933D01*
X141418733Y-106696933D01*
X141418733Y-106527600D01*
X141249400Y-106527600D01*
X141249400Y-106696933D01*
X141080066Y-106696933D01*
X141080066Y-106358267D01*
X141249400Y-106358267D01*
X141418733Y-106358267D01*
X141418733Y-106188933D01*
X141757400Y-106188933D01*
X141757400Y-106358267D01*
G37*
G36*
X143620066Y-105850267D02*
G01*
X144636066Y-105850267D01*
X144636066Y-107035600D01*
X143450733Y-107035600D01*
X143450733Y-106866267D01*
X143620066Y-106866267D01*
X144466733Y-106866267D01*
X144466733Y-106019600D01*
X143620066Y-106019600D01*
X143620066Y-106866267D01*
X143450733Y-106866267D01*
X143450733Y-105850267D01*
X143620066Y-105850267D01*
G37*
G36*
X141926733Y-106527600D02*
G01*
X141757400Y-106527600D01*
X141757400Y-106358267D01*
X141926733Y-106358267D01*
X141926733Y-106527600D01*
G37*
G36*
X141757400Y-107712933D02*
G01*
X141588067Y-107712933D01*
X141588067Y-107543600D01*
X141757400Y-107543600D01*
X141757400Y-107712933D01*
G37*
G36*
X142096067Y-107374267D02*
G01*
X141926733Y-107374267D01*
X141926733Y-107204933D01*
X142096067Y-107204933D01*
X142096067Y-107374267D01*
G37*
G36*
X142604066Y-108898266D02*
G01*
X142434733Y-108898266D01*
X142434733Y-108728933D01*
X142604066Y-108728933D01*
X142604066Y-108898266D01*
G37*
G36*
X141926733Y-107204933D02*
G01*
X141757400Y-107204933D01*
X141757400Y-106696933D01*
X141926733Y-106696933D01*
X141926733Y-107204933D01*
G37*
G36*
X143112066Y-107712933D02*
G01*
X142773400Y-107712933D01*
X142773400Y-107543600D01*
X143112066Y-107543600D01*
X143112066Y-107712933D01*
G37*
G36*
X142096067Y-106358267D02*
G01*
X141926733Y-106358267D01*
X141926733Y-106188933D01*
X142096067Y-106188933D01*
X142096067Y-106358267D01*
G37*
D11*
X161283788Y-98331520D02*
X161426645Y-98379139D01*
X161426645Y-98379139D02*
X161474264Y-98426758D01*
X161474264Y-98426758D02*
X161521883Y-98521996D01*
X161521883Y-98521996D02*
X161521883Y-98664853D01*
X161521883Y-98664853D02*
X161474264Y-98760091D01*
X161474264Y-98760091D02*
X161426645Y-98807711D01*
X161426645Y-98807711D02*
X161331407Y-98855330D01*
X161331407Y-98855330D02*
X160950455Y-98855330D01*
X160950455Y-98855330D02*
X160950455Y-97855330D01*
X160950455Y-97855330D02*
X161283788Y-97855330D01*
X161283788Y-97855330D02*
X161379026Y-97902949D01*
X161379026Y-97902949D02*
X161426645Y-97950568D01*
X161426645Y-97950568D02*
X161474264Y-98045806D01*
X161474264Y-98045806D02*
X161474264Y-98141044D01*
X161474264Y-98141044D02*
X161426645Y-98236282D01*
X161426645Y-98236282D02*
X161379026Y-98283901D01*
X161379026Y-98283901D02*
X161283788Y-98331520D01*
X161283788Y-98331520D02*
X160950455Y-98331520D01*
X162140931Y-97855330D02*
X162331407Y-97855330D01*
X162331407Y-97855330D02*
X162426645Y-97902949D01*
X162426645Y-97902949D02*
X162521883Y-97998187D01*
X162521883Y-97998187D02*
X162569502Y-98188663D01*
X162569502Y-98188663D02*
X162569502Y-98521996D01*
X162569502Y-98521996D02*
X162521883Y-98712472D01*
X162521883Y-98712472D02*
X162426645Y-98807711D01*
X162426645Y-98807711D02*
X162331407Y-98855330D01*
X162331407Y-98855330D02*
X162140931Y-98855330D01*
X162140931Y-98855330D02*
X162045693Y-98807711D01*
X162045693Y-98807711D02*
X161950455Y-98712472D01*
X161950455Y-98712472D02*
X161902836Y-98521996D01*
X161902836Y-98521996D02*
X161902836Y-98188663D01*
X161902836Y-98188663D02*
X161950455Y-97998187D01*
X161950455Y-97998187D02*
X162045693Y-97902949D01*
X162045693Y-97902949D02*
X162140931Y-97855330D01*
X163188550Y-97855330D02*
X163379026Y-97855330D01*
X163379026Y-97855330D02*
X163474264Y-97902949D01*
X163474264Y-97902949D02*
X163569502Y-97998187D01*
X163569502Y-97998187D02*
X163617121Y-98188663D01*
X163617121Y-98188663D02*
X163617121Y-98521996D01*
X163617121Y-98521996D02*
X163569502Y-98712472D01*
X163569502Y-98712472D02*
X163474264Y-98807711D01*
X163474264Y-98807711D02*
X163379026Y-98855330D01*
X163379026Y-98855330D02*
X163188550Y-98855330D01*
X163188550Y-98855330D02*
X163093312Y-98807711D01*
X163093312Y-98807711D02*
X162998074Y-98712472D01*
X162998074Y-98712472D02*
X162950455Y-98521996D01*
X162950455Y-98521996D02*
X162950455Y-98188663D01*
X162950455Y-98188663D02*
X162998074Y-97998187D01*
X162998074Y-97998187D02*
X163093312Y-97902949D01*
X163093312Y-97902949D02*
X163188550Y-97855330D01*
X163902836Y-97855330D02*
X164474264Y-97855330D01*
X164188550Y-98855330D02*
X164188550Y-97855330D01*
X164759979Y-98807711D02*
X164902836Y-98855330D01*
X164902836Y-98855330D02*
X165140931Y-98855330D01*
X165140931Y-98855330D02*
X165236169Y-98807711D01*
X165236169Y-98807711D02*
X165283788Y-98760091D01*
X165283788Y-98760091D02*
X165331407Y-98664853D01*
X165331407Y-98664853D02*
X165331407Y-98569615D01*
X165331407Y-98569615D02*
X165283788Y-98474377D01*
X165283788Y-98474377D02*
X165236169Y-98426758D01*
X165236169Y-98426758D02*
X165140931Y-98379139D01*
X165140931Y-98379139D02*
X164950455Y-98331520D01*
X164950455Y-98331520D02*
X164855217Y-98283901D01*
X164855217Y-98283901D02*
X164807598Y-98236282D01*
X164807598Y-98236282D02*
X164759979Y-98141044D01*
X164759979Y-98141044D02*
X164759979Y-98045806D01*
X164759979Y-98045806D02*
X164807598Y-97950568D01*
X164807598Y-97950568D02*
X164855217Y-97902949D01*
X164855217Y-97902949D02*
X164950455Y-97855330D01*
X164950455Y-97855330D02*
X165188550Y-97855330D01*
X165188550Y-97855330D02*
X165331407Y-97902949D01*
X165759979Y-98331520D02*
X166093312Y-98331520D01*
X166236169Y-98855330D02*
X165759979Y-98855330D01*
X165759979Y-98855330D02*
X165759979Y-97855330D01*
X165759979Y-97855330D02*
X166236169Y-97855330D01*
X167140931Y-98855330D02*
X166664741Y-98855330D01*
X166664741Y-98855330D02*
X166664741Y-97855330D01*
X137556791Y-100736779D02*
X136556791Y-100736779D01*
X137509172Y-100736779D02*
X137556791Y-100832017D01*
X137556791Y-100832017D02*
X137556791Y-101022493D01*
X137556791Y-101022493D02*
X137509172Y-101117731D01*
X137509172Y-101117731D02*
X137461553Y-101165350D01*
X137461553Y-101165350D02*
X137366315Y-101212969D01*
X137366315Y-101212969D02*
X137080601Y-101212969D01*
X137080601Y-101212969D02*
X136985363Y-101165350D01*
X136985363Y-101165350D02*
X136937744Y-101117731D01*
X136937744Y-101117731D02*
X136890124Y-101022493D01*
X136890124Y-101022493D02*
X136890124Y-100832017D01*
X136890124Y-100832017D02*
X136937744Y-100736779D01*
X136890124Y-101641541D02*
X137556791Y-101641541D01*
X137366315Y-101641541D02*
X137461553Y-101689160D01*
X137461553Y-101689160D02*
X137509172Y-101736779D01*
X137509172Y-101736779D02*
X137556791Y-101832017D01*
X137556791Y-101832017D02*
X137556791Y-101927255D01*
X136890124Y-102403446D02*
X136937744Y-102308208D01*
X136937744Y-102308208D02*
X136985363Y-102260589D01*
X136985363Y-102260589D02*
X137080601Y-102212970D01*
X137080601Y-102212970D02*
X137366315Y-102212970D01*
X137366315Y-102212970D02*
X137461553Y-102260589D01*
X137461553Y-102260589D02*
X137509172Y-102308208D01*
X137509172Y-102308208D02*
X137556791Y-102403446D01*
X137556791Y-102403446D02*
X137556791Y-102546303D01*
X137556791Y-102546303D02*
X137509172Y-102641541D01*
X137509172Y-102641541D02*
X137461553Y-102689160D01*
X137461553Y-102689160D02*
X137366315Y-102736779D01*
X137366315Y-102736779D02*
X137080601Y-102736779D01*
X137080601Y-102736779D02*
X136985363Y-102689160D01*
X136985363Y-102689160D02*
X136937744Y-102641541D01*
X136937744Y-102641541D02*
X136890124Y-102546303D01*
X136890124Y-102546303D02*
X136890124Y-102403446D01*
X137556791Y-103165351D02*
X136699648Y-103165351D01*
X136699648Y-103165351D02*
X136604410Y-103117732D01*
X136604410Y-103117732D02*
X136556791Y-103022494D01*
X136556791Y-103022494D02*
X136556791Y-102974875D01*
X137890124Y-103165351D02*
X137842505Y-103117732D01*
X137842505Y-103117732D02*
X137794886Y-103165351D01*
X137794886Y-103165351D02*
X137842505Y-103212970D01*
X137842505Y-103212970D02*
X137890124Y-103165351D01*
X137890124Y-103165351D02*
X137794886Y-103165351D01*
X136937744Y-104022493D02*
X136890124Y-103927255D01*
X136890124Y-103927255D02*
X136890124Y-103736779D01*
X136890124Y-103736779D02*
X136937744Y-103641541D01*
X136937744Y-103641541D02*
X137032982Y-103593922D01*
X137032982Y-103593922D02*
X137413934Y-103593922D01*
X137413934Y-103593922D02*
X137509172Y-103641541D01*
X137509172Y-103641541D02*
X137556791Y-103736779D01*
X137556791Y-103736779D02*
X137556791Y-103927255D01*
X137556791Y-103927255D02*
X137509172Y-104022493D01*
X137509172Y-104022493D02*
X137413934Y-104070112D01*
X137413934Y-104070112D02*
X137318696Y-104070112D01*
X137318696Y-104070112D02*
X137223458Y-103593922D01*
X136937744Y-104927255D02*
X136890124Y-104832017D01*
X136890124Y-104832017D02*
X136890124Y-104641541D01*
X136890124Y-104641541D02*
X136937744Y-104546303D01*
X136937744Y-104546303D02*
X136985363Y-104498684D01*
X136985363Y-104498684D02*
X137080601Y-104451065D01*
X137080601Y-104451065D02*
X137366315Y-104451065D01*
X137366315Y-104451065D02*
X137461553Y-104498684D01*
X137461553Y-104498684D02*
X137509172Y-104546303D01*
X137509172Y-104546303D02*
X137556791Y-104641541D01*
X137556791Y-104641541D02*
X137556791Y-104832017D01*
X137556791Y-104832017D02*
X137509172Y-104927255D01*
X137556791Y-105212970D02*
X137556791Y-105593922D01*
X137890124Y-105355827D02*
X137032982Y-105355827D01*
X137032982Y-105355827D02*
X136937744Y-105403446D01*
X136937744Y-105403446D02*
X136890124Y-105498684D01*
X136890124Y-105498684D02*
X136890124Y-105593922D01*
X137556791Y-106689161D02*
X136556791Y-106689161D01*
X137509172Y-106689161D02*
X137556791Y-106784399D01*
X137556791Y-106784399D02*
X137556791Y-106974875D01*
X137556791Y-106974875D02*
X137509172Y-107070113D01*
X137509172Y-107070113D02*
X137461553Y-107117732D01*
X137461553Y-107117732D02*
X137366315Y-107165351D01*
X137366315Y-107165351D02*
X137080601Y-107165351D01*
X137080601Y-107165351D02*
X136985363Y-107117732D01*
X136985363Y-107117732D02*
X136937744Y-107070113D01*
X136937744Y-107070113D02*
X136890124Y-106974875D01*
X136890124Y-106974875D02*
X136890124Y-106784399D01*
X136890124Y-106784399D02*
X136937744Y-106689161D01*
X136890124Y-107593923D02*
X137556791Y-107593923D01*
X137890124Y-107593923D02*
X137842505Y-107546304D01*
X137842505Y-107546304D02*
X137794886Y-107593923D01*
X137794886Y-107593923D02*
X137842505Y-107641542D01*
X137842505Y-107641542D02*
X137890124Y-107593923D01*
X137890124Y-107593923D02*
X137794886Y-107593923D01*
X136985363Y-108641541D02*
X136937744Y-108593922D01*
X136937744Y-108593922D02*
X136890124Y-108451065D01*
X136890124Y-108451065D02*
X136890124Y-108355827D01*
X136890124Y-108355827D02*
X136937744Y-108212970D01*
X136937744Y-108212970D02*
X137032982Y-108117732D01*
X137032982Y-108117732D02*
X137128220Y-108070113D01*
X137128220Y-108070113D02*
X137318696Y-108022494D01*
X137318696Y-108022494D02*
X137461553Y-108022494D01*
X137461553Y-108022494D02*
X137652029Y-108070113D01*
X137652029Y-108070113D02*
X137747267Y-108117732D01*
X137747267Y-108117732D02*
X137842505Y-108212970D01*
X137842505Y-108212970D02*
X137890124Y-108355827D01*
X137890124Y-108355827D02*
X137890124Y-108451065D01*
X137890124Y-108451065D02*
X137842505Y-108593922D01*
X137842505Y-108593922D02*
X137794886Y-108641541D01*
X136890124Y-109212970D02*
X136937744Y-109117732D01*
X136937744Y-109117732D02*
X136985363Y-109070113D01*
X136985363Y-109070113D02*
X137080601Y-109022494D01*
X137080601Y-109022494D02*
X137366315Y-109022494D01*
X137366315Y-109022494D02*
X137461553Y-109070113D01*
X137461553Y-109070113D02*
X137509172Y-109117732D01*
X137509172Y-109117732D02*
X137556791Y-109212970D01*
X137556791Y-109212970D02*
X137556791Y-109355827D01*
X137556791Y-109355827D02*
X137509172Y-109451065D01*
X137509172Y-109451065D02*
X137461553Y-109498684D01*
X137461553Y-109498684D02*
X137366315Y-109546303D01*
X137366315Y-109546303D02*
X137080601Y-109546303D01*
X137080601Y-109546303D02*
X136985363Y-109498684D01*
X136985363Y-109498684D02*
X136937744Y-109451065D01*
X136937744Y-109451065D02*
X136890124Y-109355827D01*
X136890124Y-109355827D02*
X136890124Y-109212970D01*
X135946847Y-100641541D02*
X135280180Y-100879636D01*
X135280180Y-100879636D02*
X135946847Y-101117731D01*
X135946847Y-101927255D02*
X135280180Y-101927255D01*
X136327800Y-101689160D02*
X135613514Y-101451065D01*
X135613514Y-101451065D02*
X135613514Y-102070112D01*
X135280180Y-103212970D02*
X136280180Y-103212970D01*
X135899228Y-103212970D02*
X135946847Y-103308208D01*
X135946847Y-103308208D02*
X135946847Y-103498684D01*
X135946847Y-103498684D02*
X135899228Y-103593922D01*
X135899228Y-103593922D02*
X135851609Y-103641541D01*
X135851609Y-103641541D02*
X135756371Y-103689160D01*
X135756371Y-103689160D02*
X135470657Y-103689160D01*
X135470657Y-103689160D02*
X135375419Y-103641541D01*
X135375419Y-103641541D02*
X135327800Y-103593922D01*
X135327800Y-103593922D02*
X135280180Y-103498684D01*
X135280180Y-103498684D02*
X135280180Y-103308208D01*
X135280180Y-103308208D02*
X135327800Y-103212970D01*
X135946847Y-104022494D02*
X135280180Y-104260589D01*
X135946847Y-104498684D02*
X135280180Y-104260589D01*
X135280180Y-104260589D02*
X135042085Y-104165351D01*
X135042085Y-104165351D02*
X134994466Y-104117732D01*
X134994466Y-104117732D02*
X134946847Y-104022494D01*
X135375419Y-106212970D02*
X135327800Y-106165351D01*
X135327800Y-106165351D02*
X135280180Y-106022494D01*
X135280180Y-106022494D02*
X135280180Y-105927256D01*
X135280180Y-105927256D02*
X135327800Y-105784399D01*
X135327800Y-105784399D02*
X135423038Y-105689161D01*
X135423038Y-105689161D02*
X135518276Y-105641542D01*
X135518276Y-105641542D02*
X135708752Y-105593923D01*
X135708752Y-105593923D02*
X135851609Y-105593923D01*
X135851609Y-105593923D02*
X136042085Y-105641542D01*
X136042085Y-105641542D02*
X136137323Y-105689161D01*
X136137323Y-105689161D02*
X136232561Y-105784399D01*
X136232561Y-105784399D02*
X136280180Y-105927256D01*
X136280180Y-105927256D02*
X136280180Y-106022494D01*
X136280180Y-106022494D02*
X136232561Y-106165351D01*
X136232561Y-106165351D02*
X136184942Y-106212970D01*
X135327800Y-106593923D02*
X135280180Y-106736780D01*
X135280180Y-106736780D02*
X135280180Y-106974875D01*
X135280180Y-106974875D02*
X135327800Y-107070113D01*
X135327800Y-107070113D02*
X135375419Y-107117732D01*
X135375419Y-107117732D02*
X135470657Y-107165351D01*
X135470657Y-107165351D02*
X135565895Y-107165351D01*
X135565895Y-107165351D02*
X135661133Y-107117732D01*
X135661133Y-107117732D02*
X135708752Y-107070113D01*
X135708752Y-107070113D02*
X135756371Y-106974875D01*
X135756371Y-106974875D02*
X135803990Y-106784399D01*
X135803990Y-106784399D02*
X135851609Y-106689161D01*
X135851609Y-106689161D02*
X135899228Y-106641542D01*
X135899228Y-106641542D02*
X135994466Y-106593923D01*
X135994466Y-106593923D02*
X136089704Y-106593923D01*
X136089704Y-106593923D02*
X136184942Y-106641542D01*
X136184942Y-106641542D02*
X136232561Y-106689161D01*
X136232561Y-106689161D02*
X136280180Y-106784399D01*
X136280180Y-106784399D02*
X136280180Y-107022494D01*
X136280180Y-107022494D02*
X136232561Y-107165351D01*
X170471722Y-103260915D02*
X169662199Y-103260915D01*
X169662199Y-103260915D02*
X169566961Y-103308534D01*
X169566961Y-103308534D02*
X169519342Y-103356153D01*
X169519342Y-103356153D02*
X169471722Y-103451391D01*
X169471722Y-103451391D02*
X169471722Y-103641867D01*
X169471722Y-103641867D02*
X169519342Y-103737105D01*
X169519342Y-103737105D02*
X169566961Y-103784724D01*
X169566961Y-103784724D02*
X169662199Y-103832343D01*
X169662199Y-103832343D02*
X170471722Y-103832343D01*
X169519342Y-104260915D02*
X169471722Y-104403772D01*
X169471722Y-104403772D02*
X169471722Y-104641867D01*
X169471722Y-104641867D02*
X169519342Y-104737105D01*
X169519342Y-104737105D02*
X169566961Y-104784724D01*
X169566961Y-104784724D02*
X169662199Y-104832343D01*
X169662199Y-104832343D02*
X169757437Y-104832343D01*
X169757437Y-104832343D02*
X169852675Y-104784724D01*
X169852675Y-104784724D02*
X169900294Y-104737105D01*
X169900294Y-104737105D02*
X169947913Y-104641867D01*
X169947913Y-104641867D02*
X169995532Y-104451391D01*
X169995532Y-104451391D02*
X170043151Y-104356153D01*
X170043151Y-104356153D02*
X170090770Y-104308534D01*
X170090770Y-104308534D02*
X170186008Y-104260915D01*
X170186008Y-104260915D02*
X170281246Y-104260915D01*
X170281246Y-104260915D02*
X170376484Y-104308534D01*
X170376484Y-104308534D02*
X170424103Y-104356153D01*
X170424103Y-104356153D02*
X170471722Y-104451391D01*
X170471722Y-104451391D02*
X170471722Y-104689486D01*
X170471722Y-104689486D02*
X170424103Y-104832343D01*
X169995532Y-105594248D02*
X169947913Y-105737105D01*
X169947913Y-105737105D02*
X169900294Y-105784724D01*
X169900294Y-105784724D02*
X169805056Y-105832343D01*
X169805056Y-105832343D02*
X169662199Y-105832343D01*
X169662199Y-105832343D02*
X169566961Y-105784724D01*
X169566961Y-105784724D02*
X169519342Y-105737105D01*
X169519342Y-105737105D02*
X169471722Y-105641867D01*
X169471722Y-105641867D02*
X169471722Y-105260915D01*
X169471722Y-105260915D02*
X170471722Y-105260915D01*
X170471722Y-105260915D02*
X170471722Y-105594248D01*
X170471722Y-105594248D02*
X170424103Y-105689486D01*
X170424103Y-105689486D02*
X170376484Y-105737105D01*
X170376484Y-105737105D02*
X170281246Y-105784724D01*
X170281246Y-105784724D02*
X170186008Y-105784724D01*
X170186008Y-105784724D02*
X170090770Y-105737105D01*
X170090770Y-105737105D02*
X170043151Y-105689486D01*
X170043151Y-105689486D02*
X169995532Y-105594248D01*
X169995532Y-105594248D02*
X169995532Y-105260915D01*
D12*
X169403104Y-97337217D02*
X169403104Y-96956265D01*
X169403104Y-96956265D02*
X170203104Y-96956265D01*
X169822152Y-97603884D02*
X169822152Y-97870550D01*
X169403104Y-97984836D02*
X169403104Y-97603884D01*
X169403104Y-97603884D02*
X170203104Y-97603884D01*
X170203104Y-97603884D02*
X170203104Y-97984836D01*
X169403104Y-98327694D02*
X170203104Y-98327694D01*
X170203104Y-98327694D02*
X170203104Y-98518170D01*
X170203104Y-98518170D02*
X170165009Y-98632456D01*
X170165009Y-98632456D02*
X170088819Y-98708646D01*
X170088819Y-98708646D02*
X170012628Y-98746741D01*
X170012628Y-98746741D02*
X169860247Y-98784837D01*
X169860247Y-98784837D02*
X169745961Y-98784837D01*
X169745961Y-98784837D02*
X169593580Y-98746741D01*
X169593580Y-98746741D02*
X169517390Y-98708646D01*
X169517390Y-98708646D02*
X169441200Y-98632456D01*
X169441200Y-98632456D02*
X169403104Y-98518170D01*
X169403104Y-98518170D02*
X169403104Y-98327694D01*
D11*
X127235179Y-101419019D02*
X127235179Y-100419019D01*
X127235179Y-100419019D02*
X127473274Y-100419019D01*
X127473274Y-100419019D02*
X127616131Y-100466638D01*
X127616131Y-100466638D02*
X127711369Y-100561876D01*
X127711369Y-100561876D02*
X127758988Y-100657114D01*
X127758988Y-100657114D02*
X127806607Y-100847590D01*
X127806607Y-100847590D02*
X127806607Y-100990447D01*
X127806607Y-100990447D02*
X127758988Y-101180923D01*
X127758988Y-101180923D02*
X127711369Y-101276161D01*
X127711369Y-101276161D02*
X127616131Y-101371400D01*
X127616131Y-101371400D02*
X127473274Y-101419019D01*
X127473274Y-101419019D02*
X127235179Y-101419019D01*
X128235179Y-100895209D02*
X128568512Y-100895209D01*
X128711369Y-101419019D02*
X128235179Y-101419019D01*
X128235179Y-101419019D02*
X128235179Y-100419019D01*
X128235179Y-100419019D02*
X128711369Y-100419019D01*
X129473274Y-100895209D02*
X129616131Y-100942828D01*
X129616131Y-100942828D02*
X129663750Y-100990447D01*
X129663750Y-100990447D02*
X129711369Y-101085685D01*
X129711369Y-101085685D02*
X129711369Y-101228542D01*
X129711369Y-101228542D02*
X129663750Y-101323780D01*
X129663750Y-101323780D02*
X129616131Y-101371400D01*
X129616131Y-101371400D02*
X129520893Y-101419019D01*
X129520893Y-101419019D02*
X129139941Y-101419019D01*
X129139941Y-101419019D02*
X129139941Y-100419019D01*
X129139941Y-100419019D02*
X129473274Y-100419019D01*
X129473274Y-100419019D02*
X129568512Y-100466638D01*
X129568512Y-100466638D02*
X129616131Y-100514257D01*
X129616131Y-100514257D02*
X129663750Y-100609495D01*
X129663750Y-100609495D02*
X129663750Y-100704733D01*
X129663750Y-100704733D02*
X129616131Y-100799971D01*
X129616131Y-100799971D02*
X129568512Y-100847590D01*
X129568512Y-100847590D02*
X129473274Y-100895209D01*
X129473274Y-100895209D02*
X129139941Y-100895209D01*
X130139941Y-100419019D02*
X130139941Y-101228542D01*
X130139941Y-101228542D02*
X130187560Y-101323780D01*
X130187560Y-101323780D02*
X130235179Y-101371400D01*
X130235179Y-101371400D02*
X130330417Y-101419019D01*
X130330417Y-101419019D02*
X130520893Y-101419019D01*
X130520893Y-101419019D02*
X130616131Y-101371400D01*
X130616131Y-101371400D02*
X130663750Y-101323780D01*
X130663750Y-101323780D02*
X130711369Y-101228542D01*
X130711369Y-101228542D02*
X130711369Y-100419019D01*
X131711369Y-100466638D02*
X131616131Y-100419019D01*
X131616131Y-100419019D02*
X131473274Y-100419019D01*
X131473274Y-100419019D02*
X131330417Y-100466638D01*
X131330417Y-100466638D02*
X131235179Y-100561876D01*
X131235179Y-100561876D02*
X131187560Y-100657114D01*
X131187560Y-100657114D02*
X131139941Y-100847590D01*
X131139941Y-100847590D02*
X131139941Y-100990447D01*
X131139941Y-100990447D02*
X131187560Y-101180923D01*
X131187560Y-101180923D02*
X131235179Y-101276161D01*
X131235179Y-101276161D02*
X131330417Y-101371400D01*
X131330417Y-101371400D02*
X131473274Y-101419019D01*
X131473274Y-101419019D02*
X131568512Y-101419019D01*
X131568512Y-101419019D02*
X131711369Y-101371400D01*
X131711369Y-101371400D02*
X131758988Y-101323780D01*
X131758988Y-101323780D02*
X131758988Y-100990447D01*
X131758988Y-100990447D02*
X131568512Y-100990447D01*
D12*
X172513104Y-111120074D02*
X172513104Y-111615312D01*
X172513104Y-111615312D02*
X172208342Y-111348646D01*
X172208342Y-111348646D02*
X172208342Y-111462931D01*
X172208342Y-111462931D02*
X172170247Y-111539122D01*
X172170247Y-111539122D02*
X172132152Y-111577217D01*
X172132152Y-111577217D02*
X172055961Y-111615312D01*
X172055961Y-111615312D02*
X171865485Y-111615312D01*
X171865485Y-111615312D02*
X171789295Y-111577217D01*
X171789295Y-111577217D02*
X171751200Y-111539122D01*
X171751200Y-111539122D02*
X171713104Y-111462931D01*
X171713104Y-111462931D02*
X171713104Y-111234360D01*
X171713104Y-111234360D02*
X171751200Y-111158169D01*
X171751200Y-111158169D02*
X171789295Y-111120074D01*
X171713104Y-111996265D02*
X171713104Y-112148646D01*
X171713104Y-112148646D02*
X171751200Y-112224836D01*
X171751200Y-112224836D02*
X171789295Y-112262932D01*
X171789295Y-112262932D02*
X171903580Y-112339122D01*
X171903580Y-112339122D02*
X172055961Y-112377217D01*
X172055961Y-112377217D02*
X172360723Y-112377217D01*
X172360723Y-112377217D02*
X172436914Y-112339122D01*
X172436914Y-112339122D02*
X172475009Y-112301027D01*
X172475009Y-112301027D02*
X172513104Y-112224836D01*
X172513104Y-112224836D02*
X172513104Y-112072455D01*
X172513104Y-112072455D02*
X172475009Y-111996265D01*
X172475009Y-111996265D02*
X172436914Y-111958170D01*
X172436914Y-111958170D02*
X172360723Y-111920074D01*
X172360723Y-111920074D02*
X172170247Y-111920074D01*
X172170247Y-111920074D02*
X172094057Y-111958170D01*
X172094057Y-111958170D02*
X172055961Y-111996265D01*
X172055961Y-111996265D02*
X172017866Y-112072455D01*
X172017866Y-112072455D02*
X172017866Y-112224836D01*
X172017866Y-112224836D02*
X172055961Y-112301027D01*
X172055961Y-112301027D02*
X172094057Y-112339122D01*
X172094057Y-112339122D02*
X172170247Y-112377217D01*
X144496914Y-111158169D02*
X144535009Y-111196265D01*
X144535009Y-111196265D02*
X144573104Y-111272455D01*
X144573104Y-111272455D02*
X144573104Y-111462931D01*
X144573104Y-111462931D02*
X144535009Y-111539122D01*
X144535009Y-111539122D02*
X144496914Y-111577217D01*
X144496914Y-111577217D02*
X144420723Y-111615312D01*
X144420723Y-111615312D02*
X144344533Y-111615312D01*
X144344533Y-111615312D02*
X144230247Y-111577217D01*
X144230247Y-111577217D02*
X143773104Y-111120074D01*
X143773104Y-111120074D02*
X143773104Y-111615312D01*
X144230247Y-112072455D02*
X144268342Y-111996265D01*
X144268342Y-111996265D02*
X144306438Y-111958170D01*
X144306438Y-111958170D02*
X144382628Y-111920074D01*
X144382628Y-111920074D02*
X144420723Y-111920074D01*
X144420723Y-111920074D02*
X144496914Y-111958170D01*
X144496914Y-111958170D02*
X144535009Y-111996265D01*
X144535009Y-111996265D02*
X144573104Y-112072455D01*
X144573104Y-112072455D02*
X144573104Y-112224836D01*
X144573104Y-112224836D02*
X144535009Y-112301027D01*
X144535009Y-112301027D02*
X144496914Y-112339122D01*
X144496914Y-112339122D02*
X144420723Y-112377217D01*
X144420723Y-112377217D02*
X144382628Y-112377217D01*
X144382628Y-112377217D02*
X144306438Y-112339122D01*
X144306438Y-112339122D02*
X144268342Y-112301027D01*
X144268342Y-112301027D02*
X144230247Y-112224836D01*
X144230247Y-112224836D02*
X144230247Y-112072455D01*
X144230247Y-112072455D02*
X144192152Y-111996265D01*
X144192152Y-111996265D02*
X144154057Y-111958170D01*
X144154057Y-111958170D02*
X144077866Y-111920074D01*
X144077866Y-111920074D02*
X143925485Y-111920074D01*
X143925485Y-111920074D02*
X143849295Y-111958170D01*
X143849295Y-111958170D02*
X143811200Y-111996265D01*
X143811200Y-111996265D02*
X143773104Y-112072455D01*
X143773104Y-112072455D02*
X143773104Y-112224836D01*
X143773104Y-112224836D02*
X143811200Y-112301027D01*
X143811200Y-112301027D02*
X143849295Y-112339122D01*
X143849295Y-112339122D02*
X143925485Y-112377217D01*
X143925485Y-112377217D02*
X144077866Y-112377217D01*
X144077866Y-112377217D02*
X144154057Y-112339122D01*
X144154057Y-112339122D02*
X144192152Y-112301027D01*
X144192152Y-112301027D02*
X144230247Y-112224836D01*
X131796914Y-111158169D02*
X131835009Y-111196265D01*
X131835009Y-111196265D02*
X131873104Y-111272455D01*
X131873104Y-111272455D02*
X131873104Y-111462931D01*
X131873104Y-111462931D02*
X131835009Y-111539122D01*
X131835009Y-111539122D02*
X131796914Y-111577217D01*
X131796914Y-111577217D02*
X131720723Y-111615312D01*
X131720723Y-111615312D02*
X131644533Y-111615312D01*
X131644533Y-111615312D02*
X131530247Y-111577217D01*
X131530247Y-111577217D02*
X131073104Y-111120074D01*
X131073104Y-111120074D02*
X131073104Y-111615312D01*
X131873104Y-111881979D02*
X131873104Y-112377217D01*
X131873104Y-112377217D02*
X131568342Y-112110551D01*
X131568342Y-112110551D02*
X131568342Y-112224836D01*
X131568342Y-112224836D02*
X131530247Y-112301027D01*
X131530247Y-112301027D02*
X131492152Y-112339122D01*
X131492152Y-112339122D02*
X131415961Y-112377217D01*
X131415961Y-112377217D02*
X131225485Y-112377217D01*
X131225485Y-112377217D02*
X131149295Y-112339122D01*
X131149295Y-112339122D02*
X131111200Y-112301027D01*
X131111200Y-112301027D02*
X131073104Y-112224836D01*
X131073104Y-112224836D02*
X131073104Y-111996265D01*
X131073104Y-111996265D02*
X131111200Y-111920074D01*
X131111200Y-111920074D02*
X131149295Y-111881979D01*
X163045923Y-111428740D02*
X163396109Y-111778926D01*
X163396109Y-111778926D02*
X162992048Y-111805864D01*
X162992048Y-111805864D02*
X163072860Y-111886676D01*
X163072860Y-111886676D02*
X163099798Y-111967488D01*
X163099798Y-111967488D02*
X163099798Y-112021363D01*
X163099798Y-112021363D02*
X163072860Y-112102175D01*
X163072860Y-112102175D02*
X162938173Y-112236862D01*
X162938173Y-112236862D02*
X162857361Y-112263799D01*
X162857361Y-112263799D02*
X162803486Y-112263799D01*
X162803486Y-112263799D02*
X162722674Y-112236862D01*
X162722674Y-112236862D02*
X162561050Y-112075238D01*
X162561050Y-112075238D02*
X162534112Y-111994425D01*
X162534112Y-111994425D02*
X162534112Y-111940551D01*
X163880983Y-112263800D02*
X163773233Y-112156050D01*
X163773233Y-112156050D02*
X163692421Y-112129113D01*
X163692421Y-112129113D02*
X163638546Y-112129113D01*
X163638546Y-112129113D02*
X163503859Y-112156050D01*
X163503859Y-112156050D02*
X163369172Y-112236862D01*
X163369172Y-112236862D02*
X163153673Y-112452361D01*
X163153673Y-112452361D02*
X163126735Y-112533174D01*
X163126735Y-112533174D02*
X163126735Y-112587048D01*
X163126735Y-112587048D02*
X163153673Y-112667861D01*
X163153673Y-112667861D02*
X163261422Y-112775610D01*
X163261422Y-112775610D02*
X163342235Y-112802548D01*
X163342235Y-112802548D02*
X163396109Y-112802548D01*
X163396109Y-112802548D02*
X163476922Y-112775610D01*
X163476922Y-112775610D02*
X163611609Y-112640923D01*
X163611609Y-112640923D02*
X163638546Y-112560111D01*
X163638546Y-112560111D02*
X163638546Y-112506236D01*
X163638546Y-112506236D02*
X163611609Y-112425424D01*
X163611609Y-112425424D02*
X163503859Y-112317674D01*
X163503859Y-112317674D02*
X163423047Y-112290737D01*
X163423047Y-112290737D02*
X163369172Y-112290737D01*
X163369172Y-112290737D02*
X163288360Y-112317674D01*
X155325923Y-111428740D02*
X155676109Y-111778926D01*
X155676109Y-111778926D02*
X155272048Y-111805864D01*
X155272048Y-111805864D02*
X155352860Y-111886676D01*
X155352860Y-111886676D02*
X155379798Y-111967488D01*
X155379798Y-111967488D02*
X155379798Y-112021363D01*
X155379798Y-112021363D02*
X155352860Y-112102175D01*
X155352860Y-112102175D02*
X155218173Y-112236862D01*
X155218173Y-112236862D02*
X155137361Y-112263799D01*
X155137361Y-112263799D02*
X155083486Y-112263799D01*
X155083486Y-112263799D02*
X155002674Y-112236862D01*
X155002674Y-112236862D02*
X154841050Y-112075238D01*
X154841050Y-112075238D02*
X154814112Y-111994425D01*
X154814112Y-111994425D02*
X154814112Y-111940551D01*
X155864671Y-111967488D02*
X156214857Y-112317674D01*
X156214857Y-112317674D02*
X155810796Y-112344612D01*
X155810796Y-112344612D02*
X155891609Y-112425424D01*
X155891609Y-112425424D02*
X155918546Y-112506236D01*
X155918546Y-112506236D02*
X155918546Y-112560111D01*
X155918546Y-112560111D02*
X155891609Y-112640923D01*
X155891609Y-112640923D02*
X155756922Y-112775610D01*
X155756922Y-112775610D02*
X155676109Y-112802548D01*
X155676109Y-112802548D02*
X155622235Y-112802548D01*
X155622235Y-112802548D02*
X155541422Y-112775610D01*
X155541422Y-112775610D02*
X155379798Y-112613986D01*
X155379798Y-112613986D02*
X155352861Y-112533174D01*
X155352861Y-112533174D02*
X155352861Y-112479299D01*
D11*
X162616667Y-101407200D02*
X162759524Y-101454819D01*
X162759524Y-101454819D02*
X162997619Y-101454819D01*
X162997619Y-101454819D02*
X163092857Y-101407200D01*
X163092857Y-101407200D02*
X163140476Y-101359580D01*
X163140476Y-101359580D02*
X163188095Y-101264342D01*
X163188095Y-101264342D02*
X163188095Y-101169104D01*
X163188095Y-101169104D02*
X163140476Y-101073866D01*
X163140476Y-101073866D02*
X163092857Y-101026247D01*
X163092857Y-101026247D02*
X162997619Y-100978628D01*
X162997619Y-100978628D02*
X162807143Y-100931009D01*
X162807143Y-100931009D02*
X162711905Y-100883390D01*
X162711905Y-100883390D02*
X162664286Y-100835771D01*
X162664286Y-100835771D02*
X162616667Y-100740533D01*
X162616667Y-100740533D02*
X162616667Y-100645295D01*
X162616667Y-100645295D02*
X162664286Y-100550057D01*
X162664286Y-100550057D02*
X162711905Y-100502438D01*
X162711905Y-100502438D02*
X162807143Y-100454819D01*
X162807143Y-100454819D02*
X163045238Y-100454819D01*
X163045238Y-100454819D02*
X163188095Y-100502438D01*
X163521429Y-100454819D02*
X163759524Y-101454819D01*
X163759524Y-101454819D02*
X163950000Y-100740533D01*
X163950000Y-100740533D02*
X164140476Y-101454819D01*
X164140476Y-101454819D02*
X164378572Y-100454819D01*
X165283333Y-101454819D02*
X164711905Y-101454819D01*
X164997619Y-101454819D02*
X164997619Y-100454819D01*
X164997619Y-100454819D02*
X164902381Y-100597676D01*
X164902381Y-100597676D02*
X164807143Y-100692914D01*
X164807143Y-100692914D02*
X164711905Y-100740533D01*
D12*
X143773104Y-97135312D02*
X143773104Y-96678169D01*
X143773104Y-96906741D02*
X144573104Y-96906741D01*
X144573104Y-96906741D02*
X144458819Y-96830550D01*
X144458819Y-96830550D02*
X144382628Y-96754360D01*
X144382628Y-96754360D02*
X144344533Y-96678169D01*
X144573104Y-97401979D02*
X144573104Y-97897217D01*
X144573104Y-97897217D02*
X144268342Y-97630551D01*
X144268342Y-97630551D02*
X144268342Y-97744836D01*
X144268342Y-97744836D02*
X144230247Y-97821027D01*
X144230247Y-97821027D02*
X144192152Y-97859122D01*
X144192152Y-97859122D02*
X144115961Y-97897217D01*
X144115961Y-97897217D02*
X143925485Y-97897217D01*
X143925485Y-97897217D02*
X143849295Y-97859122D01*
X143849295Y-97859122D02*
X143811200Y-97821027D01*
X143811200Y-97821027D02*
X143773104Y-97744836D01*
X143773104Y-97744836D02*
X143773104Y-97516265D01*
X143773104Y-97516265D02*
X143811200Y-97440074D01*
X143811200Y-97440074D02*
X143849295Y-97401979D01*
X156930247Y-96830550D02*
X156968342Y-96754360D01*
X156968342Y-96754360D02*
X157006438Y-96716265D01*
X157006438Y-96716265D02*
X157082628Y-96678169D01*
X157082628Y-96678169D02*
X157120723Y-96678169D01*
X157120723Y-96678169D02*
X157196914Y-96716265D01*
X157196914Y-96716265D02*
X157235009Y-96754360D01*
X157235009Y-96754360D02*
X157273104Y-96830550D01*
X157273104Y-96830550D02*
X157273104Y-96982931D01*
X157273104Y-96982931D02*
X157235009Y-97059122D01*
X157235009Y-97059122D02*
X157196914Y-97097217D01*
X157196914Y-97097217D02*
X157120723Y-97135312D01*
X157120723Y-97135312D02*
X157082628Y-97135312D01*
X157082628Y-97135312D02*
X157006438Y-97097217D01*
X157006438Y-97097217D02*
X156968342Y-97059122D01*
X156968342Y-97059122D02*
X156930247Y-96982931D01*
X156930247Y-96982931D02*
X156930247Y-96830550D01*
X156930247Y-96830550D02*
X156892152Y-96754360D01*
X156892152Y-96754360D02*
X156854057Y-96716265D01*
X156854057Y-96716265D02*
X156777866Y-96678169D01*
X156777866Y-96678169D02*
X156625485Y-96678169D01*
X156625485Y-96678169D02*
X156549295Y-96716265D01*
X156549295Y-96716265D02*
X156511200Y-96754360D01*
X156511200Y-96754360D02*
X156473104Y-96830550D01*
X156473104Y-96830550D02*
X156473104Y-96982931D01*
X156473104Y-96982931D02*
X156511200Y-97059122D01*
X156511200Y-97059122D02*
X156549295Y-97097217D01*
X156549295Y-97097217D02*
X156625485Y-97135312D01*
X156625485Y-97135312D02*
X156777866Y-97135312D01*
X156777866Y-97135312D02*
X156854057Y-97097217D01*
X156854057Y-97097217D02*
X156892152Y-97059122D01*
X156892152Y-97059122D02*
X156930247Y-96982931D01*
X131073104Y-97135312D02*
X131073104Y-96678169D01*
X131073104Y-96906741D02*
X131873104Y-96906741D01*
X131873104Y-96906741D02*
X131758819Y-96830550D01*
X131758819Y-96830550D02*
X131682628Y-96754360D01*
X131682628Y-96754360D02*
X131644533Y-96678169D01*
X131530247Y-97592455D02*
X131568342Y-97516265D01*
X131568342Y-97516265D02*
X131606438Y-97478170D01*
X131606438Y-97478170D02*
X131682628Y-97440074D01*
X131682628Y-97440074D02*
X131720723Y-97440074D01*
X131720723Y-97440074D02*
X131796914Y-97478170D01*
X131796914Y-97478170D02*
X131835009Y-97516265D01*
X131835009Y-97516265D02*
X131873104Y-97592455D01*
X131873104Y-97592455D02*
X131873104Y-97744836D01*
X131873104Y-97744836D02*
X131835009Y-97821027D01*
X131835009Y-97821027D02*
X131796914Y-97859122D01*
X131796914Y-97859122D02*
X131720723Y-97897217D01*
X131720723Y-97897217D02*
X131682628Y-97897217D01*
X131682628Y-97897217D02*
X131606438Y-97859122D01*
X131606438Y-97859122D02*
X131568342Y-97821027D01*
X131568342Y-97821027D02*
X131530247Y-97744836D01*
X131530247Y-97744836D02*
X131530247Y-97592455D01*
X131530247Y-97592455D02*
X131492152Y-97516265D01*
X131492152Y-97516265D02*
X131454057Y-97478170D01*
X131454057Y-97478170D02*
X131377866Y-97440074D01*
X131377866Y-97440074D02*
X131225485Y-97440074D01*
X131225485Y-97440074D02*
X131149295Y-97478170D01*
X131149295Y-97478170D02*
X131111200Y-97516265D01*
X131111200Y-97516265D02*
X131073104Y-97592455D01*
X131073104Y-97592455D02*
X131073104Y-97744836D01*
X131073104Y-97744836D02*
X131111200Y-97821027D01*
X131111200Y-97821027D02*
X131149295Y-97859122D01*
X131149295Y-97859122D02*
X131225485Y-97897217D01*
X131225485Y-97897217D02*
X131377866Y-97897217D01*
X131377866Y-97897217D02*
X131454057Y-97859122D01*
X131454057Y-97859122D02*
X131492152Y-97821027D01*
X131492152Y-97821027D02*
X131530247Y-97744836D01*
X174253104Y-97135312D02*
X174253104Y-96678169D01*
X174253104Y-96906741D02*
X175053104Y-96906741D01*
X175053104Y-96906741D02*
X174938819Y-96830550D01*
X174938819Y-96830550D02*
X174862628Y-96754360D01*
X174862628Y-96754360D02*
X174824533Y-96678169D01*
D11*
X174454819Y-104833333D02*
X175169104Y-104833333D01*
X175169104Y-104833333D02*
X175311961Y-104880952D01*
X175311961Y-104880952D02*
X175407200Y-104976190D01*
X175407200Y-104976190D02*
X175454819Y-105119047D01*
X175454819Y-105119047D02*
X175454819Y-105214285D01*
X174454819Y-104452380D02*
X174454819Y-103833333D01*
X174454819Y-103833333D02*
X174835771Y-104166666D01*
X174835771Y-104166666D02*
X174835771Y-104023809D01*
X174835771Y-104023809D02*
X174883390Y-103928571D01*
X174883390Y-103928571D02*
X174931009Y-103880952D01*
X174931009Y-103880952D02*
X175026247Y-103833333D01*
X175026247Y-103833333D02*
X175264342Y-103833333D01*
X175264342Y-103833333D02*
X175359580Y-103880952D01*
X175359580Y-103880952D02*
X175407200Y-103928571D01*
X175407200Y-103928571D02*
X175454819Y-104023809D01*
X175454819Y-104023809D02*
X175454819Y-104309523D01*
X175454819Y-104309523D02*
X175407200Y-104404761D01*
X175407200Y-104404761D02*
X175359580Y-104452380D01*
X127754819Y-104833333D02*
X128469104Y-104833333D01*
X128469104Y-104833333D02*
X128611961Y-104880952D01*
X128611961Y-104880952D02*
X128707200Y-104976190D01*
X128707200Y-104976190D02*
X128754819Y-105119047D01*
X128754819Y-105119047D02*
X128754819Y-105214285D01*
X128088152Y-103928571D02*
X128754819Y-103928571D01*
X127707200Y-104166666D02*
X128421485Y-104404761D01*
X128421485Y-104404761D02*
X128421485Y-103785714D01*
D13*
X156003641Y-98620000D02*
X155696359Y-98620000D01*
X156003641Y-99380000D02*
X155696359Y-99380000D01*
X166815000Y-107661252D02*
X166815000Y-107138748D01*
X168285000Y-107661252D02*
X168285000Y-107138748D01*
X165311252Y-109390000D02*
X164788748Y-109390000D01*
X165311252Y-111610000D02*
X164788748Y-111610000D01*
X155203641Y-109620000D02*
X154896359Y-109620000D01*
X155203641Y-110380000D02*
X154896359Y-110380000D01*
D14*
X154875000Y-99500000D02*
G75*
G02*
X154625000Y-99500000I-125000J0D01*
G01*
X154625000Y-99500000D02*
G75*
G02*
X154875000Y-99500000I125000J0D01*
G01*
D13*
X159896359Y-110120000D02*
X160203641Y-110120000D01*
X159896359Y-110880000D02*
X160203641Y-110880000D01*
X154942164Y-108740000D02*
X155157836Y-108740000D01*
X154942164Y-109460000D02*
X155157836Y-109460000D01*
X168670000Y-107846359D02*
X168670000Y-108153641D01*
X169430000Y-107846359D02*
X169430000Y-108153641D01*
X161750000Y-99300000D02*
X161750000Y-99420000D01*
X161750000Y-100430000D02*
X161750000Y-101570000D01*
X161750000Y-102580000D02*
X161750000Y-102700000D01*
X161750000Y-102700000D02*
X166150000Y-102700000D01*
X166150000Y-99300000D02*
X161750000Y-99300000D01*
X166150000Y-99420000D02*
X166150000Y-99300000D01*
X166150000Y-101570000D02*
X166150000Y-100430000D01*
X166150000Y-102700000D02*
X166150000Y-102580000D01*
X158300000Y-110000000D02*
X157000000Y-110000000D01*
X158300000Y-111800000D02*
X157000000Y-111800000D01*
D11*
X156475000Y-110390000D02*
G75*
G02*
X156325000Y-110390000I-75000J0D01*
G01*
X156325000Y-110390000D02*
G75*
G02*
X156475000Y-110390000I75000J0D01*
G01*
D13*
X157696359Y-98620000D02*
X158003641Y-98620000D01*
X157696359Y-99380000D02*
X158003641Y-99380000D01*
X154942164Y-107240000D02*
X155157836Y-107240000D01*
X154942164Y-107960000D02*
X155157836Y-107960000D01*
X142970000Y-103503641D02*
X142970000Y-103196359D01*
X143730000Y-103503641D02*
X143730000Y-103196359D01*
X168870000Y-101953641D02*
X168870000Y-101646359D01*
X169630000Y-101953641D02*
X169630000Y-101646359D01*
X150070000Y-110446359D02*
X150070000Y-110753641D01*
X150830000Y-110446359D02*
X150830000Y-110753641D01*
X159787258Y-108377500D02*
X159312742Y-108377500D01*
X159787258Y-109422500D02*
X159312742Y-109422500D01*
X143870000Y-102546359D02*
X143870000Y-102853641D01*
X144630000Y-102546359D02*
X144630000Y-102853641D01*
X167870000Y-101646359D02*
X167870000Y-101953641D01*
X168630000Y-101646359D02*
X168630000Y-101953641D01*
X153140000Y-99907836D02*
X153140000Y-99692164D01*
X153860000Y-99907836D02*
X153860000Y-99692164D01*
X174900000Y-99830000D02*
X173200000Y-99830000D01*
X174900000Y-109170000D02*
X173200000Y-109170000D01*
X161815000Y-107661252D02*
X161815000Y-107138748D01*
X163285000Y-107661252D02*
X163285000Y-107138748D01*
X170415000Y-96615000D02*
X170415000Y-98900000D01*
X171885000Y-96615000D02*
X170415000Y-96615000D01*
X171885000Y-98900000D02*
X171885000Y-96615000D01*
X163640000Y-108700000D02*
X163640000Y-106100000D01*
X166460000Y-108700000D02*
X166460000Y-106100000D01*
X163750000Y-109730000D02*
X163270000Y-109250000D01*
X163750000Y-109250000D01*
X163750000Y-109730000D01*
G36*
X163750000Y-109730000D02*
G01*
X163270000Y-109250000D01*
X163750000Y-109250000D01*
X163750000Y-109730000D01*
G37*
X154896359Y-110520000D02*
X155203641Y-110520000D01*
X154896359Y-111280000D02*
X155203641Y-111280000D01*
X139800000Y-100200000D02*
X139800000Y-104200000D01*
X143000000Y-100200000D02*
X139800000Y-100200000D01*
X125615000Y-103060000D02*
X125615000Y-105940000D01*
X127585000Y-101890000D02*
X130085000Y-101890000D01*
X127585000Y-107110000D02*
X130085000Y-107110000D01*
X130085000Y-101890000D02*
X130085000Y-102940000D01*
X130085000Y-102940000D02*
X131075000Y-102940000D01*
X130085000Y-107110000D02*
X130085000Y-106060000D01*
X154942164Y-106340000D02*
X155157836Y-106340000D01*
X154942164Y-107060000D02*
X155157836Y-107060000D01*
X146340000Y-100890000D02*
X146990000Y-100890000D01*
X146340000Y-101540000D02*
X146340000Y-100890000D01*
X146340000Y-107460000D02*
X146340000Y-108110000D01*
X146340000Y-108110000D02*
X146990000Y-108110000D01*
X152910000Y-100890000D02*
X153320000Y-100890000D01*
X153560000Y-101540000D02*
X153560000Y-101190000D01*
X153560000Y-107460000D02*
X153560000Y-108110000D01*
X153560000Y-108110000D02*
X152910000Y-108110000D01*
X153890000Y-101130000D02*
X153560000Y-100890000D01*
X153890000Y-100650000D01*
X153890000Y-101130000D01*
G36*
X153890000Y-101130000D02*
G01*
X153560000Y-100890000D01*
X153890000Y-100650000D01*
X153890000Y-101130000D01*
G37*
X167140000Y-109500000D02*
X167140000Y-111500000D01*
X167140000Y-109500000D02*
X171000000Y-109500000D01*
X167140000Y-111500000D02*
X171000000Y-111500000D01*
X149170000Y-110753641D02*
X149170000Y-110446359D01*
X149930000Y-110753641D02*
X149930000Y-110446359D01*
%LPC*%
D15*
X130600000Y-109700000D03*
D16*
X156360000Y-99000000D03*
X155340000Y-99000000D03*
D17*
X167550000Y-108350000D03*
X167550000Y-106450000D03*
D18*
X166125000Y-110500000D03*
X163975000Y-110500000D03*
D16*
X155560000Y-110000000D03*
X154540000Y-110000000D03*
D19*
X126320000Y-113390000D03*
X128860000Y-113390000D03*
D20*
X131400000Y-113390000D03*
D19*
X133940000Y-113390000D03*
X136480000Y-113390000D03*
X139020000Y-113390000D03*
X141560000Y-113390000D03*
D20*
X144100000Y-113390000D03*
D19*
X146640000Y-113390000D03*
X149180000Y-113390000D03*
X151720000Y-113390000D03*
X154260000Y-113390000D03*
D20*
X156800000Y-113390000D03*
D19*
X159340000Y-113390000D03*
X161880000Y-113390000D03*
X164420000Y-113390000D03*
X166960000Y-113390000D03*
D20*
X169500000Y-113390000D03*
D19*
X172040000Y-113390000D03*
X174580000Y-113390000D03*
D21*
X155450000Y-99950000D03*
X155450000Y-100450000D03*
X155450000Y-100950000D03*
X155450000Y-101450000D03*
X158250000Y-101450000D03*
X158250000Y-100950000D03*
X158250000Y-100450000D03*
X158250000Y-99950000D03*
D22*
X156850000Y-100700000D03*
D23*
X145270000Y-104500000D03*
X144630000Y-104500000D03*
D24*
X159540000Y-110500000D03*
X160560000Y-110500000D03*
D25*
X154570000Y-109100000D03*
X155530000Y-109100000D03*
D26*
X169050000Y-107490000D03*
X169050000Y-108510000D03*
D27*
X161875000Y-99925000D03*
X166025000Y-99925000D03*
X161875000Y-102075000D03*
X166025000Y-102075000D03*
D28*
X157005000Y-110400000D03*
X157005000Y-111400000D03*
X158295000Y-110900000D03*
D23*
X155370000Y-105900000D03*
X154730000Y-105900000D03*
D24*
X157340000Y-99000000D03*
X158360000Y-99000000D03*
D29*
X148776274Y-108873726D03*
X148323726Y-109326274D03*
D30*
X152650000Y-100320000D03*
X152650000Y-99680000D03*
D23*
X145270000Y-105200000D03*
X144630000Y-105200000D03*
D25*
X154570000Y-107600000D03*
X155530000Y-107600000D03*
D31*
X143350000Y-103860000D03*
X143350000Y-102840000D03*
D32*
X154730000Y-103800000D03*
X155370000Y-103800000D03*
D31*
X169250000Y-102310000D03*
X169250000Y-101290000D03*
D26*
X150450000Y-110090000D03*
X150450000Y-111110000D03*
D33*
X160375000Y-108900000D03*
X158725000Y-108900000D03*
D26*
X144250000Y-102190000D03*
X144250000Y-103210000D03*
D19*
X174580000Y-95610000D03*
X172040000Y-95610000D03*
D20*
X169500000Y-95610000D03*
D19*
X166960000Y-95610000D03*
X164420000Y-95610000D03*
X161880000Y-95610000D03*
X159340000Y-95610000D03*
D20*
X156800000Y-95610000D03*
D19*
X154260000Y-95610000D03*
X151720000Y-95610000D03*
X149180000Y-95610000D03*
X146640000Y-95610000D03*
D20*
X144100000Y-95610000D03*
D19*
X141560000Y-95610000D03*
X139020000Y-95610000D03*
X136480000Y-95610000D03*
X133940000Y-95610000D03*
D20*
X131400000Y-95610000D03*
D19*
X128860000Y-95610000D03*
X126320000Y-95610000D03*
D26*
X168250000Y-101290000D03*
X168250000Y-102310000D03*
D34*
X153500000Y-100280000D03*
X153500000Y-99320000D03*
D32*
X159530000Y-111400000D03*
X160170000Y-111400000D03*
D23*
X142220000Y-104500000D03*
X141580000Y-104500000D03*
D35*
X172395000Y-107390000D03*
X172395000Y-101610000D03*
D36*
X171320000Y-107700000D03*
X171320000Y-106900000D03*
D37*
X171320000Y-105750000D03*
X171320000Y-104750000D03*
X171320000Y-104250000D03*
X171320000Y-103250000D03*
D36*
X171320000Y-102100000D03*
X171320000Y-101300000D03*
X171320000Y-101300000D03*
X171320000Y-102100000D03*
D37*
X171320000Y-102750000D03*
X171320000Y-103750000D03*
X171320000Y-105250000D03*
X171320000Y-106250000D03*
D36*
X171320000Y-106900000D03*
X171320000Y-107700000D03*
D38*
X171895000Y-108820000D03*
D39*
X176075000Y-108820000D03*
D38*
X171895000Y-100180000D03*
D39*
X176075000Y-100180000D03*
D17*
X162550000Y-108350000D03*
X162550000Y-106450000D03*
D40*
X171150000Y-97312500D03*
X171150000Y-98887500D03*
D15*
X168350000Y-98700000D03*
D41*
X164050000Y-108675000D03*
X164550000Y-108675000D03*
X165050000Y-108675000D03*
X165550000Y-108675000D03*
X166050000Y-108675000D03*
X166050000Y-106125000D03*
X165550000Y-106125000D03*
X165050000Y-106125000D03*
X164550000Y-106125000D03*
X164050000Y-106125000D03*
D42*
X165050000Y-107400000D03*
D23*
X155370000Y-105200000D03*
X154730000Y-105200000D03*
D30*
X148950000Y-100320000D03*
X148950000Y-99680000D03*
D24*
X154540000Y-110900000D03*
X155560000Y-110900000D03*
D43*
X140600000Y-101100000D03*
X140600000Y-103300000D03*
X142200000Y-103300000D03*
X142200000Y-101100000D03*
D44*
X130300000Y-103500000D03*
X130300000Y-104500000D03*
X130300000Y-105500000D03*
D45*
X126425000Y-102200000D03*
X126425000Y-106800000D03*
D32*
X154730000Y-104500000D03*
X155370000Y-104500000D03*
X140580000Y-99900000D03*
X141220000Y-99900000D03*
D25*
X154570000Y-106700000D03*
X155530000Y-106700000D03*
D32*
X159180000Y-99950000D03*
X159820000Y-99950000D03*
D46*
X152550000Y-101062500D03*
X152150000Y-101062500D03*
X151750000Y-101062500D03*
X151350000Y-101062500D03*
X150950000Y-101062500D03*
X150550000Y-101062500D03*
X150150000Y-101062500D03*
X149750000Y-101062500D03*
X149350000Y-101062500D03*
X148950000Y-101062500D03*
X148550000Y-101062500D03*
X148150000Y-101062500D03*
X147750000Y-101062500D03*
X147350000Y-101062500D03*
D47*
X146512500Y-101900000D03*
X146512500Y-102300000D03*
X146512500Y-102700000D03*
X146512500Y-103100000D03*
X146512500Y-103500000D03*
X146512500Y-103900000D03*
X146512500Y-104300000D03*
X146512500Y-104700000D03*
X146512500Y-105100000D03*
X146512500Y-105500000D03*
X146512500Y-105900000D03*
X146512500Y-106300000D03*
X146512500Y-106700000D03*
X146512500Y-107100000D03*
D46*
X147350000Y-107937500D03*
X147750000Y-107937500D03*
X148150000Y-107937500D03*
X148550000Y-107937500D03*
X148950000Y-107937500D03*
X149350000Y-107937500D03*
X149750000Y-107937500D03*
X150150000Y-107937500D03*
X150550000Y-107937500D03*
X150950000Y-107937500D03*
X151350000Y-107937500D03*
X151750000Y-107937500D03*
X152150000Y-107937500D03*
X152550000Y-107937500D03*
D47*
X153387500Y-107100000D03*
X153387500Y-106700000D03*
X153387500Y-106300000D03*
X153387500Y-105900000D03*
X153387500Y-105500000D03*
X153387500Y-105100000D03*
X153387500Y-104700000D03*
X153387500Y-104300000D03*
X153387500Y-103900000D03*
X153387500Y-103500000D03*
X153387500Y-103100000D03*
X153387500Y-102700000D03*
X153387500Y-102300000D03*
X153387500Y-101900000D03*
D48*
X149950000Y-104500000D03*
D49*
X167950000Y-110500000D03*
X170750000Y-110500000D03*
D50*
X152850000Y-108680000D03*
X152850000Y-109320000D03*
D31*
X149550000Y-111110000D03*
X149550000Y-110090000D03*
%LPD*%
M02*
