M48
; DRILL file {KiCad 8.0.6} date 2024-11-24T01:46:10-0500
; FORMAT={-:-/ absolute / metric / decimal}
; #@! TF.CreationDate,2024-11-24T01:46:10-05:00
; #@! TF.GenerationSoftware,Kicad,Pcbnew,8.0.6
; #@! TF.FileFunction,Plated,1,2,PTH
FMAT,2
METRIC
; #@! TA.AperFunction,Plated,PTH,ViaDrill
T1C0.250
; #@! TA.AperFunction,Plated,PTH,ComponentDrill
T2C0.600
; #@! TA.AperFunction,Plated,PTH,ComponentDrill
T3C1.000
%
G90
G05
T1
X126.45Y-103.4
X126.45Y-105.8
X127.25Y-112.6
X127.35Y-96.4
X128.15Y-108.0
X129.15Y-106.4
X129.3Y-103.6
X129.3Y-105.6
X131.6Y-104.5
X132.55Y-108.1
X133.05Y-111.4
X135.2Y-95.1
X135.2Y-97.75
X135.2Y-113.9
X137.7Y-97.55
X137.75Y-95.1
X137.75Y-113.9
X137.95Y-111.25
X139.85Y-97.15
X140.0Y-111.7
X140.3Y-95.1
X140.3Y-113.9
X141.1Y-104.95
X141.9Y-99.9
X142.05Y-96.75
X142.05Y-112.2
X144.173Y-104.5
X144.173Y-105.2
X144.55Y-101.5
X144.95Y-107.25
X145.45Y-106.5
X145.75Y-105.2
X147.9Y-95.1
X147.9Y-104.9
X147.9Y-113.9
X147.95Y-109.7
X148.0Y-98.4
X148.3Y-110.85
X148.8Y-110.3
X148.85Y-103.4
X148.85Y-104.45
X148.85Y-105.6
X148.95Y-99.22
X149.75Y-109.4
X149.75Y-112.1
X149.9Y-103.4
X149.9Y-104.45
X149.9Y-105.6
X150.45Y-95.1
X150.45Y-111.722
X150.55Y-108.8
X151.05Y-103.4
X151.05Y-104.45
X151.05Y-105.6
X151.35Y-106.6
X152.0Y-104.2
X152.65Y-99.22
X152.85Y-109.78
X153.75Y-107.5
X153.75Y-109.1
X153.95Y-110.9
X154.08Y-98.95
X154.15Y-99.85
X154.178Y-104.2
X154.728Y-99.0
X155.85Y-103.8
X155.85Y-104.5
X156.15Y-106.7
X156.15Y-107.6
X156.172Y-109.1
X156.277Y-101.3
X156.3Y-100.7
X156.85Y-107.0
X157.423Y-99.95
X157.423Y-100.673
X157.65Y-110.4
X157.65Y-111.0
X157.85Y-109.2
X158.85Y-96.75
X159.82Y-99.35
X159.82Y-100.55
X160.6Y-95.1
X160.6Y-113.9
X160.7Y-105.35
X160.75Y-102.8
X160.95Y-111.4
X161.05Y-108.9
X161.1Y-97.05
X161.3Y-112.2
X161.35Y-110.5
X162.65Y-99.0
X163.15Y-95.1
X163.35Y-97.35
X163.75Y-107.1
X163.75Y-107.7
X164.175Y-102.575
X165.05Y-105.6
X165.7Y-95.1
X165.85Y-97.45
X166.0Y-100.8
X166.35Y-107.1
X166.35Y-107.7
X166.85Y-100.85
X167.35Y-109.473
X168.25Y-100.66
X169.05Y-106.878
X169.07Y-106.1
X169.55Y-97.4
X169.885Y-102.285
X170.25Y-100.45
X170.25Y-103.2
X173.05Y-96.4
X173.1Y-102.75
X173.1Y-103.75
X173.1Y-105.265
X173.1Y-106.477
T3
X126.32Y-95.61
X126.32Y-113.39
X128.86Y-95.61
X128.86Y-113.39
X131.4Y-95.61
X131.4Y-113.39
X133.94Y-95.61
X133.94Y-113.39
X136.48Y-95.61
X136.48Y-113.39
X139.02Y-95.61
X139.02Y-113.39
X141.56Y-95.61
X141.56Y-113.39
X144.1Y-95.61
X144.1Y-113.39
X146.64Y-95.61
X146.64Y-113.39
X149.18Y-95.61
X149.18Y-113.39
X151.72Y-95.61
X151.72Y-113.39
X154.26Y-95.61
X154.26Y-113.39
X156.8Y-95.61
X156.8Y-113.39
X159.34Y-95.61
X159.34Y-113.39
X161.88Y-95.61
X161.88Y-113.39
X164.42Y-95.61
X164.42Y-113.39
X166.96Y-95.61
X166.96Y-113.39
X169.5Y-95.61
X169.5Y-113.39
X172.04Y-95.61
X172.04Y-113.39
X174.58Y-95.61
X174.58Y-113.39
T2
G00X171.345Y-100.18
M15
G01X172.445Y-100.18
M16
G05
G00X171.345Y-108.82
M15
G01X172.445Y-108.82
M16
G05
G00X175.675Y-100.18
M15
G01X176.475Y-100.18
M16
G05
G00X175.675Y-108.82
M15
G01X176.475Y-108.82
M16
G05
M30
