G04 #@! TF.GenerationSoftware,KiCad,Pcbnew,8.0.6*
G04 #@! TF.CreationDate,2024-11-24T01:45:06-05:00*
G04 #@! TF.ProjectId,RPI-PICO-R3a-PUBLIC,5250492d-5049-4434-9f2d-5233612d5055,4*
G04 #@! TF.SameCoordinates,Original*
G04 #@! TF.FileFunction,Soldermask,Top*
G04 #@! TF.FilePolarity,Negative*
%FSLAX46Y46*%
G04 Gerber Fmt 4.6, Leading zero omitted, Abs format (unit mm)*
G04 Created by KiCad (PCBNEW 8.0.6) date 2024-11-24 01:45:06*
%MOMM*%
%LPD*%
G01*
G04 APERTURE LIST*
G04 Aperture macros list*
%AMRoundRect*
0 Rectangle with rounded corners*
0 $1 Rounding radius*
0 $2 $3 $4 $5 $6 $7 $8 $9 X,Y pos of 4 corners*
0 Add a 4 corners polygon primitive as box body*
4,1,4,$2,$3,$4,$5,$6,$7,$8,$9,$2,$3,0*
0 Add four circle primitives for the rounded corners*
1,1,$1+$1,$2,$3*
1,1,$1+$1,$4,$5*
1,1,$1+$1,$6,$7*
1,1,$1+$1,$8,$9*
0 Add four rect primitives between the rounded corners*
20,1,$1+$1,$2,$3,$4,$5,0*
20,1,$1+$1,$4,$5,$6,$7,0*
20,1,$1+$1,$6,$7,$8,$9,0*
20,1,$1+$1,$8,$9,$2,$3,0*%
G04 Aperture macros list end*
%ADD10C,2.000000*%
%ADD11RoundRect,0.135000X0.135000X0.185000X-0.135000X0.185000X-0.135000X-0.185000X0.135000X-0.185000X0*%
%ADD12RoundRect,0.250000X0.475000X-0.250000X0.475000X0.250000X-0.475000X0.250000X-0.475000X-0.250000X0*%
%ADD13RoundRect,0.250000X0.375000X0.850000X-0.375000X0.850000X-0.375000X-0.850000X0.375000X-0.850000X0*%
%ADD14C,1.600000*%
%ADD15R,1.600000X1.600000*%
%ADD16RoundRect,0.102000X-0.450000X-0.150000X0.450000X-0.150000X0.450000X0.150000X-0.450000X0.150000X0*%
%ADD17RoundRect,0.102000X0.125000X-0.825000X0.125000X0.825000X-0.125000X0.825000X-0.125000X-0.825000X0*%
%ADD18RoundRect,0.100000X0.130000X0.100000X-0.130000X0.100000X-0.130000X-0.100000X0.130000X-0.100000X0*%
%ADD19RoundRect,0.135000X-0.135000X-0.185000X0.135000X-0.185000X0.135000X0.185000X-0.135000X0.185000X0*%
%ADD20RoundRect,0.140000X-0.140000X-0.170000X0.140000X-0.170000X0.140000X0.170000X-0.140000X0.170000X0*%
%ADD21RoundRect,0.135000X-0.185000X0.135000X-0.185000X-0.135000X0.185000X-0.135000X0.185000X0.135000X0*%
%ADD22R,1.050000X0.650000*%
%ADD23RoundRect,0.100000X0.155000X0.100000X-0.155000X0.100000X-0.155000X-0.100000X0.155000X-0.100000X0*%
%ADD24RoundRect,0.100000X0.021213X0.162635X-0.162635X-0.021213X-0.021213X-0.162635X0.162635X0.021213X0*%
%ADD25RoundRect,0.100000X0.100000X-0.130000X0.100000X0.130000X-0.100000X0.130000X-0.100000X-0.130000X0*%
%ADD26RoundRect,0.135000X0.185000X-0.135000X0.185000X0.135000X-0.185000X0.135000X-0.185000X-0.135000X0*%
%ADD27RoundRect,0.100000X-0.130000X-0.100000X0.130000X-0.100000X0.130000X0.100000X-0.130000X0.100000X0*%
%ADD28RoundRect,0.200000X0.200000X0.275000X-0.200000X0.275000X-0.200000X-0.275000X0.200000X-0.275000X0*%
%ADD29RoundRect,0.140000X0.170000X-0.140000X0.170000X0.140000X-0.170000X0.140000X-0.170000X-0.140000X0*%
%ADD30C,0.650000*%
%ADD31RoundRect,0.150000X0.425000X-0.150000X0.425000X0.150000X-0.425000X0.150000X-0.425000X-0.150000X0*%
%ADD32RoundRect,0.075000X0.500000X-0.075000X0.500000X0.075000X-0.500000X0.075000X-0.500000X-0.075000X0*%
%ADD33O,2.100000X1.000000*%
%ADD34O,1.800000X1.000000*%
%ADD35RoundRect,0.218750X-0.256250X0.218750X-0.256250X-0.218750X0.256250X-0.218750X0.256250X0.218750X0*%
%ADD36RoundRect,0.062500X0.062500X-0.337500X0.062500X0.337500X-0.062500X0.337500X-0.062500X-0.337500X0*%
%ADD37R,2.200000X1.300000*%
%ADD38R,1.200000X1.400000*%
%ADD39RoundRect,0.150000X-0.625000X0.150000X-0.625000X-0.150000X0.625000X-0.150000X0.625000X0.150000X0*%
%ADD40RoundRect,0.250000X-0.650000X0.350000X-0.650000X-0.350000X0.650000X-0.350000X0.650000X0.350000X0*%
%ADD41RoundRect,0.050000X-0.050000X0.387500X-0.050000X-0.387500X0.050000X-0.387500X0.050000X0.387500X0*%
%ADD42RoundRect,0.050000X-0.387500X0.050000X-0.387500X-0.050000X0.387500X-0.050000X0.387500X0.050000X0*%
%ADD43R,3.200000X3.200000*%
%ADD44RoundRect,0.250000X-0.300000X-0.300000X0.300000X-0.300000X0.300000X0.300000X-0.300000X0.300000X0*%
%ADD45RoundRect,0.100000X-0.100000X0.130000X-0.100000X-0.130000X0.100000X-0.130000X0.100000X0.130000X0*%
G04 APERTURE END LIST*
D10*
X130600000Y-109700000D03*
D11*
X156360000Y-99000000D03*
X155340000Y-99000000D03*
D12*
X167550000Y-108350000D03*
X167550000Y-106450000D03*
D13*
X166125000Y-110500000D03*
X163975000Y-110500000D03*
D11*
X155560000Y-110000000D03*
X154540000Y-110000000D03*
D14*
X126320000Y-113390000D03*
X128860000Y-113390000D03*
D15*
X131400000Y-113390000D03*
D14*
X133940000Y-113390000D03*
X136480000Y-113390000D03*
X139020000Y-113390000D03*
X141560000Y-113390000D03*
D15*
X144100000Y-113390000D03*
D14*
X146640000Y-113390000D03*
X149180000Y-113390000D03*
X151720000Y-113390000D03*
X154260000Y-113390000D03*
D15*
X156800000Y-113390000D03*
D14*
X159340000Y-113390000D03*
X161880000Y-113390000D03*
X164420000Y-113390000D03*
X166960000Y-113390000D03*
D15*
X169500000Y-113390000D03*
D14*
X172040000Y-113390000D03*
X174580000Y-113390000D03*
D16*
X155450000Y-99950000D03*
X155450000Y-100450000D03*
X155450000Y-100950000D03*
X155450000Y-101450000D03*
X158250000Y-101450000D03*
X158250000Y-100950000D03*
X158250000Y-100450000D03*
X158250000Y-99950000D03*
D17*
X156850000Y-100700000D03*
D18*
X145270000Y-104500000D03*
X144630000Y-104500000D03*
D19*
X159540000Y-110500000D03*
X160560000Y-110500000D03*
D20*
X154570000Y-109100000D03*
X155530000Y-109100000D03*
D21*
X169050000Y-107490000D03*
X169050000Y-108510000D03*
D22*
X161875000Y-99925000D03*
X166025000Y-99925000D03*
X161875000Y-102075000D03*
X166025000Y-102075000D03*
D23*
X157005000Y-110400000D03*
X157005000Y-111400000D03*
X158295000Y-110900000D03*
D18*
X155370000Y-105900000D03*
X154730000Y-105900000D03*
D19*
X157340000Y-99000000D03*
X158360000Y-99000000D03*
D24*
X148776274Y-108873726D03*
X148323726Y-109326274D03*
D25*
X152650000Y-100320000D03*
X152650000Y-99680000D03*
D18*
X145270000Y-105200000D03*
X144630000Y-105200000D03*
D20*
X154570000Y-107600000D03*
X155530000Y-107600000D03*
D26*
X143350000Y-103860000D03*
X143350000Y-102840000D03*
D27*
X154730000Y-103800000D03*
X155370000Y-103800000D03*
D26*
X169250000Y-102310000D03*
X169250000Y-101290000D03*
D21*
X150450000Y-110090000D03*
X150450000Y-111110000D03*
D28*
X160375000Y-108900000D03*
X158725000Y-108900000D03*
D21*
X144250000Y-102190000D03*
X144250000Y-103210000D03*
D14*
X174580000Y-95610000D03*
X172040000Y-95610000D03*
D15*
X169500000Y-95610000D03*
D14*
X166960000Y-95610000D03*
X164420000Y-95610000D03*
X161880000Y-95610000D03*
X159340000Y-95610000D03*
D15*
X156800000Y-95610000D03*
D14*
X154260000Y-95610000D03*
X151720000Y-95610000D03*
X149180000Y-95610000D03*
X146640000Y-95610000D03*
D15*
X144100000Y-95610000D03*
D14*
X141560000Y-95610000D03*
X139020000Y-95610000D03*
X136480000Y-95610000D03*
X133940000Y-95610000D03*
D15*
X131400000Y-95610000D03*
D14*
X128860000Y-95610000D03*
X126320000Y-95610000D03*
D21*
X168250000Y-101290000D03*
X168250000Y-102310000D03*
D29*
X153500000Y-100280000D03*
X153500000Y-99320000D03*
D27*
X159530000Y-111400000D03*
X160170000Y-111400000D03*
D18*
X142220000Y-104500000D03*
X141580000Y-104500000D03*
D30*
X172395000Y-107390000D03*
X172395000Y-101610000D03*
D31*
X171320000Y-107700000D03*
X171320000Y-106900000D03*
D32*
X171320000Y-105750000D03*
X171320000Y-104750000D03*
X171320000Y-104250000D03*
X171320000Y-103250000D03*
D31*
X171320000Y-102100000D03*
X171320000Y-101300000D03*
X171320000Y-101300000D03*
X171320000Y-102100000D03*
D32*
X171320000Y-102750000D03*
X171320000Y-103750000D03*
X171320000Y-105250000D03*
X171320000Y-106250000D03*
D31*
X171320000Y-106900000D03*
X171320000Y-107700000D03*
D33*
X171895000Y-108820000D03*
D34*
X176075000Y-108820000D03*
D33*
X171895000Y-100180000D03*
D34*
X176075000Y-100180000D03*
D12*
X162550000Y-108350000D03*
X162550000Y-106450000D03*
D35*
X171150000Y-97312500D03*
X171150000Y-98887500D03*
D10*
X168350000Y-98700000D03*
D36*
X164050000Y-108675000D03*
X164550000Y-108675000D03*
X165050000Y-108675000D03*
X165550000Y-108675000D03*
X166050000Y-108675000D03*
X166050000Y-106125000D03*
X165550000Y-106125000D03*
X165050000Y-106125000D03*
X164550000Y-106125000D03*
X164050000Y-106125000D03*
D37*
X165050000Y-107400000D03*
D18*
X155370000Y-105200000D03*
X154730000Y-105200000D03*
D25*
X148950000Y-100320000D03*
X148950000Y-99680000D03*
D19*
X154540000Y-110900000D03*
X155560000Y-110900000D03*
D38*
X140600000Y-101100000D03*
X140600000Y-103300000D03*
X142200000Y-103300000D03*
X142200000Y-101100000D03*
D39*
X130300000Y-103500000D03*
X130300000Y-104500000D03*
X130300000Y-105500000D03*
D40*
X126425000Y-102200000D03*
X126425000Y-106800000D03*
D27*
X154730000Y-104500000D03*
X155370000Y-104500000D03*
X140580000Y-99900000D03*
X141220000Y-99900000D03*
D20*
X154570000Y-106700000D03*
X155530000Y-106700000D03*
D27*
X159180000Y-99950000D03*
X159820000Y-99950000D03*
D41*
X152550000Y-101062500D03*
X152150000Y-101062500D03*
X151750000Y-101062500D03*
X151350000Y-101062500D03*
X150950000Y-101062500D03*
X150550000Y-101062500D03*
X150150000Y-101062500D03*
X149750000Y-101062500D03*
X149350000Y-101062500D03*
X148950000Y-101062500D03*
X148550000Y-101062500D03*
X148150000Y-101062500D03*
X147750000Y-101062500D03*
X147350000Y-101062500D03*
D42*
X146512500Y-101900000D03*
X146512500Y-102300000D03*
X146512500Y-102700000D03*
X146512500Y-103100000D03*
X146512500Y-103500000D03*
X146512500Y-103900000D03*
X146512500Y-104300000D03*
X146512500Y-104700000D03*
X146512500Y-105100000D03*
X146512500Y-105500000D03*
X146512500Y-105900000D03*
X146512500Y-106300000D03*
X146512500Y-106700000D03*
X146512500Y-107100000D03*
D41*
X147350000Y-107937500D03*
X147750000Y-107937500D03*
X148150000Y-107937500D03*
X148550000Y-107937500D03*
X148950000Y-107937500D03*
X149350000Y-107937500D03*
X149750000Y-107937500D03*
X150150000Y-107937500D03*
X150550000Y-107937500D03*
X150950000Y-107937500D03*
X151350000Y-107937500D03*
X151750000Y-107937500D03*
X152150000Y-107937500D03*
X152550000Y-107937500D03*
D42*
X153387500Y-107100000D03*
X153387500Y-106700000D03*
X153387500Y-106300000D03*
X153387500Y-105900000D03*
X153387500Y-105500000D03*
X153387500Y-105100000D03*
X153387500Y-104700000D03*
X153387500Y-104300000D03*
X153387500Y-103900000D03*
X153387500Y-103500000D03*
X153387500Y-103100000D03*
X153387500Y-102700000D03*
X153387500Y-102300000D03*
X153387500Y-101900000D03*
D43*
X149950000Y-104500000D03*
D44*
X167950000Y-110500000D03*
X170750000Y-110500000D03*
D45*
X152850000Y-108680000D03*
X152850000Y-109320000D03*
D26*
X149550000Y-111110000D03*
X149550000Y-110090000D03*
M02*
